<svg width="98" height="62" viewBox="0 0 98 62" fill="none" xmlns="http://www.w3.org/2000/svg">
<path d="M93.8231 43.7857L93.2879 43.6439C92.1795 43.3489 91.1921 42.6758 90.4771 41.7273L82.8956 31.6619C80.5406 28.5376 76.978 26.7199 73.2107 26.7212H7.85645V31.6619L15.1436 33.1852L39.3732 38.2488L50.5547 51.4466C52.3188 53.5284 54.8323 54.7171 57.4692 54.7171H92.5563C95.4418 54.719 97.7809 52.237 97.7827 49.1726C97.7845 46.6251 96.1515 44.4015 93.8231 43.7857Z" fill="#E59E16"/>
<path d="M51.123 2.96729H54.5165V19.9345H51.123V2.96729Z" fill="#F9B22A"/>
<path d="M67.242 26.7214H39.2461L43.0052 19.8853C43.5665 18.8638 44.5791 18.2378 45.6726 18.2378H60.8155C61.909 18.2378 62.9216 18.8638 63.4829 19.8853L67.242 26.7214Z" fill="#F9B22A"/>
<path d="M10.7246 28.7967L8.03578 31.4054L6.70889 23.4443L6.9996 23.1791L10.7246 28.7967Z" fill="#E59E16"/>
<path d="M65.3749 33.5083L71.4834 42.8403H62.3213L56.2129 33.5083H65.3749Z" fill="#F9B22A"/>
<path d="M78.6747 42.7131L91.8441 42.8403C91.2466 42.511 90.7193 42.0619 90.2918 41.518L84.0931 33.5083H73.1802L78.6747 42.7131Z" fill="#F9B22A"/>
<path d="M57.9097 54.7173H60.4548V58.1107H57.9097V54.7173Z" fill="#F9B22A"/>
<path d="M84.209 54.7173H86.7541V58.1107H84.209V54.7173Z" fill="#F9B22A"/>
<path d="M47.2286 6.36064H10.9575C9.24439 6.36064 7.85645 5.03169 7.85645 3.39138C7.85645 1.75107 9.24439 0.422119 10.9575 0.422119H47.2286C47.8416 0.422119 48.4397 0.595979 48.9501 0.920973L52.8196 3.39138L48.9435 5.86179C48.435 6.18678 47.8398 6.35894 47.2286 6.36064Z" fill="#E59E16"/>
<path d="M58.4107 0.422119H94.6819C96.395 0.422119 97.7829 1.75107 97.7829 3.39138C97.7829 5.03169 96.395 6.36064 94.6819 6.36064H58.4107C57.7983 6.36064 57.2002 6.18678 56.6899 5.86179L52.8198 3.39138L56.6964 0.920973C57.2049 0.597684 57.8001 0.423824 58.4107 0.422119Z" fill="#E59E16"/>
<path d="M85.9056 42.8401L74.877 36.0532L78.6635 42.7652L85.9056 42.8401Z" fill="#F9B22A"/>
<path d="M68.0903 42.8402L58.7583 37.75L62.2576 42.8402H68.0903Z" fill="#F9B22A"/>
<ellipse cx="57.0614" cy="58.5349" rx="3.39344" ry="2.96926" fill="#E59E16"/>
<ellipse cx="83.7847" cy="58.5349" rx="2.96926" ry="2.96926" fill="#E59E16"/>
<ellipse rx="0.839148" ry="3.33868" transform="matrix(0.995616 -0.0935393 0.169979 0.985448 6.52358 20.7424)" fill="#E59E16"/>
<ellipse rx="0.847191" ry="3.94698" transform="matrix(0.797239 0.603664 -0.69056 0.723275 9.56112 21.6037)" fill="#E59E16"/>
<ellipse rx="0.844322" ry="2.88485" transform="matrix(-0.949363 -0.314183 0.385108 -0.922871 6.37484 26.3424)" fill="#E59E16"/>
</svg>
