<svg width="93" height="72" viewBox="0 0 93 72" fill="none" xmlns="http://www.w3.org/2000/svg">
<path d="M44.8311 32.2366L91.2919 13.0327C92.9026 13.2805 92.6857 14.9944 92.376 15.8204L77.3536 35.334L73.7916 37.5022C72.6559 38.1733 69.8889 39.7013 67.9066 40.4447C65.9243 41.1881 59.1306 42.9226 55.9816 43.6969C57.3445 43.9447 58.0982 44.8327 58.3047 45.2456L57.9949 70.7991L45.7602 71.2637L0.848145 70.954V70.1796C1.93216 61.8167 3.94554 57.3255 6.42345 51.2856V50.8209L5.33936 50.5112L4.1004 47.4138L4.25527 45.4005L11.2244 44.4713L11.3793 44.1616L11.0695 43.0775L11.689 41.9934C11.9987 41.7869 12.4633 41.312 11.8439 41.0642C11.2244 40.8164 11.4825 39.4122 11.689 38.7411L12.4633 37.5022L14.6315 35.1791L17.2643 30.8428C17.574 30.2749 18.5652 29.1702 20.0519 29.2941C21.5387 29.418 21.7039 31.3074 21.6006 32.2366L20.5166 35.7986L22.5299 38.4314H23.4591L25.0078 38.1216C25.2659 37.9152 25.875 37.3163 26.2467 36.5729C26.6184 35.8296 27.0211 35.6437 27.1759 35.6437C27.9503 35.2307 29.499 34.3738 29.499 34.2499C29.499 34.126 30.5315 33.3723 31.0477 33.011L31.2026 25.5772L29.1892 24.3383V23.2541L30.4282 18.6081C29.499 18.2467 27.5167 17.2143 27.0211 15.9753C26.5255 14.7363 27.0211 13.4974 27.3308 13.0328C28.5182 11.639 30.9238 8.7274 31.0477 8.23182C31.1716 7.73624 32.235 6.78635 32.7513 6.37335H35.2292V5.44417C34.9711 5.08281 34.4238 4.08132 34.2999 2.96626C34.176 1.8512 35.0743 1.05618 35.5389 0.798051C36.0551 0.591558 37.3354 0.302468 38.3265 0.798051C39.3177 1.29363 39.5655 2.34675 39.5655 2.81136V5.90875L38.946 6.37335V7.45744C40.3089 7.82913 41.7853 9.47075 42.3531 10.2451C42.7661 11.7938 43.654 15.0151 43.9018 15.5107C44.1496 16.0062 44.3148 18.4016 44.3664 19.5373L44.8311 19.6921V21.3957C46.1939 22.1391 46.4314 22.9444 46.3798 23.2541L44.8311 32.2366Z" fill="#F9B22A"/>
<path d="M55.362 32.7013L91.7564 14.1169L92.8405 15.201L89.2785 19.0728L77.5084 35.0243L65.2737 41.2191L53.3487 43.8519L45.6053 44.936L25.9368 47.259L14.6313 46.4847L24.543 44.936L45.6053 37.3474L55.362 32.7013Z" fill="#E59E16"/>
<mask id="mask0" mask-type="alpha" maskUnits="userSpaceOnUse" x="0" y="0" width="93" height="72">
<path d="M44.8311 32.2366L91.2919 13.0327C92.9026 13.2805 92.6857 14.9944 92.376 15.8204L77.3536 35.334L73.7916 37.5022C72.6559 38.1733 69.8889 39.7013 67.9066 40.4447C65.9243 41.1881 59.1306 42.9226 55.9816 43.6969C57.3445 43.9447 58.0982 44.8327 58.3047 45.2456L57.9949 70.7991L45.7602 71.2637L0.848145 70.954V70.1796C1.93216 61.8167 3.94554 57.3255 6.42345 51.2856V50.8209L5.33936 50.5112L4.1004 47.4138L4.25527 45.4005L11.2244 44.4713L11.3793 44.1616L11.0695 43.0775L11.689 41.9934C11.9987 41.7869 12.4633 41.312 11.8439 41.0642C11.2244 40.8164 11.4825 39.4122 11.689 38.7411L12.4633 37.5022L14.6315 35.1791L17.2643 30.8428C17.574 30.2749 18.5652 29.1702 20.0519 29.2941C21.5387 29.418 21.7039 31.3074 21.6006 32.2366L20.5166 35.7986L22.5299 38.4314H23.4591L25.0078 38.1216C25.2659 37.9152 25.875 37.3163 26.2467 36.5729C26.6184 35.8296 27.0211 35.6437 27.1759 35.6437C27.9503 35.2307 29.499 34.3738 29.499 34.2499C29.499 34.126 30.5315 33.3723 31.0477 33.011L31.2026 25.5772L29.1892 24.3383V23.2541L30.4282 18.6081C29.499 18.2467 27.5167 17.2143 27.0211 15.9753C26.5255 14.7363 27.0211 13.4974 27.3308 13.0328C28.5182 11.639 30.9238 8.7274 31.0477 8.23182C31.1716 7.73624 32.235 6.78635 32.7513 6.37335H35.2292V5.44417C34.9711 5.08281 34.4238 4.08132 34.2999 2.96626C34.176 1.8512 35.0743 1.05618 35.5389 0.798051C36.0551 0.591558 37.3354 0.302468 38.3265 0.798051C39.3177 1.29363 39.5655 2.34675 39.5655 2.81136V5.90875L38.946 6.37335V7.45744C40.3089 7.82913 41.7853 9.47075 42.3531 10.2451C42.7661 11.7938 43.654 15.0151 43.9018 15.5107C44.1496 16.0062 44.3148 18.4016 44.3664 19.5373L44.8311 19.6921V21.3957C46.1939 22.1391 46.4314 22.9444 46.3798 23.2541L44.8311 32.2366Z" fill="white"/>
</mask>
<g mask="url(#mask0)">
<path d="M-0.545898 71.9192L5.80375 50.857L6.88784 49.1534L45.915 64.6404L51.9549 44.5073L57.2204 44.0427L59.8532 46.8304C60.3178 49.3083 61.1541 54.357 60.7824 54.7287C60.3178 55.1933 62.0214 71.9192 61.8665 72.8485C61.7117 73.7777 57.3753 71.9192 56.7558 71.9192C56.1364 71.9192 21.1358 74.2423 18.3482 74.7069C16.1181 75.0786 4.82291 73.0033 -0.545898 71.9192Z" fill="#E59E16"/>
</g>
</svg>
