<svg width="80" height="73" viewBox="0 0 80 73" fill="none" xmlns="http://www.w3.org/2000/svg">
<path d="M46.4591 22.4738C46.4591 22.4738 44.1672 -6.29594 68.0042 3.31539C79.4575 7.93461 80.9554 18.2981 78.7535 23.3449C78.5701 23.7626 78.2927 24.1322 77.9428 24.4249C77.5929 24.7176 77.1801 24.9254 76.7366 25.0322C76.2931 25.1389 75.8309 25.1417 75.3862 25.0403C74.9415 24.9388 74.5262 24.7359 74.1728 24.4475L69.274 20.4599C65.6625 17.5186 60.5627 21.4644 62.4946 25.6995C62.5235 25.7638 62.5525 25.8265 62.583 25.8892C70.8619 43.3856 70.0342 62.6919 58.9522 69.5275C47.8703 76.3631 39.6155 70.5079 39.6155 70.5079C39.6708 70.7602 39.6688 71.0217 39.6097 71.2731C39.5506 71.5246 39.4359 71.7596 39.274 71.9608C39.1121 72.1621 38.9071 72.3244 38.6741 72.436C38.4412 72.5475 38.1861 72.6054 37.9278 72.6054H14.3463C14.3463 72.6054 15.5678 68.404 24.4495 69.5275C25.5231 69.6641 26.481 69.7477 27.3361 69.7895C27.3361 69.7895 10.0679 54.8003 23.6571 45.2468C21.325 43.7649 21.1964 42.1352 20.2562 41.4778C17.2024 40.9201 14.4894 39.7484 11.4324 40.5472C9.78337 40.978 9.10672 42.4133 8.83027 43.4274C8.7507 43.7185 8.56863 43.9711 8.31758 44.1385C8.06654 44.306 7.76344 44.3771 7.46411 44.3387L6.49012 44.2166C6.18485 44.1787 5.89209 44.0723 5.63372 43.9053C5.37536 43.7384 5.15807 43.5152 4.9981 43.2524C4.83813 42.9897 4.73962 42.6942 4.70993 42.388C4.68023 42.0818 4.72012 41.7729 4.82662 41.4843C4.83305 41.465 4.84109 41.4441 4.84912 41.4232C5.19056 40.5574 5.71242 39.7742 6.38001 39.1257C7.04761 38.4773 7.84562 37.9784 8.72098 37.6622C11.7185 36.5581 17.0112 34.3642 17.5673 33.1266C17.7631 32.6883 17.9274 32.2366 18.0591 31.7749C16.3763 30.1934 14.5971 27.0416 14.3656 26.0917C13.8272 23.8865 12.6571 22.4947 10.3877 22.4255C6.16063 22.2986 2.28717 21.0626 1.1621 20.005C0.548133 19.4264 0.982089 17.6215 1.43533 16.9095C2.1772 15.7538 2.7788 14.514 3.22741 13.216C4.12104 10.5367 6.15581 4.87763 15.7977 4.58029C15.7977 4.58029 17.0369 1.38991 18.3484 0.761474C20.5728 -0.30413 22.4372 2.74642 22.2202 6.2679C22.2202 6.2679 26.8636 8.41357 29.7004 13.8895C31.5326 17.4238 34.8034 20.0211 38.709 20.807C39.5605 20.9764 40.4232 21.0843 41.2902 21.1301C43.0836 21.2409 44.8387 21.6972 46.4591 22.4738Z" fill="#F9B22A"/>
<path d="M9.80876 41.4842C9.81519 41.4649 9.82323 41.444 9.83126 41.4231C10.1727 40.5573 10.6946 39.7741 11.3622 39.1257C12.0297 38.4772 12.8278 37.9783 13.7031 37.6622C16.7006 36.558 21.9933 34.3641 22.5494 33.1265C22.7452 32.6882 22.9095 32.2365 23.0412 31.7748C21.3584 30.1933 19.5792 27.0415 19.3478 26.0916C18.8093 23.8865 17.6393 22.4946 15.3698 22.4255C11.1428 22.2985 7.26931 21.0625 6.14424 20.005C5.53027 19.4263 5.96423 17.6214 6.41747 16.9094C7.15934 15.7538 7.76094 14.5139 8.20955 13.216C9.10318 10.5367 11.138 4.87756 20.7798 4.58022C21.0392 3.93507 21.3392 3.30699 21.6779 2.69974C20.9894 1.03849 19.7393 0.0960009 18.3484 0.761722C17.0369 1.39016 15.7977 4.58054 15.7977 4.58054C6.15581 4.87756 4.12104 10.5367 3.22741 13.216C2.7788 14.5139 2.1772 15.7538 1.43533 16.9094C0.982089 17.6214 0.548133 19.4263 1.1621 20.005C2.28717 21.0625 6.16063 22.2985 10.3877 22.4255C12.6571 22.4946 13.8272 23.8865 14.3656 26.0916C14.5971 27.0415 16.3763 30.1933 18.0591 31.7748C17.9274 32.2365 17.7631 32.6882 17.5673 33.1265C17.0111 34.3641 11.7185 36.558 8.72098 37.6622C7.84562 37.9783 7.04761 38.4772 6.38001 39.1257C5.71242 39.7741 5.19055 40.5573 4.84912 41.4231C4.84109 41.444 4.83305 41.4649 4.82662 41.4842C4.72012 41.7728 4.68023 42.0817 4.70993 42.3879C4.73962 42.6941 4.83813 42.9896 4.9981 43.2523C5.15807 43.5151 5.37536 43.7383 5.63372 43.9052C5.89209 44.0722 6.18485 44.1786 6.49012 44.2165L7.46411 44.3387C7.76344 44.377 8.06654 44.3059 8.31758 44.1384C8.56863 43.971 8.7507 43.7184 8.83027 43.4274C9.00436 42.7427 9.33039 42.106 9.78417 41.5646C9.79301 41.5372 9.79896 41.5107 9.80876 41.4842Z" fill="#E59E16"/>
<path d="M28.6392 45.2468C26.3071 43.7649 26.1785 42.1352 25.2383 41.4778C22.1845 40.9201 19.4715 39.7484 16.4145 40.5472C16.3684 40.5593 16.3258 40.5749 16.2812 40.5884C17.5788 40.8526 18.8831 41.2271 20.2561 41.4778C21.1964 42.1352 21.3249 43.7649 23.6571 45.2468C11.461 53.8208 24.1195 66.773 26.8433 69.3394C27.7087 69.3537 28.5726 69.4167 29.4309 69.5283C30.5046 69.6649 31.4625 69.7485 32.3175 69.7902C32.3182 69.7894 15.0503 54.8003 28.6392 45.2468Z" fill="#E59E16"/>
<path d="M24.2758 69.5069C15.5531 68.4601 14.3462 72.6053 14.3462 72.6053H19.3287C19.3287 72.6053 20.0354 70.1776 24.2758 69.5069Z" fill="#EFA820"/>
</svg>
