<svg width="94" height="47" viewBox="0 0 94 47" fill="none" xmlns="http://www.w3.org/2000/svg">
<path d="M93.3853 19.828C93.3853 18.6016 92.1775 17.3873 89.831 16.2543C87.4845 15.1213 84.0451 14.0918 79.7093 13.2246C75.3735 12.3575 70.2261 11.6696 64.5611 11.2003C58.8961 10.731 52.8244 10.4895 46.6926 10.4895C40.5609 10.4895 34.4891 10.731 28.8241 11.2003C23.1591 11.6696 18.0118 12.3575 13.676 13.2246C9.34014 14.0918 5.90079 15.1213 3.55426 16.2543C1.20774 17.3873 -5.36056e-07 18.6016 0 19.828L46.6926 19.828H93.3853Z" fill="#E59E16"/>
<circle cx="46.6928" cy="23.9218" r="22.9218" fill="#F9B22A"/>
<path d="M67.2968 24.0729C67.2968 35.7295 58.034 45.1458 46.6484 45.1458C35.2628 45.1458 26 35.7295 26 24.0729C26 12.4163 35.2628 3 46.6484 3C58.034 3 67.2968 12.4163 67.2968 24.0729Z" fill="#F9B22A" stroke="#F9B22A" stroke-width="2"/>
<path d="M46.112 7.43538V1.84888C43.6033 1.84888 28.8647 6.5974 28.8647 22.2396C28.8648 40.7989 40.6765 45.2374 46.112 45.1442V40.675M46.112 7.43538C63.0457 7.43538 62.4186 40.675 46.112 40.675M46.112 7.43538C42.0354 7.34227 33.8821 10.4521 33.8821 23.6362C33.8821 36.8204 42.0354 40.4888 46.112 40.675" stroke="#E59E16" stroke-width="2"/>
<path d="M46.9174 7.43538V1.84888C49.3544 1.84888 63.6719 6.5974 63.6719 22.2396C63.6719 40.7989 52.1976 45.2374 46.9174 45.1442V40.675M46.9174 7.43538C30.4675 7.43538 31.0767 40.675 46.9174 40.675M46.9174 7.43538C50.8775 7.34227 58.7978 10.4521 58.7978 23.6362C58.7978 36.8204 50.8775 40.4888 46.9174 40.675" stroke="#E59E16" stroke-width="2"/>
<path d="M93 19.5C93 21.4042 91.7972 23.2897 89.4604 25.0489C87.1236 26.8081 83.6984 28.4066 79.3805 29.753C75.0625 31.0995 69.9364 32.1676 64.2948 32.8963C58.6531 33.6249 52.6065 34 46.5 34C40.3935 34 34.3469 33.6249 28.7052 32.8963C23.0636 32.1676 17.9375 31.0995 13.6195 29.753C9.30161 28.4066 5.87644 26.8081 3.5396 25.0489C1.20276 23.2897 -5.33844e-07 21.4042 0 19.5L34.775 19.5C34.775 19.9801 35.0782 20.4556 35.6675 20.8992C36.2567 21.3428 37.1204 21.7458 38.2091 22.0853C39.2979 22.4248 40.5905 22.6941 42.013 22.8779C43.4356 23.0616 44.9602 23.1562 46.5 23.1562C48.0398 23.1562 49.5644 23.0616 50.987 22.8779C52.4095 22.6941 53.7021 22.4248 54.7909 22.0853C55.8796 21.7458 56.7433 21.3428 57.3325 20.8992C57.9218 20.4556 58.225 19.9801 58.225 19.5H93Z" fill="#E59E16"/>
<path d="M8.85561 18.3562L10.9336 19.1582C11.2799 19.2918 11.5341 19.5044 11.6963 19.796C11.86 20.0882 11.9253 20.3969 11.8922 20.7222C11.8644 20.995 11.7744 21.2034 11.6222 21.3475C11.5207 21.4435 11.3811 21.4965 11.2036 21.5065C11.4535 21.6858 11.629 21.8964 11.73 22.1382C11.8329 22.3786 11.8693 22.6456 11.8394 22.9394C11.815 23.1786 11.7498 23.3769 11.6437 23.5345C11.5377 23.692 11.4038 23.7974 11.2422 23.8506C11.142 23.8839 10.9964 23.88 10.8053 23.839C10.5511 23.7845 10.3832 23.7415 10.3015 23.71L8.38525 22.9704L8.85561 18.3562ZM9.79097 20.5982L10.2737 20.7845C10.4469 20.8513 10.5708 20.8599 10.6455 20.8102C10.722 20.7591 10.7676 20.6611 10.7824 20.5163C10.7961 20.382 10.7725 20.2639 10.7116 20.1618C10.6523 20.0604 10.5385 19.9773 10.3702 19.9123L9.88016 19.7232L9.79097 20.5982ZM9.60616 22.4112L10.1722 22.6296C10.3633 22.7034 10.5025 22.7124 10.5897 22.6566C10.6771 22.5988 10.7283 22.4964 10.7432 22.3495C10.7571 22.2131 10.7291 22.0889 10.659 21.9768C10.5908 21.8632 10.4594 21.7689 10.265 21.6939L9.70145 21.4764L9.60616 22.4112Z" fill="#F9B22A"/>
<path d="M12.7263 22.1898C12.7945 21.4352 13.0125 20.9041 13.3803 20.5965C13.7482 20.289 14.2265 20.2359 14.8154 20.4372C15.4191 20.6436 15.8655 21.0097 16.1547 21.5354C16.4441 22.0591 16.5552 22.6929 16.488 23.437C16.4392 23.9772 16.3274 24.3961 16.1526 24.6939C15.9796 24.9901 15.7491 25.1886 15.4612 25.2895C15.175 25.3888 14.8307 25.3697 14.4283 25.2321C14.0192 25.0922 13.6877 24.8933 13.4339 24.6353C13.1817 24.3779 12.9885 24.041 12.8544 23.6246C12.7202 23.2082 12.6775 22.7299 12.7263 22.1898ZM13.8466 22.5793C13.8044 23.0459 13.8418 23.4043 13.9586 23.6544C14.0771 23.9051 14.2535 24.0705 14.4877 24.1506C14.7285 24.2329 14.9239 24.1968 15.0739 24.0423C15.2239 23.8877 15.3222 23.5519 15.3689 23.0348C15.4082 22.5998 15.3676 22.2587 15.2471 22.0116C15.1284 21.763 14.9511 21.5984 14.7153 21.5178C14.4893 21.4405 14.2986 21.4804 14.1433 21.6375C13.988 21.7945 13.8891 22.1085 13.8466 22.5793Z" fill="#F9B22A"/>
<path d="M16.9833 21.2053L18.8618 21.7688C19.2709 21.8916 19.5672 22.1065 19.7506 22.4137C19.9356 22.7213 20.0102 23.1024 19.9741 23.5571C19.9371 24.0244 19.7967 24.3561 19.553 24.5524C19.311 24.7491 18.9621 24.7791 18.5064 24.6424L17.8877 24.4568L17.7517 26.1744L16.6166 25.8339L16.9833 21.2053ZM17.962 23.5191L18.239 23.6022C18.4568 23.6676 18.6136 23.6661 18.7092 23.5978C18.8051 23.5274 18.8589 23.4175 18.8707 23.2681C18.8822 23.1228 18.8537 22.9882 18.7852 22.8643C18.7167 22.7403 18.5769 22.6466 18.3657 22.5832L18.0439 22.4867L17.962 23.5191Z" fill="#F9B22A"/>
<path d="M23.9462 27.8298L22.6646 27.4988L22.3041 26.1865C22.2178 25.8768 22.1478 25.6796 22.0939 25.5949C22.0401 25.5081 21.9613 25.4513 21.8575 25.4245L21.7324 27.2579L20.5966 26.9645L20.9128 22.3303L22.0486 22.6237L21.9271 24.4034C22.0264 24.4226 22.1065 24.3983 22.1674 24.3304C22.2283 24.2625 22.3306 24.0487 22.4745 23.6891C22.5796 23.4225 22.68 23.2383 22.7756 23.1364C22.8713 23.0325 23.0191 22.9784 23.2188 22.9743C23.4186 22.9701 23.7278 23.0221 24.1466 23.1303L24.0798 24.1103L24.022 24.0953C23.8276 24.0451 23.6804 24.0543 23.5803 24.1228C23.4801 24.1913 23.3928 24.322 23.3183 24.5151C23.2439 24.706 23.168 24.8441 23.0905 24.9292C23.015 25.0126 22.9148 25.0693 22.79 25.0992C22.9496 25.2091 23.0848 25.363 23.1957 25.5611C23.3068 25.7571 23.4191 26.0477 23.5326 26.433L23.9462 27.8298Z" fill="#F9B22A"/>
<path d="M24.4995 23.2181L25.7435 23.488L26.1473 25.5106L26.7625 23.709L27.9281 23.9618L26.5067 27.2802C26.3907 27.5476 26.2915 27.745 26.2091 27.8724C26.1269 27.9977 26.0097 28.0908 25.8578 28.1518C25.7076 28.2111 25.5053 28.2131 25.2507 28.1579C25.1159 28.1287 24.8855 28.0541 24.5596 27.9343L24.6145 26.9755C24.8069 27.0428 24.9478 27.0862 25.0371 27.1056C25.3018 27.163 25.4698 27.0745 25.5413 26.8401L24.4995 23.2181Z" fill="#F9B22A"/>
<path d="M28.5332 24.0499L32.0323 24.6706L31.9786 25.8171L30.8046 25.6089L30.6408 29.1053L29.4896 28.9011L29.6534 25.4047L28.4795 25.1964L28.5332 24.0499Z" fill="#F9B22A"/>
<path d="M34.5756 28.889L33.2591 28.7073L33.05 29.4493L31.8688 29.2863L33.4439 24.8343L34.7042 25.0082L35.9407 29.8482L34.7313 29.6813L34.5756 28.889ZM34.3699 27.851L34.0174 26.1238L33.5458 27.7372L34.3699 27.851Z" fill="#F9B22A"/>
<path d="M42.1791 26.6894L41.1382 26.779C41.114 26.5975 41.07 26.4676 41.0064 26.3893C40.9445 26.3111 40.8665 26.2688 40.7725 26.2626C40.6033 26.2514 40.4699 26.3484 40.3722 26.5536C40.3012 26.7013 40.245 27.0236 40.2038 27.5204C40.3313 27.3722 40.4615 27.2655 40.5944 27.2002C40.7273 27.1328 40.8801 27.1049 41.0527 27.1163C41.3876 27.1385 41.6679 27.3053 41.8934 27.6166C42.1206 27.9281 42.2303 28.3111 42.2223 28.7657C42.2169 29.0723 42.1531 29.3485 42.0307 29.5945C41.91 29.8405 41.7443 30.0221 41.5335 30.1394C41.3245 30.2546 41.0636 30.3019 40.7508 30.2811C40.3749 30.2562 40.0746 30.1569 39.8501 29.9832C39.6256 29.8095 39.448 29.5448 39.3174 29.189C39.1885 28.8311 39.1291 28.3657 39.1391 27.7927C39.1538 26.9533 39.3073 26.3485 39.5995 25.9784C39.8918 25.6061 40.2908 25.4368 40.7967 25.4704C41.0957 25.4902 41.3308 25.5492 41.5019 25.6474C41.6747 25.7435 41.817 25.8778 41.9286 26.0504C42.0402 26.2229 42.1237 26.4359 42.1791 26.6894ZM40.2202 28.6329C40.2158 28.8845 40.2636 29.0856 40.3637 29.2362C40.4637 29.3846 40.5881 29.4638 40.7368 29.4737C40.8735 29.4827 40.9891 29.4258 41.0837 29.303C41.1782 29.1801 41.2277 28.9908 41.2322 28.7349C41.2368 28.4727 41.1924 28.2698 41.0992 28.126C41.0059 27.9822 40.8883 27.9056 40.7464 27.8962C40.6012 27.8865 40.4778 27.945 40.3764 28.0717C40.2766 28.1984 40.2246 28.3855 40.2202 28.6329Z" fill="#F9B22A"/>
<path d="M43.1567 25.6629L46.2084 25.7408L46.2025 26.6131C45.9353 26.9024 45.7116 27.2172 45.5313 27.5574C45.3129 27.9706 45.1395 28.4326 45.0111 28.9433C44.9092 29.3405 44.8393 29.8114 44.8014 30.3562L43.7593 30.3296C43.8466 29.5725 43.9801 28.9392 44.1598 28.4298C44.3395 27.9204 44.6221 27.3776 45.0076 26.8016L43.1494 26.7542L43.1567 25.6629Z" fill="#F9B22A"/>
<path d="M53.9048 30.1369L52.7453 30.1902L52.7027 26.6819L51.4252 26.7406L51.4677 30.2488L50.3082 30.3021L50.2518 25.6519L53.8484 25.4867L53.9048 30.1369Z" fill="#F9B22A"/>
<path d="M56.6081 29.1032L55.2867 29.2179L55.1225 30.0011L53.9368 30.104L55.2413 25.3327L56.5063 25.2229L58.0239 29.7492L56.8101 29.8546L56.6081 29.1032ZM56.3418 28.1191L55.8886 26.4839L55.5147 28.1909L56.3418 28.1191Z" fill="#F9B22A"/>
<path d="M58.1636 25.0321L60.0864 24.7864C60.5052 24.7329 60.8226 24.8165 61.0387 25.0372C61.2564 25.2577 61.373 25.5962 61.3884 26.0526C61.4042 26.5217 61.3025 26.9029 61.0833 27.1962C60.8658 27.4892 60.5238 27.6655 60.0574 27.7251L59.4241 27.806L59.4823 29.5303L58.3204 29.6787L58.1636 25.0321ZM59.3923 26.8647L59.6758 26.8284C59.8988 26.8 60.0538 26.7324 60.1408 26.6258C60.2278 26.5171 60.2687 26.3877 60.2636 26.2377C60.2587 26.0919 60.2154 25.9732 60.1337 25.8818C60.0519 25.7904 59.903 25.7585 59.6868 25.7861L59.3574 25.8282L59.3923 26.8647Z" fill="#F9B22A"/>
<path d="M64.5899 27.9695L63.2774 28.1911L63.131 28.9881L61.9534 29.1869L63.1478 24.3067L64.4043 24.0946L66.0128 28.5016L64.8072 28.7052L64.5899 27.9695ZM64.3035 27.0062L63.817 25.4064L63.4819 27.1449L64.3035 27.0062Z" fill="#F9B22A"/>
<path d="M69.7358 27.6874L68.5896 27.9301L68.3939 24.4298L67.4981 24.6195L67.578 26.0468C67.6108 26.6334 67.6096 27.0702 67.5745 27.3573C67.5409 27.6419 67.4358 27.8681 67.2591 28.0357C67.0841 28.203 66.7925 28.3299 66.3843 28.4163C66.2595 28.4427 66.1151 28.4562 65.9513 28.4567L65.8987 27.5168L66.0708 27.4803C66.226 27.4475 66.3333 27.3821 66.3927 27.2841C66.4519 27.184 66.4752 27.0201 66.4624 26.7922L66.2907 23.7223L69.4764 23.0478L69.7358 27.6874Z" fill="#F9B22A"/>
<path d="M74.0341 26.5829L72.8954 26.8751L72.6585 23.3787L71.7687 23.607L71.8653 25.0328C71.905 25.6187 71.9091 26.0561 71.8775 26.3451C71.8475 26.6315 71.7455 26.8625 71.5716 27.0379C71.3993 27.2129 71.1104 27.3524 70.7049 27.4565C70.5809 27.4883 70.4373 27.508 70.2742 27.5155L70.2106 26.5766L70.3815 26.5328C70.5356 26.4932 70.6417 26.4231 70.6997 26.3225C70.7575 26.2197 70.7787 26.0546 70.7633 25.8269L70.5554 22.7605L73.72 21.9484L74.0341 26.5829Z" fill="#F9B22A"/>
<path d="M74.5871 21.676L77.6157 20.7674L77.694 21.7556L75.798 22.3244L75.8563 23.0601L77.6151 22.5324L77.6899 23.4765L75.9311 24.0041L76.0034 24.9165L77.9543 24.3313L78.0373 25.3795L74.9539 26.3045L74.5871 21.676Z" fill="#F9B22A"/>
<path d="M82.2528 23.9362L81.1324 24.3213L80.8159 20.8345L79.9404 21.1354L80.0694 22.5573C80.1225 23.1415 80.1367 23.5798 80.1123 23.8722C80.0893 24.1618 79.9937 24.4016 79.8256 24.5916C79.6592 24.781 79.3764 24.9443 78.9774 25.0814C78.8554 25.1234 78.7137 25.1547 78.5524 25.1755L78.4674 24.2392L78.6356 24.1814C78.7873 24.1292 78.8906 24.0504 78.9457 23.9448C79.0005 23.8371 79.0176 23.6697 78.997 23.4427L78.7194 20.3847L81.8333 19.3145L82.2528 23.9362Z" fill="#F9B22A"/>
<path d="M84.0216 20.3055L84.6143 20.0757C85.1581 19.8649 85.5741 19.8323 85.8624 19.978C86.1504 20.1215 86.3211 20.4535 86.3744 20.9738C86.418 21.3998 86.3306 21.7729 86.1121 22.0932C85.895 22.4108 85.5612 22.6569 85.1105 22.8316L83.2048 23.5705L82.7323 18.9566L83.8395 18.5273L84.0216 20.3055ZM84.2104 22.1498L84.7787 21.9295C85.1265 21.7947 85.2839 21.5657 85.2508 21.2426C85.2218 20.9593 85.0334 20.8851 84.6856 21.02L84.1173 21.2403L84.2104 22.1498Z" fill="#F9B22A"/>
</svg>
