<svg width="49" height="94" viewBox="0 0 49 94" fill="none" xmlns="http://www.w3.org/2000/svg">
<path d="M32.1676 42.6657V43.0164V88.2608H25.6802L25.3198 41.9642H23.8782L23.5178 88.2608H16.7108V41.4795L14.868 41.2628V31.4423L11.6244 30.7408V25.8306H10.1827V23.0247H9.46191V0.577881L13.4264 1.27934V3.73447L15.2284 4.43593V8.99544L17.428 9.69691V11.8013L19.5533 12.152V8.29398L20.9949 7.24178H22.4366V8.99544V13.555H22.797V15.3086H23.5178V30.0393H24.9594V19.1667H26.7615V13.555H30.7259V10.0476H32.528V4.78666H34.6904V1.98081H39.3757L39.7361 24.0769H39.0153V26.8828H37.9341V32.1437H34.33V42.6657H32.1676Z" fill="#F9B22A"/>
<path d="M39.0152 26.8827V26.532H33.6091L33.2486 4.78662H32.5278L32.8882 26.8827H39.0152Z" fill="#E59E16"/>
<path d="M13.0657 8.29395L12.3448 8.64468V25.4798L11.624 25.8305V30.7408L14.5073 31.4422L15.5885 31.0915L13.0657 30.39V8.29395Z" fill="#E59E16"/>
<path d="M35.0507 24.0769L34.3299 4.78662H32.5278L32.8882 26.8827H38.6547V24.0769H35.0507Z" fill="#E59E16"/>
<path d="M17.0307 11.8013L14.8682 12.8535L15.2286 31.0915L14.5078 31.4422V41.2627L17.0307 40.912V11.8013Z" fill="#E59E16"/>
<path d="M16.6702 40.9119L14.8682 41.2626L16.3098 41.6133V88.2607H18.1118L17.7514 41.6133H18.8326L16.6702 40.9119Z" fill="#E59E16"/>
<path d="M26.4012 19.1667H24.5991V30.0394H26.4012V19.1667Z" fill="#E59E16"/>
<path d="M27.8423 30.7408C27.2657 30.1796 24.2382 30.0393 22.7966 30.0393L22.0758 30.7408L20.6342 31.0915L19.553 32.1437C19.2646 32.4243 19.4328 33.1959 19.553 33.5466C19.4328 33.5466 19.1925 33.6168 19.1925 33.8974C18.9042 35.5809 19.7932 36.937 20.2738 37.4047L20.6342 37.7554C20.7543 37.8723 20.9946 38.1763 20.9946 38.4569C20.9946 38.7374 22.1959 39.5091 22.7966 39.8598L23.8778 40.5613C23.998 40.6782 24.3824 40.912 24.959 40.912C25.5357 40.912 25.4396 40.6782 25.3195 40.5613H26.0403L27.1215 40.912V40.5613H28.2027C28.3228 40.0936 28.7073 39.0882 29.2839 38.8076C30.0047 38.4569 30.0047 37.7554 30.3652 37.0539C31.086 36.7032 30.7256 35.651 30.7256 34.5988C30.7256 33.5466 30.0047 33.8974 30.0047 33.5466C30.0047 33.1959 30.0047 32.4944 29.6443 31.793C29.2839 31.0915 28.5631 31.4422 27.8423 30.7408Z" fill="#E59E16"/>
<path d="M48.9547 93.1703C48.9547 93.1703 44.849 90.7956 41.873 89.7424C35.7485 87.5749 31.1889 87.1106 24.7764 87.1106C18.3639 87.1106 13.8044 87.5749 7.6798 89.7424C4.70387 90.7956 0.598145 93.1703 0.598145 93.1703C0.598145 93.1703 15.3267 93.8975 24.7764 93.8975C34.2262 93.8975 48.9547 93.1703 48.9547 93.1703Z" fill="#E59E16"/>
</svg>
