<svg width="864" height="449" viewBox="0 0 864 449" fill="none" xmlns="http://www.w3.org/2000/svg">
<path d="M0 170.489L20.9359 195.486L69.4116 154.984V198.42L0.362809 252.796L20.5731 278.409L69.4116 239.936V373.866H102.067V85.2119L0 170.489Z" fill="white"/>
<path d="M488.53 307.716C487.477 306.738 466.287 287.429 438.603 282.177C442.184 272.197 443.709 261.597 443.086 251.014C442.462 240.431 439.703 230.083 434.974 220.591C439.558 211.358 442.268 201.31 442.947 191.026C443.625 180.743 442.26 170.427 438.929 160.673C433.923 145.797 424.577 132.755 412.093 123.221C399.608 113.687 384.555 108.096 368.864 107.166C361.623 96.379 351.823 87.5464 340.336 81.4538C328.85 75.3613 316.034 72.1976 303.027 72.2442C290.021 72.2908 277.228 75.5463 265.785 81.721C254.343 87.8958 244.607 96.7983 237.443 107.637C224.466 108.504 211.905 112.56 200.877 119.445C189.849 126.329 180.696 135.828 174.232 147.096C167.769 158.364 164.195 171.053 163.828 184.033C163.462 197.013 166.314 209.883 172.132 221.497C166.432 233.137 163.696 246.001 164.165 258.949C164.635 271.897 168.295 284.53 174.821 295.729C181.348 306.928 190.54 316.346 201.583 323.151C212.627 329.956 225.18 333.937 238.132 334.741C248.871 350.809 265.202 362.325 283.959 367.056C278.045 384.15 276.291 402.404 278.843 420.309L279.351 423.316L282.399 423.026C284.141 423.026 325.541 418.389 347.493 389.697C353.958 380.987 358.508 371.013 360.846 360.426C376.022 384.729 394.968 406.47 416.977 424.837L438.058 399.949C417.814 383.064 400.535 362.923 386.934 340.357C397.487 345.281 408.959 347.934 420.606 348.145C422.13 348.145 423.617 348.145 425.177 348.145C461.244 345.646 487.768 313.621 488.892 312.245L490.816 309.89L488.53 307.716ZM262.153 311.339L257.291 301.449L246.405 302.282C237.735 302.958 229.049 301.18 221.345 297.153C213.64 293.125 207.229 287.01 202.846 279.511C198.464 272.011 196.287 263.43 196.566 254.751C196.845 246.073 199.569 237.649 204.424 230.445L210.557 221.28L204.424 212.151C199.548 204.99 196.786 196.604 196.453 187.951C196.121 179.298 198.232 170.725 202.545 163.212C206.857 155.699 213.199 149.548 220.845 145.461C228.492 141.373 237.135 139.514 245.788 140.096L256.674 140.82L261.463 130.894C265.232 123.091 271.123 116.504 278.463 111.884C285.802 107.264 294.296 104.798 302.972 104.768C311.649 104.738 320.159 107.144 327.531 111.713C334.903 116.281 340.84 122.828 344.663 130.604L349.525 140.494L360.41 139.661C370.636 138.917 380.819 141.588 389.358 147.254C397.897 152.92 404.307 161.26 407.58 170.961C409.864 177.667 410.561 184.811 409.617 191.832C408.673 198.852 406.112 205.559 402.137 211.426L396.005 220.591L402.246 229.684C407.133 236.846 409.904 245.235 410.242 253.894C410.58 262.553 408.471 271.133 404.157 278.652C399.842 286.171 393.496 292.327 385.844 296.416C378.192 300.505 369.541 302.362 360.882 301.775L349.997 301.051L345.207 310.977C341.438 318.78 335.548 325.367 328.208 329.987C320.868 334.607 312.375 337.073 303.698 337.103C295.021 337.133 286.511 334.727 279.139 330.158C271.767 325.59 265.831 319.043 262.007 311.267" fill="white"/>
<path d="M641.685 80.6475C612.714 80.6475 584.394 89.2248 560.305 105.295C536.217 121.364 517.442 144.205 506.356 170.928C495.269 197.651 492.368 227.057 498.02 255.426C503.672 283.795 517.623 309.854 538.108 330.307C558.594 350.76 584.694 364.688 613.108 370.331C641.522 375.974 670.974 373.078 697.74 362.009C724.506 350.94 747.382 332.195 763.478 308.145C779.573 284.095 788.164 255.819 788.164 226.894C788.116 188.122 772.668 150.951 745.208 123.535C717.749 96.1189 680.519 80.6954 641.685 80.6475ZM641.685 113.251C670.182 113.29 697.631 123.987 718.62 143.232C739.608 162.478 752.614 188.876 755.073 217.222C749.785 215.878 744.346 215.221 738.89 215.266C727.551 215.075 716.39 218.103 706.706 223.996C701.797 227.016 696.144 228.614 690.378 228.614C684.612 228.614 678.96 227.016 674.05 223.996C664.288 218.287 653.179 215.278 641.866 215.278C630.553 215.278 619.444 218.287 609.682 223.996C604.772 227.012 599.119 228.608 593.354 228.608C587.589 228.608 581.937 227.012 577.026 223.996C567.342 218.103 556.182 215.075 544.842 215.266C539.386 215.221 533.947 215.879 528.66 217.222C531.118 188.876 544.124 162.478 565.113 143.232C586.102 123.987 613.55 113.29 642.048 113.251H641.685ZM642.048 340.537C619.283 340.562 597.04 333.732 578.224 320.939C583.206 322.108 588.309 322.68 593.427 322.641C604.766 322.83 615.926 319.802 625.611 313.911C630.522 310.895 636.174 309.299 641.939 309.299C647.704 309.299 653.356 310.895 658.267 313.911C667.951 319.804 679.111 322.832 690.451 322.641C695.568 322.679 700.672 322.108 705.654 320.939C686.845 333.714 664.615 340.532 641.866 340.501L642.048 340.537ZM743.897 276.778C742.265 276.778 740.595 276.778 738.89 276.778C727.551 276.59 716.391 279.618 706.706 285.509C701.795 288.524 696.143 290.121 690.378 290.121C684.613 290.121 678.961 288.524 674.05 285.509C664.288 279.8 653.179 276.791 641.866 276.791C630.553 276.791 619.444 279.8 609.682 285.509C604.772 288.524 599.119 290.121 593.354 290.121C587.589 290.121 581.937 288.524 577.026 285.509C567.341 279.62 556.181 276.592 544.842 276.778C543.101 276.778 541.468 276.778 539.835 276.778C535.825 268.633 532.815 260.033 530.873 251.166C535.119 248.754 539.961 247.586 544.842 247.797C550.663 247.613 556.396 249.246 561.243 252.47C571.009 258.186 582.125 261.199 593.445 261.199C604.765 261.199 615.881 258.186 625.647 252.47C630.556 249.451 636.209 247.852 641.975 247.852C647.741 247.852 653.394 249.451 658.303 252.47C668.065 258.179 679.174 261.188 690.487 261.188C701.8 261.188 712.909 258.179 722.671 252.47C727.465 249.28 733.13 247.648 738.89 247.797C743.768 247.577 748.609 248.732 752.86 251.13C750.915 259.996 747.906 268.596 743.897 276.742" fill="white"/>
<path d="M690.851 0.00742459C685.222 0.283833 679.797 2.20274 675.249 5.52666C670.701 8.85057 667.23 13.4335 665.264 18.7077C663.299 23.9819 662.927 29.7157 664.193 35.1991C665.459 40.6826 668.309 45.6747 672.389 49.5574C676.469 53.44 681.599 56.0425 687.146 57.0426C692.692 58.0427 698.411 57.3965 703.593 55.184C708.776 52.9715 713.194 49.29 716.302 44.5952C719.409 39.9004 721.069 34.3987 721.076 28.7714C720.876 20.9594 717.583 13.5451 711.917 8.15333C706.251 2.76161 698.676 -0.167711 690.851 0.00742459Z" fill="white"/>
<path d="M592.665 0.00742459C587.036 0.283833 581.611 2.20274 577.063 5.52666C572.515 8.85057 569.044 13.4335 567.078 18.7077C565.113 23.9819 564.741 29.7157 566.007 35.1991C567.273 40.6826 570.123 45.6747 574.203 49.5574C578.282 53.44 583.413 56.0425 588.96 57.0426C594.506 58.0427 600.225 57.3965 605.407 55.184C610.59 52.9715 615.008 49.29 618.116 44.5952C621.223 39.9004 622.883 34.3987 622.89 28.7714C622.69 20.9594 619.396 13.5451 613.731 8.15333C608.065 2.76161 600.49 -0.167711 592.665 0.00742459Z" fill="white"/>
<path d="M532.94 388.683C531.957 390.098 530.652 391.259 529.132 392.072C527.611 392.884 525.92 393.324 524.195 393.356C520.159 393.089 516.327 391.482 513.31 388.792L509.682 386.002L500.284 398.029L496.656 395.24L520.531 364.628L528.477 370.823C536.145 376.788 537.657 382.742 533.012 388.683H532.94ZM512.004 382.923L515.197 385.422C517.459 387.407 520.265 388.669 523.252 389.045C524.435 389.027 525.596 388.721 526.633 388.152C527.67 387.584 528.552 386.771 529.203 385.785C529.935 384.971 530.456 383.992 530.722 382.931C530.988 381.87 530.989 380.76 530.727 379.699C529.748 377.122 527.984 374.917 525.683 373.395L521.692 370.28L512.004 382.923Z" fill="white"/>
<path d="M554.022 431.14L534.61 421.576L551.809 386.799L571.257 396.363L569.479 399.949L554.094 392.378L548.543 403.572L562.984 410.708L561.206 414.259L546.801 407.158L540.452 419.946L555.8 427.518L554.022 431.14Z" fill="white"/>
<path d="M599.924 408.789C598.103 408.228 596.179 408.083 594.295 408.365C592.411 408.647 590.614 409.349 589.039 410.419C585.674 412.96 583.363 416.648 582.544 420.78C581.232 424.804 581.425 429.167 583.088 433.06C583.978 434.746 585.235 436.21 586.767 437.345C588.3 438.48 590.068 439.256 591.941 439.617C595.008 440.329 598.157 440.622 601.303 440.487L600.323 444.327C596.951 444.583 593.56 444.239 590.309 443.313C587.892 442.85 585.607 441.864 583.614 440.424C581.62 438.985 579.967 437.127 578.77 434.98C576.568 430.109 576.27 424.591 577.936 419.512C578.757 415.97 580.398 412.67 582.725 409.875C584.821 407.404 587.616 405.623 590.744 404.767C594.106 403.854 597.651 403.854 601.012 404.767C604.605 405.602 607.957 407.251 610.809 409.586L607.979 412.846C605.65 410.871 602.911 409.436 599.96 408.644" fill="white"/>
<path d="M651.19 449L646.654 448.891L647.416 414.15L627.496 413.679L626.698 448.457L622.199 448.384L623.033 409.585L652.024 410.238L651.19 449Z" fill="white"/>
<path d="M678.226 446.501C676.514 446.896 674.747 446.994 673.001 446.791L672.094 442.48C673.791 442.858 675.55 442.858 677.247 442.48C678.895 442.228 680.413 441.438 681.564 440.234C682.791 438.557 683.622 436.625 683.996 434.582L663.313 409.224L668.212 408.209L683.923 427.482C684.499 428.195 685.01 428.959 685.447 429.764H685.665C685.758 428.767 685.903 427.776 686.1 426.794L690.998 403.536L695.679 402.558L689.184 432.554C688.673 435.273 687.845 437.924 686.717 440.451C685.96 442.04 684.842 443.429 683.451 444.508C681.886 445.593 680.103 446.322 678.226 446.646" fill="white"/>
<path d="M739.979 413.752C740.746 415.155 741.174 416.717 741.231 418.314C741.288 419.911 740.971 421.5 740.306 422.953C738.359 426.07 735.42 428.443 731.96 429.691L721.583 434.292L705.799 398.863L726.735 389.552L728.368 393.175L711.568 400.638L716.685 412.121L722.2 409.658C724.743 408.425 727.48 407.641 730.291 407.34C732.301 407.132 734.324 407.577 736.06 408.607C737.852 409.885 739.228 411.662 740.015 413.715L739.979 413.752ZM724.087 428.931L729.892 426.359C732.329 425.504 734.436 423.907 735.915 421.794C736.375 420.831 736.595 419.772 736.557 418.706C736.519 417.64 736.224 416.599 735.698 415.672C735.374 414.701 734.807 413.829 734.052 413.138C733.296 412.447 732.376 411.96 731.38 411.723C728.563 411.579 725.762 412.219 723.288 413.571L718.281 415.817L724.087 428.931Z" fill="white"/>
<path d="M785.843 396.326L782.214 399.043L761.315 371.221L751.228 378.756L754.384 384.335C758.617 391.774 761.581 397.304 763.274 400.927C764.717 403.539 765.513 406.458 765.596 409.44C765.52 410.442 765.216 411.413 764.706 412.28C764.197 413.146 763.496 413.885 762.657 414.44C761.7 415.184 760.601 415.726 759.428 416.034L757.142 412.991C758.166 412.799 759.134 412.378 759.972 411.759C760.344 411.476 760.651 411.116 760.87 410.703C761.09 410.29 761.216 409.835 761.242 409.368C761.25 407.883 760.941 406.413 760.335 405.057C758.883 401.68 757.26 398.38 755.473 395.167C753.054 390.337 749.849 384.553 745.857 377.815L762.584 365.316L785.843 396.326Z" fill="white"/>
<path d="M774.086 354.557L776.771 351.297L793.498 364.954C796.571 367.369 799.28 369.784 801.626 372.2L790.342 334.741L793.462 330.938L823.542 355.499L820.857 358.796L804.275 345.283C801.517 343.037 798.723 340.562 795.893 337.857V338.038L807.323 375.532L804.202 379.336L774.086 354.557Z" fill="white"/>
<path d="M848.76 309.202L846.365 314.128L820.785 321.627L838.455 330.249L836.496 334.307L801.554 317.28L803.55 313.223L820.458 321.482L811.242 297.5L813.528 292.863L822.926 316.556L848.76 309.202Z" fill="white"/>
<path d="M860.55 267.433L847.415 269.208L843.787 284.314L854.672 291.886L853.584 296.305L819.332 272.178L820.239 268.556L861.748 262.94L860.55 267.433ZM843.134 269.606L830.362 271.164C828.729 271.381 826.734 271.526 824.484 271.599C826.22 272.48 827.904 273.46 829.527 274.533L840.159 281.778L843.134 269.606Z" fill="white"/>
<path d="M861.496 190.233L861.968 195.667L843.971 215.302L863.601 213.563L864 218.055L825.284 221.533L824.885 217.004L843.644 215.338L823.325 199.616L822.854 194.435L843.173 209.868L861.496 190.233Z" fill="white"/>
<path d="M828.186 145.458C833.121 143.475 838.618 143.397 843.607 145.24C845.863 146.249 847.865 147.748 849.466 149.628C851.067 151.509 852.226 153.723 852.859 156.108C853.785 158.386 854.196 160.839 854.064 163.293C853.933 165.748 853.261 168.143 852.097 170.309C849.179 174.79 844.71 178.04 839.543 179.438C834.615 181.443 829.114 181.534 824.122 179.692C821.894 178.654 819.919 177.144 818.334 175.267C816.748 173.39 815.591 171.192 814.943 168.824C814.041 166.562 813.652 164.128 813.803 161.698C813.953 159.269 814.64 156.902 815.813 154.768C818.668 150.29 823.093 147.035 828.223 145.639L828.186 145.458ZM838.092 174.946C842.221 173.87 845.849 171.399 848.36 167.954C849.179 166.337 849.669 164.573 849.8 162.765C849.931 160.957 849.702 159.141 849.124 157.422C848.547 155.703 847.634 154.116 846.438 152.753C845.241 151.389 843.786 150.276 842.156 149.479C838.049 148.587 833.777 148.821 829.791 150.153C825.806 151.486 822.255 153.869 819.514 157.05C818.582 158.616 818.028 160.378 817.896 162.195C817.763 164.012 818.057 165.835 818.752 167.52C819.222 169.303 820.099 170.953 821.314 172.342C822.528 173.731 824.049 174.821 825.755 175.526C829.809 176.779 834.174 176.574 838.092 174.946" fill="white"/>
<path d="M826.592 103.869L805.547 134.119C807.652 132.38 810.264 130.46 813.384 128.359L833.812 114.484L836.171 118.106L804.059 139.842L800.25 134.227L819.807 106.079L786.316 113.759L782.688 108.18L814.8 86.4443L817.339 90.067L796.657 104.123C794.238 105.741 791.59 107.395 788.711 109.086L824.632 100.718L826.592 103.869Z" fill="white"/>
<path d="M771.947 97.2037L768.717 94.4867L782.687 78.0399C785.275 74.9969 787.694 72.3281 789.944 70.0337L752.317 80.5033L748.688 77.3153L773.833 47.7544L777.063 50.5077L763.021 66.6647C760.602 69.3696 758.062 72.1228 755.401 74.9244H755.582L793.318 64.0564L796.946 67.2443L771.947 97.2037Z" fill="white"/>
</svg>
