<svg width="189" height="50" viewBox="0 0 189 50" fill="none" xmlns="http://www.w3.org/2000/svg">
<path opacity="0.5" fill-rule="evenodd" clip-rule="evenodd" d="M2.1143 47.6192C3.14111 48.6403 4.53037 49.2135 5.97849 49.2135C7.42662 49.2135 8.81588 48.6403 9.84268 47.6192L28.5099 28.9415C29.5383 27.8573 30.1115 26.4199 30.1115 24.9256C30.1115 23.4313 29.5383 21.9939 28.5099 20.9098L9.84268 2.23203C8.81588 1.21088 7.42662 0.637695 5.97849 0.637695C4.53037 0.637695 3.14111 1.21088 2.1143 2.23203V2.23203C1.09061 3.25749 0.515625 4.64725 0.515625 6.09622C0.515625 7.54519 1.09061 8.93496 2.1143 9.96041L17.0795 24.9256L2.1143 39.8908C1.09061 40.9163 0.515625 42.306 0.515625 43.755C0.515625 45.204 1.09061 46.5937 2.1143 47.6192Z" fill="white"/>
<path opacity="0.5" fill-rule="evenodd" clip-rule="evenodd" d="M34.1882 47.6193C35.2163 48.6379 36.6051 49.2094 38.0524 49.2094C39.4997 49.2094 40.8884 48.6379 41.9166 47.6193L60.5943 28.9416C61.6156 27.8538 62.1841 26.4178 62.1841 24.9257C62.1841 23.4337 61.6156 21.9976 60.5943 20.9099L41.9166 2.23215C40.8884 1.21354 39.4997 0.64209 38.0524 0.64209C36.6051 0.64209 35.2163 1.21354 34.1882 2.23215C33.1696 3.26029 32.5981 4.64905 32.5981 6.09634C32.5981 7.54363 33.1696 8.93239 34.1882 9.96053L49.1743 24.9257L34.2091 39.8909C33.1905 40.9191 32.6191 42.3078 32.6191 43.7551C32.6191 45.2024 33.1905 46.5912 34.2091 47.6193" fill="white"/>
<path opacity="0.5" fill-rule="evenodd" clip-rule="evenodd" d="M65.2688 47.6193C66.2969 48.6379 67.6857 49.2094 69.133 49.2094C70.5803 49.2094 71.969 48.6379 72.9971 47.6193L91.6749 28.9416C92.6962 27.8538 93.2647 26.4178 93.2647 24.9257C93.2647 23.4337 92.6962 21.9976 91.6749 20.9099L72.9971 2.23215C71.969 1.21354 70.5803 0.64209 69.133 0.64209C67.6857 0.64209 66.2969 1.21354 65.2688 2.23215V2.23215C64.2502 3.26029 63.6787 4.64905 63.6787 6.09634C63.6787 7.54363 64.2502 8.93239 65.2688 9.96053L80.234 24.9257L65.2688 39.8909C64.2502 40.9191 63.6787 42.3078 63.6787 43.7551C63.6787 45.2024 64.2502 46.5912 65.2688 47.6193" fill="white"/>
<path opacity="0.5" fill-rule="evenodd" clip-rule="evenodd" d="M97.385 47.6192C98.4118 48.6403 99.801 49.2135 101.249 49.2135C102.697 49.2135 104.087 48.6403 105.113 47.6192L123.791 28.9415C124.812 27.8537 125.381 26.4177 125.381 24.9256C125.381 23.4335 124.812 21.9975 123.791 20.9098L105.113 2.23203C104.087 1.21088 102.697 0.637695 101.249 0.637695C99.801 0.637695 98.4118 1.21088 97.385 2.23203V2.23203C96.3664 3.26017 95.7949 4.64893 95.7949 6.09622C95.7949 7.54351 96.3664 8.93227 97.385 9.96041L112.361 24.9256L97.385 39.8908C96.3664 40.9189 95.7949 42.3077 95.7949 43.755C95.7949 45.2023 96.3664 46.591 97.385 47.6192" fill="white"/>
<path opacity="0.5" fill-rule="evenodd" clip-rule="evenodd" d="M128.445 47.6193C129.473 48.6379 130.862 49.2094 132.309 49.2094C133.757 49.2094 135.145 48.6379 136.173 47.6193L154.851 28.9416C155.872 27.8538 156.441 26.4178 156.441 24.9257C156.441 23.4337 155.872 21.9976 154.851 20.9099L136.173 2.23215C135.145 1.21354 133.757 0.64209 132.309 0.64209C130.862 0.64209 129.473 1.21354 128.445 2.23215C127.426 3.26029 126.855 4.64905 126.855 6.09634C126.855 7.54363 127.426 8.93239 128.445 9.96053L143.41 24.9257L128.445 39.8909C127.426 40.9191 126.855 42.3078 126.855 43.7551C126.855 45.2024 127.426 46.5912 128.445 47.6193Z" fill="white"/>
<path opacity="0.5" fill-rule="evenodd" clip-rule="evenodd" d="M160.572 47.6192C161.598 48.6403 162.988 49.2135 164.436 49.2135C165.884 49.2135 167.273 48.6403 168.3 47.6192L186.978 28.9415C187.999 27.8537 188.567 26.4177 188.567 24.9256C188.567 23.4335 187.999 21.9975 186.978 20.9098L168.3 2.23203C167.273 1.21088 165.884 0.637695 164.436 0.637695C162.988 0.637695 161.598 1.21088 160.572 2.23203C159.553 3.26017 158.981 4.64893 158.981 6.09622C158.981 7.54351 159.553 8.93227 160.572 9.96041L175.537 24.9256L160.572 39.8908C159.553 40.9189 158.981 42.3077 158.981 43.755C158.981 45.2023 159.553 46.591 160.572 47.6192Z" fill="white"/>
</svg>
