<svg width="100" height="100" viewBox="0 0 100 100" fill="none" xmlns="http://www.w3.org/2000/svg">
<path d="M44.9344 71.875L49.8016 55.0375C50.9703 50.6562 51.5625 46.1406 51.5625 41.6078V35.9375H70.3125V41.6078C70.3125 46.1422 70.9047 50.6562 72.0719 55.0375L79.65 81.25L84.375 95.3125H39.0625L44.9344 71.875Z" fill="#F9B22A"/>
<path d="M71.0375 92.1875C58.7672 92.1875 49.7656 80.6531 52.7484 68.75L57.6156 51.9125C58.7828 47.5312 59.375 43.0156 59.375 38.4828V35.9375H51.5625V41.6078C51.5625 46.1422 50.9703 50.6562 49.8031 55.0375L44.9344 71.875L39.0625 95.3125H84.375L83.325 92.1875H71.0375Z" fill="#E59E16"/>
<path d="M95.7766 10.7672L95.3125 9.375C95.3125 6.78594 93.2141 4.6875 90.625 4.6875C88.5078 4.6875 86.7391 6.10156 86.1578 8.02969C84.8125 6.93438 83.1203 6.25 81.25 6.25C76.9359 6.25 73.4375 9.74844 73.4375 14.0625C71.7688 14.0625 70.2859 14.9656 69.4984 16.4312C69.0938 17.1844 68.8891 18.0422 68.8766 18.8953C68.8641 19.6969 69.3344 20.7031 68.6328 21.325C67.9109 21.9641 66.6125 22.0938 65.7406 21.7594C64.6828 21.3531 64.5734 20.3062 63.7391 19.6812C61.8266 18.2484 58.8672 18.3672 57.1422 20.7516C56.5328 21.5953 56.25 22.6375 56.25 23.6781V32.8125H65.625V30.8078C65.625 29.2047 66.65 27.7828 68.1703 27.2766L68.5438 27.1516C70.8469 26.3844 73.4016 27.9828 73.4375 30.4094V30.4672V30.9125C73.4375 34.6922 75.9656 38.1828 79.675 38.9062C84.6797 39.8859 89.0625 36.0797 89.0625 31.25C89.0625 31.1484 89.0359 31.0547 89.0328 30.9531C90.3578 31.4344 91.9094 31.4484 93.6594 30.0828C94.7297 29.2469 95.3125 27.9219 95.3125 26.5625C97.3297 21.5187 97.4953 15.9219 95.7766 10.7672Z" fill="white"/>
<path d="M96.4641 13.3999C96.1547 15.1702 95.3531 16.8202 95.0094 18.6077C94.7172 20.1233 94.3469 21.6577 93.1297 22.6093C92.0203 23.4749 90.7453 23.5437 89.8031 22.903C88.9234 22.3046 87.9875 21.6874 86.7891 21.9546C85.6406 22.2108 84.7 23.1608 84.45 24.3108C84.3344 24.8405 84.3562 25.3515 84.4859 25.8155C85.0031 27.6843 84.7859 29.7452 83.3906 31.0921C81.9391 32.4937 79.8781 33.153 77.2375 32.6374C75.7859 32.353 74.5078 31.678 73.4375 30.764V30.9155C73.4375 34.6952 75.9656 38.1858 79.675 38.9093C84.6797 39.8858 89.0625 36.0796 89.0625 31.2499C89.0625 31.1483 89.0359 31.0546 89.0328 30.953C90.3578 31.4343 91.9094 31.4483 93.6594 30.0827C94.7297 29.2468 95.3125 27.9218 95.3125 26.5624C96.9906 22.3655 97.3672 17.789 96.4641 13.3999Z" fill="#F9B22A"/>
<path d="M67.1623 21.9095C66.6639 21.9642 66.1529 21.9189 65.7404 21.7595C64.6826 21.3532 64.5732 20.3064 63.7389 19.6814C61.8264 18.2485 58.867 18.3673 57.142 20.7517C56.5873 21.5204 56.3154 22.4532 56.2686 23.4001C57.9764 24.6907 60.1951 25.3392 62.6092 24.8189C64.4404 24.4251 66.0514 23.361 67.1623 21.9095Z" fill="#F9B22A"/>
<path d="M79.6875 89.0625H95.3125V95.3125H79.6875V89.0625Z" fill="#F9B22A"/>
<path d="M87.5 81.25L79.6875 89.0625H95.3125L87.5 81.25Z" fill="#F9B22A"/>
<path d="M57.8125 6.25C53.9813 6.25 50.8078 9.0125 50.1422 12.6531C48.8094 11.5953 47.1453 10.9375 45.3125 10.9375H45.2688C41.6813 10.9375 38.2891 9.3875 35.875 6.73438C34.7313 5.47656 33.0828 4.6875 31.25 4.6875C28.3375 4.6875 25.8906 6.67969 25.1969 9.375L25.1453 9.49688C25.0953 9.45781 25.05 9.4125 25 9.375L25.1063 9.5875L25.0406 9.74219L25 9.375C23.6938 8.39375 22.0719 7.8125 20.3125 7.8125C15.9984 7.8125 12.5 11.3109 12.5 15.625C12.5 19.9391 15.9984 23.4375 20.3125 23.4375V29.6875H34.375V26.2937C34.375 23.8531 36.3531 21.875 38.7938 21.875C39.9656 21.875 41.0906 22.3406 41.9188 23.1688L43.6797 24.9297C44.9031 26.1531 46.7563 26.6234 48.35 25.9469C50.7313 24.9359 52.5047 22.7734 52.9828 20.1594C54.7109 21.5312 56.9953 22.2297 59.4859 21.6938C62.4641 21.0531 64.875 18.6469 65.4672 15.6594C66.4594 10.6453 62.65 6.25 57.8125 6.25Z" fill="white"/>
<path d="M18.3702 10.9467C20.6437 10.8357 22.7655 11.9545 24.289 13.6451C24.7468 14.1529 25.1218 14.642 25.4249 15.1154C26.239 16.3873 28.2655 15.6467 27.9874 14.1623C27.9796 14.1232 27.9733 14.0857 27.9655 14.0467C27.3312 10.9185 24.7374 8.40915 21.5843 7.91228C17.3421 7.24196 13.6327 9.99509 12.728 13.8295C14.0843 12.1701 16.0874 11.0576 18.3702 10.9467Z" fill="#F9B22A"/>
<path d="M65.2563 11.7231C64.4375 14.3544 62.2063 16.42 59.4844 17.006C57.9656 17.3325 56.5219 17.1997 55.2359 16.7356C54.0594 16.3106 52.7344 16.7669 52.125 17.8606C51.2828 19.3747 49.9547 20.5794 48.3484 21.2606C46.7563 21.9356 44.9016 21.4669 43.6781 20.2435L43.3203 19.8856C42.6469 19.2122 42.2422 18.3435 42.0125 17.42C41.8688 16.845 41.6469 16.2872 41.3875 15.7653C40.3453 13.6685 37.5266 13.2138 35.9438 14.9388C35.3672 15.5653 34.8109 16.3153 34.375 17.1872C33.6688 18.5997 33.2906 19.9966 33.0797 21.1216C32.9844 21.3497 32.9156 21.5731 32.9031 21.7841C32.8125 23.4372 31.4641 24.9997 29.6875 24.9997H20.3125V29.6872H34.375V26.4716C34.375 24.7185 35.3094 23.0263 36.9031 22.2935C38.675 21.4794 40.6453 21.895 41.9203 23.1685L43.6813 24.9294C44.9047 26.1528 46.7578 26.6231 48.3516 25.9466C50.7328 24.9372 52.5063 22.7731 52.9844 20.1591C54.7125 21.531 56.9984 22.2294 59.4891 21.6935C62.4719 21.0497 64.8781 18.6481 65.4688 15.6544C65.7406 14.2685 65.6375 12.9341 65.2563 11.7231Z" fill="#F9B22A"/>
<path d="M46.875 89.0625H79.6875V95.3125H46.875V89.0625Z" fill="#F9B22A"/>
<path d="M79.6875 89.0625L87.5 81.25H46.875V89.0625" fill="#E59E16"/>
<path d="M45.1313 71.1953L40.8219 55.0375C39.6547 50.6562 39.0625 46.1406 39.0625 41.6078V32.8125H17.1875V40.625V41.6078C17.1875 46.1422 16.5953 50.6562 15.4281 55.0375L4.6875 95.3125H51.5625L45.1313 71.1953Z" fill="#F9B22A"/>
<path d="M17.4641 67.7125L21.6781 51.9125C22.8453 47.5312 23.4375 43.0156 23.4375 38.4828V37.5V32.8125H17.1875V40.625V41.6078C17.1875 46.1422 16.5953 50.6562 15.4281 55.0375L4.6875 95.3125H51.5625L50.7297 92.1875H36.2687C23.4813 92.1875 14.1703 80.0672 17.4641 67.7125Z" fill="#E59E16"/>
</svg>
