<svg width="160" height="77" viewBox="0 0 160 77" fill="none" xmlns="http://www.w3.org/2000/svg">
<path opacity="0.5" fill-rule="evenodd" clip-rule="evenodd" d="M0.565064 38.6683C1.61085 39.6409 2.39519 40.99 3.47235 42.088C4.54951 43.1861 5.40706 44.326 6.45285 45.3718C9.57451 48.5558 12.8629 51.5719 16.3042 54.4074C16.6042 54.638 16.8906 54.8859 17.1617 55.1499L19.7971 57.2415C21.7632 58.9043 23.6665 60.0024 25.2979 61.2573C25.9149 61.7384 26.4483 62.0625 27.1281 62.5018C36.833 68.7765 49.3824 74.9153 63.7933 76.212C79.1036 77.582 93.0754 72.8551 104.265 66.8C109.577 63.8796 114.639 60.5251 119.398 56.7709L124.627 52.4936C125.233 51.9707 125.672 51.4478 126.248 51.0295C127.628 49.8896 132.658 44.8803 132.658 44.8803L159.357 59.6468V17.6794C158.636 17.899 147.122 24.4456 145.961 25.0626C144.214 25.9934 133.275 32.289 132.46 32.3831C131.508 30.9922 124.418 24.5188 122.765 23.2011C120.611 21.4756 117.923 19.2794 115.696 17.6898C101.055 7.31564 83.1613 -0.726452 63.5319 1.11413C49.2151 2.45274 36.5506 8.64379 26.9294 14.8871C25.6535 15.7133 24.3776 16.5604 23.1959 17.4493C17.214 21.9462 11.4099 26.464 6.28552 32.0067L3.31549 35.3636C2.37428 36.3571 1.48536 37.7585 0.533691 38.6683H0.565064ZM17.716 38.6683C18.4933 37.8345 19.3173 37.0454 20.184 36.3048C21.0311 35.6042 21.8154 34.7571 22.7148 34.025C23.6142 33.293 24.4718 32.6237 25.3502 31.8498C25.7894 31.4628 26.2287 31.1909 26.7411 30.804C30.7862 27.586 35.0923 24.7106 39.6148 22.2076C47.3954 17.6898 58.4389 13.6322 69.3255 13.6427C80.2121 13.6531 91.287 17.7317 98.9945 22.239C102.506 24.2581 105.912 26.4536 109.201 28.817L114.587 33.0629C115.047 33.4289 115.487 33.774 115.884 34.1087C116.626 34.7466 120.475 38.1768 120.81 38.6997C119.615 39.9376 118.355 41.1106 117.034 42.2135C116.215 43.0075 115.349 43.7514 114.441 44.4411C114.002 44.7757 113.625 45.1731 113.154 45.4868L109.055 48.6242C105.796 50.9812 102.41 53.1562 98.9108 55.1394C91.1301 59.6468 80.0867 63.7149 69.2 63.694C55.793 63.694 43.4632 57.984 33.5387 51.4583L27.996 47.4947L20.1213 40.9377C19.2898 40.2244 18.4973 39.4669 17.7473 38.6683H17.716Z" fill="white"/>
<path opacity="0.5" fill-rule="evenodd" clip-rule="evenodd" d="M41.1723 32.2993C39.7254 32.5603 38.438 33.3772 37.5859 34.5753C36.7337 35.7735 36.3844 37.2576 36.6127 38.71C36.7201 39.4424 36.9737 40.1457 37.3584 40.7782C37.7431 41.4106 38.2511 41.9592 38.852 42.3914C39.453 42.8236 40.1348 43.1306 40.8567 43.294C41.5787 43.4574 42.3262 43.474 43.0547 43.3428C44.5003 43.0725 45.7825 42.2469 46.6269 41.0429C47.4714 39.8388 47.8108 38.352 47.5725 36.9008C47.4664 36.1729 47.2148 35.4738 46.8328 34.8452C46.4508 34.2166 45.9461 33.6714 45.3488 33.242C44.7516 32.8126 44.074 32.5078 43.3564 32.3459C42.6389 32.1839 41.8961 32.1681 41.1723 32.2993" fill="white"/>
</svg>
