<svg width="86" height="101" viewBox="0 0 86 101" fill="none" xmlns="http://www.w3.org/2000/svg">
<path d="M71.1384 89.859L70.6497 73.9073L65.9399 71.1499L60.7972 73.9073L60.3085 89.859C60.2325 92.3367 58.0602 94.3084 55.4062 94.3084L65.3667 97.2603L76.0406 94.3084C73.3867 94.3084 71.2143 92.3365 71.1384 89.859Z" fill="#E59E16"/>
<path d="M85.4471 68.552L79.6457 57.7154C80.4196 57.4812 81.1888 57.2269 81.9517 56.9527C82.808 56.6447 83.194 55.7148 82.7835 54.9482L76.6988 43.5824C77.6222 43.3236 78.5378 43.0314 79.4435 42.7056C80.1674 42.4453 80.4937 41.6589 80.1467 41.0109L65.9932 14.5728C65.8824 14.3657 65.5658 14.3657 65.455 14.5728L57.6372 29.1755L50.3556 38.2604L46.2437 70.3953C46.4306 70.5996 46.6736 70.7652 46.963 70.8693C59.0385 75.2115 72.4099 75.2115 84.4854 70.8693C85.4751 70.5133 85.9216 69.4383 85.4471 68.552Z" fill="white"/>
<path d="M85.4471 68.552L79.6457 57.7154C80.4197 57.4812 81.1888 57.2269 81.9517 56.9527C82.8268 56.9527 83.3963 56.0924 83.0048 55.3613L76.699 43.5826C77.6224 43.3238 78.538 43.0316 79.4437 42.7058C80.0342 42.1542 80.2118 41.1322 79.8383 40.4345L65.9932 14.5728C65.8824 14.3657 65.566 14.3657 65.455 14.5728L58.7276 31.6224L63.7043 26.9744L71.2211 36.4104C71.5945 37.108 71.417 38.1301 70.8264 38.6816C70.6792 38.7346 70.5318 38.7867 70.3839 38.8379C69.1725 39.2574 68.6225 40.5683 69.2003 41.6476L74.3878 51.3373C74.7792 52.0686 74.21 52.9287 73.3346 52.9287C73.3271 52.9315 73.3194 52.9342 73.3118 52.9369C72.1063 53.3697 71.5517 54.6686 72.1295 55.7474L76.8301 64.528C77.3046 65.4143 76.8583 66.4893 75.8681 66.8454C68.0746 69.6479 59.7409 70.6414 51.5645 69.8264L48.1824 69.0289L46.2437 70.3955C46.4306 70.5998 46.6736 70.7654 46.963 70.8695C59.0385 75.2117 72.4099 75.2117 84.4854 70.8695C85.4752 70.5133 85.9214 69.4383 85.4471 68.552Z" fill="#F9B22A"/>
<path d="M75.8973 58.7117C75.7277 57.8936 74.88 57.36 74.0037 57.5172C73.7216 57.5682 73.4383 57.6168 73.1543 57.6627L74.6585 60.4727C75.5117 60.2975 76.0644 59.5174 75.8973 58.7117Z" fill="#F9B22A"/>
<path d="M13.6915 90.3014L14.1315 75.9391L18.567 71.8579L23.0024 75.9391L23.4424 90.3014C23.5108 92.5323 25.4667 94.3074 27.8563 94.3074L18.3683 97.2593L9.27783 94.3074C11.6672 94.3074 13.6232 92.5321 13.6915 90.3014Z" fill="#E59E16"/>
<path d="M36.0326 72.8525L36.0987 70.6952L35.8647 70.2582C30.411 69.7549 25.0121 68.5692 19.817 66.7011C18.6509 66.2817 18.1254 65.0155 18.6841 63.9716L25.517 51.2085C24.6052 50.9325 23.6995 50.6333 22.8009 50.3101C21.7923 49.9474 21.3377 48.8521 21.821 47.9492L27.123 38.0456L18.9144 22.3254C18.8146 22.1389 18.4246 22.3297 18.3249 22.5163L5.58105 46.3209C5.26863 46.9042 5.56244 47.6122 6.21427 47.8466C7.02963 48.1398 7.85399 48.4029 8.68545 48.6359L3.20711 58.8691C2.8376 59.5594 3.18515 60.3966 3.95618 60.6738C4.64315 60.9209 5.33555 61.1496 6.03254 61.3605L0.809124 71.1172C0.38189 71.9153 0.78382 72.8832 1.67509 73.2037C12.5473 77.1132 24.5864 77.1132 35.4586 73.2037C35.6827 73.1234 35.876 73.002 36.0326 72.8525Z" fill="#E59E16"/>
<path d="M16.8851 30.9919C17.9054 32.8976 17.9054 35.1407 16.8851 37.0464L12.9433 44.4092C12.4822 45.2703 13.1529 46.2836 14.1836 46.2836C14.7416 46.4841 15.3024 46.6757 15.8656 46.8582C16.4112 47.0347 16.6663 47.6179 16.4081 48.1003L10.0669 59.9451C9.50812 60.9886 10.0343 62.2554 11.2001 62.6746C13.5822 63.5312 16.0072 64.2441 18.4604 64.8136L25.5169 51.2059L27.123 38.0432L18.8094 22.5139C18.7096 22.3274 18.4246 22.3274 18.3249 22.5139L18.8094 26.5091L16.8851 30.9919Z" fill="white"/>
<path d="M36.0985 67.5791L27.3349 68.8965C27.1939 69.0133 27.0285 69.1094 26.8413 69.1767C18.4778 72.1841 9.42388 72.8779 0.741602 71.2583C0.431475 72.0251 0.836752 72.8993 1.67512 73.2007C12.5473 77.1102 24.5864 77.1102 35.4586 73.2007C35.6826 73.1202 35.8756 72.9988 36.0324 72.8493L38.146 70.2775L36.0985 67.5791Z" fill="#F9B22A"/>
<path d="M13.3761 64.4044C13.3075 64.4044 13.2378 64.4003 13.1678 64.3919C12.48 64.3091 11.7838 64.2091 11.0983 64.0943C10.22 63.947 9.63575 63.1628 9.79321 62.3425C9.95089 61.5222 10.7916 60.9758 11.6688 61.1238C12.302 61.2299 12.9451 61.3222 13.5802 61.3986C14.4652 61.5049 15.0902 62.2611 14.9765 63.0879C14.8717 63.849 14.1766 64.4044 13.3761 64.4044Z" fill="#E59E16"/>
<path d="M11.2003 62.6768C12.3444 63.0883 13.4986 63.4665 14.6611 63.8116C14.8267 63.6082 14.9394 63.3627 14.9768 63.0913C15.0908 62.2647 14.4655 61.5083 13.5805 61.402C12.9454 61.3257 12.3022 61.2333 11.6692 61.1272C11.0387 61.0208 10.427 61.2733 10.0742 61.7282C10.302 62.1471 10.6899 62.4932 11.2003 62.6768Z" fill="#F9B22A"/>
<path d="M48.2912 89.0678L47.7157 70.2803L41.9136 67.1636L36.1115 70.2803L35.536 89.0678C35.4465 91.9859 32.8879 94.3082 29.7622 94.3082L41.9136 98.4677L54.065 94.3082C50.9393 94.3082 48.3807 91.9859 48.2912 89.0678Z" fill="#E59E16"/>
<path d="M43.5287 84.1081C43.5287 83.2745 42.8053 82.5991 41.913 82.5991C41.0207 82.5991 40.2974 83.2747 40.2974 84.1081V96.0532H43.5289V84.1081H43.5287Z" fill="#E59E16"/>
<path d="M41.913 79.5798C41.0207 79.5798 40.2974 78.9043 40.2974 78.0709V70.5358C40.2974 69.7022 41.0207 69.0269 41.913 69.0269C42.8054 69.0269 43.5287 69.7024 43.5287 70.5358V78.0709C43.5287 78.9043 42.8054 79.5798 41.913 79.5798Z" fill="#E59E16"/>
<path d="M65.1427 63.9717L58.3099 51.2086C59.2214 50.9326 60.1273 50.6334 61.0259 50.3102C62.0345 49.9475 62.4892 48.8522 62.0059 47.9493L54.8393 34.5629C55.9269 34.258 57.0054 33.9139 58.0719 33.5303C58.9245 33.2237 59.3088 32.2977 58.9002 31.5344L42.2304 0.396336C42.0999 0.152393 41.727 0.152393 41.5965 0.396336L24.9264 31.5346C24.5178 32.2979 24.9022 33.2239 25.755 33.5305C26.8215 33.9141 27.8999 34.2582 28.9876 34.5631L21.821 47.9495C21.3377 48.8522 21.7924 49.9475 22.8009 50.3104C23.6995 50.6334 24.6052 50.9328 25.517 51.2088L18.6842 63.9719C18.1254 65.0157 18.6509 66.2821 19.817 66.7014C34.0391 71.8156 49.7878 71.8156 64.0099 66.7014C65.1757 66.2817 65.7015 65.0155 65.1427 63.9717Z" fill="#E59E16"/>
<path d="M65.1424 63.9717L58.3096 51.2088C59.2211 50.9328 60.127 50.6336 61.0256 50.3104C62.0342 49.9477 62.4889 48.8524 62.0056 47.9497L54.839 34.5633C55.9266 34.2584 57.0051 33.9143 58.0716 33.5307C58.9242 33.2241 59.3086 32.2981 58.8999 31.5348L42.2301 0.396336C42.0996 0.152393 41.7267 0.152393 41.5962 0.396336L38.6817 5.84041L50.2829 27.5105C50.6915 28.2737 50.3071 29.1997 49.4546 29.5063C49.2829 29.5681 49.111 29.6288 48.9389 29.6884C47.5093 30.1837 46.86 31.7305 47.5419 33.0043L53.6489 44.4118C54.11 45.2729 53.4394 46.2862 52.4086 46.2862L52.3816 46.296C50.9611 46.8059 50.3109 48.3397 50.9916 49.6112L56.5254 59.9478C57.0833 60.9899 56.5603 62.2571 55.3961 62.6759C43.5553 66.9346 30.6561 67.6481 18.4603 64.8165C18.4438 65.6196 18.9555 66.3914 19.8169 66.7012C34.039 71.8152 49.7877 71.8152 64.0098 66.7012C65.1754 66.2817 65.7012 65.0155 65.1424 63.9717Z" fill="#F9B22A"/>
<path d="M54.5799 52.2226C54.394 51.4074 53.5372 50.8876 52.6629 51.0613C52.3927 51.115 52.1221 51.1667 51.8511 51.2163L53.3471 54.0106C54.2137 53.8327 54.7652 53.0345 54.5799 52.2226Z" fill="#F9B22A"/>
<path d="M76.4852 94.3091H7.34126C5.36758 94.3091 3.59256 95.4317 2.86001 97.1434L1.81023 99.5963C1.68392 99.8916 1.91667 100.213 2.25712 100.213H81.5695C81.91 100.213 82.143 99.8916 82.0164 99.5963L80.9666 97.1434C80.2339 95.4315 78.4591 94.3091 76.4852 94.3091Z" fill="#F9B22A"/>
</svg>
