<svg width="279" height="279" viewBox="0 0 279 279" fill="none" xmlns="http://www.w3.org/2000/svg">
<path opacity="0.5" fill-rule="evenodd" clip-rule="evenodd" d="M52.2682 30.4536L247.83 226.016C245.634 228.756 243.337 231.408 240.938 233.974L44.2993 37.3872C46.872 35.0028 49.5282 32.709 52.2682 30.5059" fill="#9254E8"/>
<path opacity="0.5" fill-rule="evenodd" clip-rule="evenodd" d="M37.146 44.509L233.754 241.117C231.181 243.508 228.521 245.798 225.774 247.988L30.2124 52.4256C32.4016 49.6717 34.6884 47.012 37.0728 44.4463" fill="#9254E8"/>
<path opacity="0.5" fill-rule="evenodd" clip-rule="evenodd" d="M24.2202 60.6768L217.691 254.147C214.731 256.166 211.688 258.09 208.571 259.878L18.4893 69.8065C20.2776 66.6691 22.2018 63.6468 24.2202 60.6872" fill="#9254E8"/>
<path opacity="0.5" fill-rule="evenodd" clip-rule="evenodd" d="M13.5737 79.1348L199.18 264.741C195.791 266.365 192.326 267.85 188.785 269.196L9.11865 89.5299C10.4712 85.9951 11.9562 82.5301 13.5737 79.1348Z" fill="#9254E8"/>
<path opacity="0.5" fill-rule="evenodd" clip-rule="evenodd" d="M5.44818 100.448L177.867 272.857C173.949 274 169.961 274.962 165.903 275.743L2.57227 112.412C3.36009 108.361 4.31873 104.373 5.44818 100.448Z" fill="#9254E8"/>
<path opacity="0.5" fill-rule="evenodd" clip-rule="evenodd" d="M0.732055 124.721L153.595 277.583C148.951 278.057 144.249 278.301 139.487 278.315L0 138.828C0.00620549 134.116 0.250539 129.408 0.732055 124.721Z" fill="#9254E8"/>
<path opacity="0.5" fill-rule="evenodd" clip-rule="evenodd" d="M0.784218 153.982L124.312 277.531C118.264 276.883 112.266 275.835 106.356 274.393L3.86929 171.906C2.4227 165.998 1.37456 159.999 0.731934 153.95" fill="#9254E8"/>
<path opacity="0.5" fill-rule="evenodd" clip-rule="evenodd" d="M10.6357 192.613L85.7023 267.68C51.775 253.513 24.8021 226.541 10.6357 192.613Z" fill="#9254E8"/>
<path opacity="0.5" fill-rule="evenodd" clip-rule="evenodd" d="M69.4716 18.6777L259.637 208.896C257.839 211.998 255.921 215.028 253.885 217.984L60.415 24.5132C63.3642 22.4844 66.3935 20.5671 69.5029 18.7614" fill="#9254E8"/>
<path opacity="0.5" fill-rule="evenodd" clip-rule="evenodd" d="M89.3729 9.15088L269.144 188.922C267.749 192.456 266.261 195.918 264.678 199.306L78.9883 13.6373C82.3766 12.0198 85.8382 10.5313 89.3729 9.17182" fill="#9254E8"/>
<path opacity="0.5" fill-rule="evenodd" clip-rule="evenodd" d="M112.056 2.63574L275.669 166.259C274.874 170.282 273.922 174.263 272.814 178.202L100.113 5.55346C104.024 4.41704 108.005 3.44448 112.056 2.63574Z" fill="#9254E8"/>
<path opacity="0.5" fill-rule="evenodd" clip-rule="evenodd" d="M138.493 0L278.315 139.874C278.295 144.576 278.037 149.274 277.541 153.95L124.417 0.78434C129.093 0.288785 133.791 0.0305036 138.493 0.0104681" fill="#9254E8"/>
<path opacity="0.5" fill-rule="evenodd" clip-rule="evenodd" d="M171.948 5.21872L275.69 108.961C277.053 114.818 278.038 120.756 278.639 126.739L154.19 2.29053C160.174 2.89185 166.112 3.87693 171.969 5.23965" fill="#9254E8"/>
<path opacity="0.5" fill-rule="evenodd" clip-rule="evenodd" d="M234.235 38.1819L242.727 46.6737C253.771 58.6896 262.62 72.5509 268.872 87.6267L193.334 12.0791C208.41 18.3303 222.272 27.1795 234.287 38.2238" fill="#9254E8"/>
</svg>
