<svg width="101" height="101" viewBox="0 0 101 101" fill="none" xmlns="http://www.w3.org/2000/svg">
<g clip-path="url(#clip0)">
<path d="M86.8802 90.8809H13.5472L10.2139 49.2144H90.2136L86.8802 90.8809Z" fill="#E59E16"/>
<path d="M5.21387 42.5474H95.2135V49.214H5.21387V42.5474Z" fill="#E59E16"/>
<path d="M19.7031 84.2138H80.7258L81.5258 74.2139H18.9023L19.7031 84.2138Z" fill="white"/>
<path d="M82.9919 55.8809H17.4355L18.102 64.2142H82.3254L82.9919 55.8809Z" fill="white"/>
<path d="M18.1021 64.2139L18.902 74.2138H81.5255L82.3254 64.2139H18.1021Z" fill="white"/>
<path d="M6.88037 42.5474L10.2137 35.8807L11.8804 27.5474L18.547 29.214L26.8804 34.214L28.547 40.8807V42.5474H6.88037Z" fill="#E59E16"/>
<path d="M28.547 42.5474L26.8804 34.214L28.547 25.8807L38.547 17.5474H56.8804L63.547 32.5474L70.2137 37.5474L71.8804 42.5474H28.547Z" fill="#F9B22A"/>
<path d="M63.5471 32.5474L70.2138 22.5474L78.5471 24.214L85.2138 29.214L91.8805 32.5474L95.2138 37.5474L91.8805 42.5474H71.8805L70.2138 37.5474L63.5471 32.5474Z" fill="white"/>
<path d="M25.214 15.8809L38.5474 17.5475L28.5474 25.8809L26.8807 34.2142L18.5474 29.2142L20.214 24.2142L25.214 15.8809Z" fill="#F9B22A"/>
<path d="M46.8806 17.5474L55.2139 12.5474L56.8806 5.8807L63.5473 2.54736L70.2139 9.21403L78.5473 12.5474L81.8806 19.214L78.5473 24.214L70.2139 22.5474L63.5473 32.5474L56.8806 17.5474H46.8806Z" fill="#E59E16"/>
<path d="M31.1411 16.6214L35.2142 9.21419L41.8809 5.88086H56.8809L55.2142 12.5475L46.8809 17.5475H38.5475L31.1411 16.6214Z" fill="white"/>
<path d="M76.8804 89.2144C76.8804 94.7376 72.4037 99.2144 66.8804 99.2144C61.3579 99.2144 56.8804 94.7376 56.8804 89.2144C56.8804 83.6919 61.3579 79.2144 66.8804 79.2144C72.4037 79.2144 76.8804 83.6919 76.8804 89.2144Z" fill="#F9B22A"/>
<path d="M70.2138 89.2142C70.2138 91.0558 68.7213 92.5475 66.8804 92.5475C65.0396 92.5475 63.5471 91.0558 63.5471 89.2142C63.5471 87.3734 65.0396 85.8809 66.8804 85.8809C68.7213 85.8809 70.2138 87.3734 70.2138 89.2142Z" fill="#E59E16"/>
<path d="M43.5474 89.2144C43.5474 94.7376 39.0706 99.2144 33.5474 99.2144C28.0249 99.2144 23.5474 94.7376 23.5474 89.2144C23.5474 83.6919 28.0249 79.2144 33.5474 79.2144C39.0706 79.2144 43.5474 83.6919 43.5474 89.2144Z" fill="#F9B22A"/>
<path d="M36.8805 89.2142C36.8805 91.0558 35.388 92.5475 33.5472 92.5475C31.7064 92.5475 30.2139 91.0558 30.2139 89.2142C30.2139 87.3734 31.7064 85.8809 33.5472 85.8809C35.388 85.8809 36.8805 87.3734 36.8805 89.2142Z" fill="#E59E16"/>
<path d="M100.213 100.881V97.5476H75.0304C76.4465 96.1649 77.4873 94.4445 78.0553 92.5476H95.2135V95.8809H98.5468V85.8809H95.2135V89.2143H88.6852L91.7524 50.8811H95.2135C96.1339 50.8811 96.8801 50.1356 96.8801 49.2144V42.5478C96.8801 41.6274 96.1339 40.8811 95.2135 40.8811H94.9937L96.6002 38.4731C96.9737 37.9132 96.9737 37.1832 96.6002 36.6233L93.2669 31.6233C93.1057 31.3825 92.8844 31.1871 92.6256 31.0569L86.094 27.7912L80.8084 23.828L83.2669 20.1398C83.5981 19.6434 83.638 19.0078 83.3719 18.4732L80.0386 11.8065C79.8563 11.4411 79.5462 11.1555 79.167 11.0033L71.1503 7.79857L64.7253 1.37038C64.2183 0.862565 63.4436 0.736427 62.8023 1.05706L56.4872 4.2146H41.8804C41.6224 4.2146 41.3669 4.27482 41.1357 4.39038L34.4691 7.7237C34.1664 7.87507 33.9165 8.11514 33.7538 8.41136L30.2243 14.8282L25.4205 14.2284C24.7662 14.1462 24.1257 14.4579 23.7855 15.0235L18.7856 23.3568C18.7221 23.4618 18.6708 23.5732 18.6326 23.6896L17.4542 27.2248L12.2874 25.9333C11.8463 25.8218 11.3784 25.8958 10.9934 26.1383C10.6085 26.38 10.3383 26.769 10.2472 27.215L8.62366 35.3286L5.85105 40.8811H5.21385C4.29344 40.8811 3.54719 41.6274 3.54719 42.5478V49.2144C3.54719 50.1356 4.29344 50.8811 5.21385 50.8811H8.67575L11.7421 89.2143H5.21385V85.8809H1.88053V95.8809H5.21385V92.5476H22.3809C22.9481 94.4445 23.9898 96.1649 25.4058 97.5476H0.213867V100.881H100.213ZM41.6973 97.5476C43.1133 96.1649 44.1541 94.4445 44.7221 92.5476H55.7141C56.2813 94.4445 57.323 96.1649 58.739 97.5476H41.6973ZM23.9874 82.5476H21.2408L20.7069 75.881H79.7139L79.18 82.5476H76.4408C74.2647 79.4161 70.6937 77.5484 66.8803 77.5484C63.0676 77.5484 59.4958 79.4161 57.3206 82.5476H43.1076C40.9315 79.4161 37.3605 77.5484 33.5471 77.5484C29.7344 77.5484 26.1627 79.4161 23.9874 82.5476ZM19.2405 57.5477H81.1868L80.7873 62.5477H19.6409L19.2405 57.5477ZM19.907 65.881H80.5203L79.9873 72.5477H20.4408L19.907 65.881ZM55.2136 89.2143H45.2137C45.2104 88.0855 45.042 86.9625 44.714 85.8809H55.7141C55.3853 86.9625 55.2169 88.0855 55.2136 89.2143ZM66.8803 97.5476C62.2782 97.5476 58.547 93.8171 58.547 89.2143C58.547 84.6122 62.2782 80.881 66.8803 80.881C71.4831 80.881 75.2136 84.6122 75.2136 89.2143C75.2079 93.8147 71.4807 97.5427 66.8803 97.5476ZM84.4689 30.7151L90.7384 33.8499L93.214 37.5478L90.9923 40.8811H73.0822L71.7956 37.0213C71.6882 36.6998 71.4855 36.4182 71.2137 36.2148L65.8085 32.1613L70.9753 24.4017L77.8454 25.7746L84.2134 30.5483C84.2931 30.6118 84.3786 30.6671 84.4689 30.7151ZM30.1641 40.4767L28.5886 34.1746L30.0656 26.7853L39.1509 19.2145H55.7971L62.0235 33.2249C62.0422 33.2664 62.0723 33.2998 62.0935 33.3396C62.1163 33.382 62.1415 33.4227 62.1692 33.4617C62.1944 33.5081 62.2229 33.5529 62.2538 33.5968C62.2872 33.6367 62.3287 33.6684 62.3653 33.705C62.4215 33.7685 62.4825 33.8271 62.5468 33.8816L68.7968 38.5699L69.5674 40.8811H30.2137C30.2137 40.7452 30.1975 40.6093 30.1641 40.4767ZM63.2141 4.57674L69.0303 10.393C69.1898 10.5525 69.3802 10.6786 69.5886 10.7632L77.3335 13.8597L79.9523 19.0949L77.7754 22.3615L70.5472 20.9146C69.8856 20.7819 69.2085 21.0619 68.8342 21.6234L63.8472 29.103L58.4102 16.8716C58.1417 16.267 57.5419 15.8788 56.8803 15.8812H52.8976L56.0722 13.9769C56.4506 13.7491 56.7232 13.3812 56.8307 12.9532L58.3118 7.03035L63.2141 4.57674ZM36.4238 10.4735L42.2742 7.54792H54.7457L53.7634 11.4737L46.4189 15.8812H38.6504L33.7839 15.2733L36.4238 10.4735ZM26.0902 17.67L34.5375 18.7263L27.4875 24.6019C27.1954 24.8452 26.9952 25.1821 26.9203 25.5548L25.7142 31.568L20.5474 28.4731L21.734 24.9152L26.0902 17.67ZM11.7137 36.6266C11.7763 36.4956 11.8211 36.3572 11.8471 36.2148L13.1809 29.5962L17.9107 30.7786L21.6754 33.0369L25.3993 35.2716L26.5142 40.8811H9.57743L11.7137 36.6266ZM6.88051 44.2144H93.5468V47.5478H6.88051V44.2144ZM15.086 89.2143L12.0188 50.8811H88.4085L85.3421 89.2143H78.5469C78.5436 88.0855 78.3752 86.9625 78.0472 85.8809H80.714C81.5848 85.8842 82.3107 85.2161 82.3807 84.3477L84.6471 56.0145C84.6845 55.5498 84.525 55.0909 84.2085 54.7491C83.8919 54.4073 83.4468 54.2136 82.9804 54.2144H17.4355C16.9692 54.2136 16.524 54.4073 16.2075 54.7491C15.8909 55.0909 15.7314 55.5498 15.7688 56.0145L18.0361 84.3477C18.1052 85.2161 18.8311 85.8842 19.7027 85.8809H22.3687C22.0448 86.9625 21.8804 88.0855 21.8804 89.2143H15.086ZM25.2138 89.2143C25.2138 84.6122 28.945 80.881 33.5471 80.881C38.1499 80.881 41.8804 84.6122 41.8804 89.2143C41.8804 93.8171 38.1499 97.5476 33.5471 97.5476C28.9475 97.5427 25.2195 93.8147 25.2138 89.2143Z" fill="#E59E16"/>
<path d="M33.5474 84.2139C30.7861 84.2139 28.5474 86.4526 28.5474 89.2139C28.5474 91.9759 30.7861 94.2139 33.5474 94.2139C36.3086 94.2139 38.5474 91.9759 38.5474 89.2139C38.5474 86.4526 36.3086 84.2139 33.5474 84.2139ZM33.5474 90.8805C32.627 90.8805 31.8807 90.1351 31.8807 89.2139C31.8807 88.2935 32.627 87.5472 33.5474 87.5472C34.4678 87.5472 35.214 88.2935 35.214 89.2139C35.214 90.1351 34.4678 90.8805 33.5474 90.8805Z" fill="#E59E16"/>
<path d="M66.8804 84.2139C64.1191 84.2139 61.8804 86.4526 61.8804 89.2139C61.8804 91.9759 64.1191 94.2139 66.8804 94.2139C69.6416 94.2139 71.8804 91.9759 71.8804 89.2139C71.8804 86.4526 69.6416 84.2139 66.8804 84.2139ZM66.8804 90.8805C65.96 90.8805 65.2137 90.1351 65.2137 89.2139C65.2137 88.2935 65.96 87.5472 66.8804 87.5472C67.8008 87.5472 68.547 88.2935 68.547 89.2139C68.547 90.1351 67.8008 90.8805 66.8804 90.8805Z" fill="#E59E16"/>
</g>
<defs>
<clipPath id="clip0">
<rect width="100" height="100" fill="white" transform="translate(0.213867 0.880859)"/>
</clipPath>
</defs>
</svg>
