<svg width="123" height="123" viewBox="0 0 123 123" fill="none" xmlns="http://www.w3.org/2000/svg">
<path opacity="0.5" fill-rule="evenodd" clip-rule="evenodd" d="M34.7515 61.2726C35.1489 61.9942 53.0004 79.6471 54.4854 81.1426C55.4371 82.1047 60.551 87.4173 61.1994 87.7101L87.6055 61.3249L61.2204 34.8456C60.5406 35.2116 40.8589 55.1234 38.0876 57.8529C36.9098 58.923 35.7957 60.0614 34.7515 61.2622V61.2726ZM35.1593 8.56499C35.4521 9.16109 42.7099 16.2934 43.7661 17.3601C44.4668 18.0503 52.0174 25.4753 52.3939 26.061C52.1533 26.4793 44.1532 34.5109 43.5884 34.8874L34.1135 25.4753C33.6011 25.674 25.6009 33.758 25.4336 34.1449C27.0023 35.9542 34.2809 42.7203 34.8457 43.6406L26.0715 52.5089C24.8375 51.871 9.73634 35.7764 8.56506 35.2535L0 43.7557C0.522893 44.8015 16.7326 60.2791 17.245 61.2412L0.0209362 78.5594C0.188262 78.9987 7.84346 86.7061 8.56506 87.2081C9.34374 86.5653 10.0742 85.8662 10.7507 85.1165L15.0803 80.787C15.8542 80.0131 16.5548 79.4484 17.3078 78.6954L23.8021 72.2011C24.4911 71.4491 25.2357 70.7499 26.0296 70.1095C26.5734 70.4233 34.6051 78.4758 34.8352 78.9464L25.4231 88.4212C25.5277 88.6199 33.6011 96.9025 34.124 97.0699L43.5361 87.6578C44.5819 88.3376 52.258 96.296 52.3835 96.547C51.0868 98.2934 35.8182 112.694 35.1907 114.012L43.693 122.545C44.6446 122.043 60.1641 105.813 61.189 105.311L78.4968 122.535C79.0615 122.294 86.2984 114.974 87.135 114.012C85.8252 112.463 84.4286 110.989 82.9518 109.598C81.3413 107.988 70.4023 97.3418 69.9527 96.547C71.3302 94.9759 72.7894 93.4784 74.3241 92.0606C75.7311 90.5219 77.2292 89.0691 78.8104 87.7101L88.2958 97.1222C89.8364 95.7662 91.3059 94.3316 92.6985 92.824C94.2054 91.4513 95.6236 89.9843 96.9445 88.4317L87.5324 78.9464C87.8566 78.413 95.9824 70.2978 96.432 70.0991C97.2111 70.7749 97.948 71.4979 98.6386 72.2639L100.803 74.4286C102.278 75.9031 103.658 77.2731 105.133 78.7581C106.607 80.2432 108.009 81.5922 109.494 83.0668C110.142 83.7047 113.384 87.114 113.897 87.2499C115.455 85.8277 116.72 84.4681 118.153 83.0668L120.244 80.9752C120.788 80.4314 122.106 79.3751 122.336 78.6745L105.112 61.3667C105.99 59.9967 121.949 44.8433 122.347 43.8812C121.97 43.2851 118.843 40.2941 118.101 39.5412C117.358 38.7882 114.461 35.6613 113.75 35.358L96.3797 52.488C96.1182 52.373 88.3271 44.7806 87.48 43.672L95.7418 35.3058C96.1601 34.8874 96.6516 34.5946 96.8503 33.9776L88.3167 25.4231L78.7896 34.8351C78.5596 34.7201 70.2977 26.6048 69.9108 25.9982C70.486 25.1302 86.6434 9.3912 87.1036 8.53365C86.6225 7.85389 78.9465 0.240531 78.4863 0L61.1994 17.2555C60.2269 16.7117 44.6969 0.522893 43.7034 0L35.1593 8.56499Z" fill="white"/>
</svg>
