<svg width="218" height="439" viewBox="0 0 218 439" fill="none" xmlns="http://www.w3.org/2000/svg">
<path d="M144.4 219.705L144.272 220.362L103.456 430.829C103.351 431.371 102.826 431.725 102.284 431.62L74.7352 426.278C74.1959 426.173 73.842 425.653 73.9425 425.113L113.901 210.381C114.001 209.84 113.647 209.32 113.108 209.216L108.5 208.322C107.961 208.218 107.438 208.568 107.33 209.106L64.1224 423.208C64.0137 423.747 63.5075 424.1 62.9683 423.996L33.9317 418.364C33.3895 418.259 33.0531 417.738 33.1582 417.196L75.1991 200.416C75.2954 199.92 75.0057 199.429 74.5242 199.274L68.0269 197.18C67.5454 197.025 67.2557 196.534 67.352 196.038L75.9313 151.8C76.0205 151.34 75.7782 150.879 75.3484 150.692L62.7031 145.193C62.2733 145.006 62.031 144.546 62.1202 144.085L66.2275 122.907C66.3327 122.365 65.9784 121.84 65.4362 121.735L60.8431 120.844C60.3009 120.739 59.9466 120.214 60.0517 119.672L62.214 108.522C62.3192 107.98 61.9649 107.455 61.4227 107.35L60.1079 107.095C59.5657 106.99 59.2114 106.465 59.3165 105.923L79.2426 3.1763C79.3614 2.5638 80.0059 2.20843 80.5872 2.43487L96.0878 8.4721C96.5381 8.6475 96.7985 9.11986 96.7065 9.5943L94.7691 19.5843C94.6913 19.9857 94.8657 20.3941 95.2095 20.6155L101.631 24.7501C101.975 24.9715 102.149 25.3799 102.071 25.7813L98.2056 45.714C98.1233 46.1384 98.323 46.5676 98.7007 46.778L106.802 51.2911C107.18 51.5014 107.38 51.9307 107.298 52.3551L105.689 60.6493C105.596 61.1281 105.862 61.6041 106.319 61.7757L113.768 64.5757C114.348 64.7935 114.984 64.4378 115.102 63.83L118.278 47.4526C118.338 47.1436 118.54 46.8808 118.823 46.7434L125.583 43.4614C125.778 43.3669 125.998 43.3381 126.21 43.3793L131.458 44.397C132 44.5021 132.355 45.0269 132.249 45.5691L130.85 52.7831L126.877 73.2722C126.789 73.7249 127.085 74.163 127.537 74.2508C127.99 74.3385 128.286 74.7766 128.198 75.2293L126.958 81.6237C126.853 82.1659 127.207 82.6906 127.749 82.7958L129.064 83.0508C129.606 83.1559 129.961 83.6807 129.855 84.2228L116.885 151.103C116.78 151.645 117.134 152.17 117.676 152.275L122.27 153.166C122.812 153.271 123.337 152.917 123.442 152.375L132.915 103.525C133.02 102.983 133.545 102.628 134.087 102.734L140.32 103.942C140.862 104.047 141.387 103.693 141.492 103.151L146.197 78.8881C146.302 78.3459 146.827 77.9917 147.369 78.0968L163.436 81.2128C163.978 81.3179 164.503 80.9636 164.608 80.4214L167.406 65.9935C167.512 65.4513 168.036 65.097 168.579 65.2022L174.811 66.4108C175.353 66.516 175.878 66.1617 175.983 65.6195L180.37 42.9959C180.476 42.4537 181 42.0994 181.542 42.2046L189.414 43.7311C189.956 43.8362 190.481 43.482 190.586 42.9398L192.748 31.7901C192.853 31.2479 193.378 30.8936 193.92 30.9988L213.281 34.7535C213.817 34.8575 214.171 35.3723 214.075 35.91L196.037 137.524C195.94 138.074 195.411 138.437 194.862 138.331L193.563 138.079C193.021 137.974 192.496 138.328 192.391 138.87L190.229 150.02C190.124 150.562 189.599 150.916 189.057 150.811L186.103 150.238C185.561 150.133 185.036 150.487 184.931 151.03L180.543 173.653C180.438 174.195 179.913 174.55 179.371 174.445L164.943 171.647C164.401 171.541 163.876 171.896 163.771 172.438L154.615 219.649C154.51 220.191 153.985 220.545 153.443 220.44L145.572 218.913C145.03 218.808 144.505 219.162 144.4 219.705Z" fill="#F9B22A" stroke="white" stroke-width="3"/>
<path d="M190.039 151.002L190.357 149.362L165.77 144.594L183.839 42.6499L180.561 42.0142L162.174 145.598L190.039 151.002Z" fill="#E59E16"/>
<path d="M88.869 41.2398L85.2729 42.2432L70.0145 120.922L66.4183 121.925L61.968 144.873L74.4453 150.694L79.6806 150.009L68.8424 144.505L88.869 41.2398Z" fill="#E59E16"/>
<path d="M174.551 134.392L188.757 43.6036L180.561 42.0142L162.174 145.598L188.4 150.684L190.943 137.571L174.551 134.392Z" fill="#E59E16"/>
<path d="M103.72 61.128L92.9311 64.1381L78.0403 149.691L74.4441 150.694L65.5434 196.59L77.3352 197.176L103.72 61.128Z" fill="#E59E16"/>
<path d="M75.6964 196.858L67.1849 196.897L73.4256 199.797L31.422 416.385L39.6177 417.974L79.9822 201.069L84.8996 202.022L75.6964 196.858Z" fill="#E59E16"/>
<path d="M139.662 103.815L131.466 102.225L121.612 153.039L129.807 154.628L139.662 103.815Z" fill="#E59E16"/>
<path d="M135.728 159.178C133.614 156.047 119.973 152.721 113.416 151.449L109.502 154.092L102.628 154.459L96.7567 158.423C95.1911 159.48 95.2567 163.235 95.4852 164.98C94.9388 164.874 93.7825 164.99 93.5281 166.301C90.691 173.914 93.505 181.036 95.2667 183.646L96.588 185.603C97.0284 186.255 97.8456 187.888 97.5913 189.199C97.337 190.51 102.101 195.176 104.515 197.345L108.797 201.577C109.238 202.229 110.774 203.661 113.397 204.17C116.019 204.678 115.794 203.501 115.354 202.848L118.632 203.484L123.231 206.077L123.549 204.438L128.467 205.392C129.437 203.312 132.097 198.952 134.974 198.149C138.57 197.146 139.205 193.868 141.48 190.907C145.077 189.904 144.391 184.669 145.345 179.751C146.298 174.834 142.702 175.837 143.02 174.198C143.338 172.559 143.974 169.281 142.97 165.685C141.967 162.089 138.371 163.092 135.728 159.178Z" fill="#E59E16"/>
</svg>
