<svg width="72" height="79" viewBox="0 0 72 79" fill="none" xmlns="http://www.w3.org/2000/svg">
<path d="M28.3358 4.56778C25.6811 3.87445 20.3127 2.48779 20.0768 2.48779L12.1127 5.16207L11.2278 9.61919L10.3429 13.1849C10.3429 13.1849 3.54847 15.648 2.67386 19.4249C1.71306 23.5739 7.98322 28.9334 7.98322 28.9334L32.7602 38.1448L34.825 40.5219L23.6163 47.3562L7.98322 56.5392L22.4365 57.1618L40.1343 48.8419L48.6883 54.7847H51.6379L59.8969 55.6761L62.8466 59.8361L68.7459 61.0247V57.1618V53.299L64.0264 51.5162L59.8969 45.5733L52.8178 41.4133L47.8034 37.5505L38.3645 15.8592L28.3358 4.56778Z" fill="#F9B22A"/>
<mask id="path-2-outside-1" maskUnits="userSpaceOnUse" x="-0.274414" y="-0.360596" width="72" height="79" fill="black">
<rect fill="white" x="-0.274414" y="-0.360596" width="72" height="79"/>
<path d="M64.4331 61.1857C65.0809 61.1859 65.7229 61.0634 66.3246 60.8246L68.699 66.4355C68.7449 66.5452 68.8122 66.6447 68.8969 66.7284C68.9816 66.8121 69.082 66.8783 69.1925 66.9233C69.3029 66.9683 69.4212 66.9911 69.5406 66.9905C69.6599 66.9899 69.7779 66.9658 69.8879 66.9197C69.9979 66.8736 70.0977 66.8064 70.1815 66.7218C70.2653 66.6373 70.3315 66.5371 70.3764 66.427C70.4212 66.3169 70.4438 66.1991 70.4428 66.0804C70.4418 65.9616 70.4172 65.8442 70.3705 65.7349L67.8831 59.8564C68.7452 59.0778 69.3158 58.0307 69.5011 56.8868C69.6864 55.743 69.4755 54.5705 68.903 53.5617C68.3304 52.5529 67.4303 51.7678 66.3503 51.3353C65.2703 50.9028 64.0747 50.8485 62.9596 51.1814C62.0118 47.3022 59.6805 44.2639 56.0851 42.1661C56.0188 42.1141 55.9456 42.0716 55.8675 42.0397C53.7612 40.8498 51.2343 39.9743 48.3089 39.4331C47.2463 29.0504 35.2346 11.7697 34.7129 11.0239C34.7021 11.0088 34.6908 10.9938 34.6792 10.9788C30.0474 5.16178 25.2151 2.0308 20.3162 1.67309C15.1615 1.29792 11.8408 4.17408 11.5064 4.47779C9.67755 5.99499 8.86559 7.86524 9.09201 10.0375C9.18824 10.8625 9.40305 11.6694 9.72985 12.4335C7.76675 13.2494 3.31183 15.4571 2.06093 19.1099C1.36958 21.1282 1.74836 23.2402 3.18653 25.3871C3.19454 25.3992 3.203 25.4113 3.21192 25.423C3.29807 25.539 5.38421 28.3014 10.7586 31.5624C15.1778 34.2439 22.7116 37.7533 34.226 39.9703L5.81362 56.6038C5.66081 56.6933 5.53769 56.8254 5.45949 56.9837C5.3813 57.142 5.35145 57.3197 5.37364 57.4948C5.39584 57.6698 5.4691 57.8346 5.58436 57.9686C5.69963 58.1027 5.85185 58.2002 6.0222 58.249C8.53888 58.963 11.1441 59.3206 13.761 59.3114C18.9151 59.3114 24.3715 57.999 29.8746 55.4049C29.9493 55.3697 30.0226 55.3342 30.0967 55.2996L26.2234 60.9348C26.1577 61.0303 26.1111 61.1376 26.0861 61.2507L22.8794 75.7575C22.8277 75.9913 22.8715 76.2359 23.0011 76.4376C23.1306 76.6393 23.3354 76.7815 23.5704 76.8329C23.8053 76.8844 24.0511 76.8408 24.2538 76.7118C24.4564 76.5829 24.5993 76.3791 24.651 76.1453L27.8196 61.8096L33.3934 53.7006C33.4314 53.645 33.4631 53.5853 33.4878 53.5226C35.6834 52.2756 37.7808 50.8646 39.762 49.3018C39.9755 49.4974 40.1891 49.6883 40.4025 49.8757L35.0245 56.2205C34.9474 56.3116 34.8891 56.417 34.853 56.5306C34.8169 56.6442 34.8038 56.7638 34.8144 56.8824L36.5634 76.3214C36.5835 76.5458 36.6873 76.7546 36.8543 76.9067C37.0213 77.0588 37.2394 77.1433 37.4657 77.1435C37.4926 77.1435 37.5201 77.1423 37.5476 77.1399C37.7872 77.1185 38.0084 77.0034 38.1627 76.8197C38.3169 76.636 38.3915 76.3989 38.37 76.1605L36.6547 57.0957L41.7919 51.0347C42.7464 51.7972 43.7468 52.5009 44.7876 53.1419C44.7994 53.1499 44.8104 53.1586 44.8228 53.1661C44.8298 53.1705 44.8379 53.1734 44.8444 53.1774C45.527 53.5937 46.2304 53.9752 46.9517 54.3207L42.6644 58.4765C42.5527 58.5848 42.4709 58.7201 42.427 58.8691C42.3831 59.0181 42.3785 59.1759 42.4138 59.3272L46.2037 75.5749C46.2581 75.808 46.4034 76.0102 46.6075 76.1368C46.8116 76.2634 47.058 76.3041 47.2923 76.25C47.5266 76.1958 47.7297 76.0513 47.8569 75.8481C47.9841 75.6449 48.025 75.3998 47.9706 75.1666L44.2962 59.4135L48.764 55.0829L48.7773 55.0878C51.3538 56.019 53.8861 56.2977 56.3034 55.9152C57.3713 55.7467 58.4142 55.4477 59.4086 55.025C59.2516 55.7689 59.2634 56.5383 59.443 57.2771C59.6227 58.0159 59.9657 58.7055 60.4471 59.2957C60.9285 59.8858 61.5361 60.3617 62.2256 60.6885C62.9152 61.0154 63.6694 61.185 64.4331 61.1851V61.1857ZM67.7534 56.0761C67.7534 56.7297 67.5587 57.3687 67.1939 57.9121C66.829 58.4556 66.3105 58.8791 65.7037 59.1293C65.097 59.3794 64.4294 59.4449 63.7853 59.3174C63.1411 59.1899 62.5495 58.8751 62.0851 58.413C61.6207 57.9508 61.3045 57.362 61.1764 56.7209C61.0483 56.0799 61.114 55.4155 61.3654 54.8116C61.6167 54.2078 62.0423 53.6917 62.5884 53.3286C63.1344 52.9655 63.7764 52.7717 64.4331 52.7717C65.3134 52.7728 66.1573 53.1212 66.7798 53.7407C67.4022 54.3602 67.7524 55.2001 67.7534 56.0761ZM19.4083 3.44601C19.6723 3.44601 19.9432 3.45579 20.2193 3.477C24.5734 3.80929 28.9538 6.70304 33.2396 12.0779C33.6931 12.7309 43.4054 26.8129 45.9604 36.7002L16.6 3.82779C17.5144 3.57471 18.4591 3.44628 19.4083 3.44601ZM12.6822 5.85193C12.6951 5.84125 12.7099 5.82816 12.7221 5.81688C13.3468 5.29162 14.039 4.85152 14.7804 4.50817L43.7894 36.9866L42.5866 36.2916C42.5759 36.2856 42.5653 36.2797 42.5546 36.274C37.2041 33.395 32.0083 30.24 26.9883 26.8218C18.9296 21.2804 13.7622 16.4236 11.7832 12.5728C11.7669 12.5354 11.7482 12.499 11.727 12.4641C11.2955 11.6494 11.014 10.7645 10.8957 9.85117C10.733 8.28688 11.3175 6.97862 12.6828 5.85193H12.6822ZM4.68047 24.3629C3.56923 22.6944 3.27374 21.1676 3.77661 19.6955C4.80622 16.6822 8.88947 14.7348 10.5426 14.0554C12.9018 18.1036 18.0634 22.8794 25.9708 28.3159C31.0409 31.767 36.2881 34.9531 41.6912 37.8612L43.4233 38.8619C41.7459 38.7706 40.0646 38.7706 38.3871 38.8619C38.3708 38.8585 38.3546 38.8543 38.3378 38.8517C25.0155 36.7894 16.5666 32.9514 11.8248 30.0954C6.88767 27.1209 4.84023 24.568 4.68047 24.3629ZM39.2026 47.418C39.1627 47.4528 35.1462 50.923 29.0986 53.7734C24.0157 56.17 16.5174 58.5525 8.66683 57.0282L36.3069 40.8464C37.3138 40.7293 42.5118 40.2081 47.9108 41.1949C49.704 41.5066 51.4579 42.0109 53.1418 42.6992L52.6059 42.8734C50.6221 43.5191 48.9314 44.8419 47.8326 46.608L45.0177 51.1382C43.379 50.0471 41.8426 48.8112 40.427 47.4454C40.2632 47.2892 40.0466 47.1997 39.8197 47.1946C39.5929 47.1895 39.3724 47.2693 39.2018 47.418H39.2026ZM55.9172 54.1486C52.9725 54.5872 49.8108 53.876 46.5665 52.0763L49.3751 47.5576C50.2484 46.154 51.5922 45.1027 53.1689 44.5896L55.4278 43.8555C58.5252 45.7325 60.477 48.3984 61.2533 51.8335C59.713 53.0635 57.871 53.8626 55.9172 54.1486Z"/>
</mask>
<path d="M64.4331 61.1857C65.0809 61.1859 65.7229 61.0634 66.3246 60.8246L68.699 66.4355C68.7449 66.5452 68.8122 66.6447 68.8969 66.7284C68.9816 66.8121 69.082 66.8783 69.1925 66.9233C69.3029 66.9683 69.4212 66.9911 69.5406 66.9905C69.6599 66.9899 69.7779 66.9658 69.8879 66.9197C69.9979 66.8736 70.0977 66.8064 70.1815 66.7218C70.2653 66.6373 70.3315 66.5371 70.3764 66.427C70.4212 66.3169 70.4438 66.1991 70.4428 66.0804C70.4418 65.9616 70.4172 65.8442 70.3705 65.7349L67.8831 59.8564C68.7452 59.0778 69.3158 58.0307 69.5011 56.8868C69.6864 55.743 69.4755 54.5705 68.903 53.5617C68.3304 52.5529 67.4303 51.7678 66.3503 51.3353C65.2703 50.9028 64.0747 50.8485 62.9596 51.1814C62.0118 47.3022 59.6805 44.2639 56.0851 42.1661C56.0188 42.1141 55.9456 42.0716 55.8675 42.0397C53.7612 40.8498 51.2343 39.9743 48.3089 39.4331C47.2463 29.0504 35.2346 11.7697 34.7129 11.0239C34.7021 11.0088 34.6908 10.9938 34.6792 10.9788C30.0474 5.16178 25.2151 2.0308 20.3162 1.67309C15.1615 1.29792 11.8408 4.17408 11.5064 4.47779C9.67755 5.99499 8.86559 7.86524 9.09201 10.0375C9.18824 10.8625 9.40305 11.6694 9.72985 12.4335C7.76675 13.2494 3.31183 15.4571 2.06093 19.1099C1.36958 21.1282 1.74836 23.2402 3.18653 25.3871C3.19454 25.3992 3.203 25.4113 3.21192 25.423C3.29807 25.539 5.38421 28.3014 10.7586 31.5624C15.1778 34.2439 22.7116 37.7533 34.226 39.9703L5.81362 56.6038C5.66081 56.6933 5.53769 56.8254 5.45949 56.9837C5.3813 57.142 5.35145 57.3197 5.37364 57.4948C5.39584 57.6698 5.4691 57.8346 5.58436 57.9686C5.69963 58.1027 5.85185 58.2002 6.0222 58.249C8.53888 58.963 11.1441 59.3206 13.761 59.3114C18.9151 59.3114 24.3715 57.999 29.8746 55.4049C29.9493 55.3697 30.0226 55.3342 30.0967 55.2996L26.2234 60.9348C26.1577 61.0303 26.1111 61.1376 26.0861 61.2507L22.8794 75.7575C22.8277 75.9913 22.8715 76.2359 23.0011 76.4376C23.1306 76.6393 23.3354 76.7815 23.5704 76.8329C23.8053 76.8844 24.0511 76.8408 24.2538 76.7118C24.4564 76.5829 24.5993 76.3791 24.651 76.1453L27.8196 61.8096L33.3934 53.7006C33.4314 53.645 33.4631 53.5853 33.4878 53.5226C35.6834 52.2756 37.7808 50.8646 39.762 49.3018C39.9755 49.4974 40.1891 49.6883 40.4025 49.8757L35.0245 56.2205C34.9474 56.3116 34.8891 56.417 34.853 56.5306C34.8169 56.6442 34.8038 56.7638 34.8144 56.8824L36.5634 76.3214C36.5835 76.5458 36.6873 76.7546 36.8543 76.9067C37.0213 77.0588 37.2394 77.1433 37.4657 77.1435C37.4926 77.1435 37.5201 77.1423 37.5476 77.1399C37.7872 77.1185 38.0084 77.0034 38.1627 76.8197C38.3169 76.636 38.3915 76.3989 38.37 76.1605L36.6547 57.0957L41.7919 51.0347C42.7464 51.7972 43.7468 52.5009 44.7876 53.1419C44.7994 53.1499 44.8104 53.1586 44.8228 53.1661C44.8298 53.1705 44.8379 53.1734 44.8444 53.1774C45.527 53.5937 46.2304 53.9752 46.9517 54.3207L42.6644 58.4765C42.5527 58.5848 42.4709 58.7201 42.427 58.8691C42.3831 59.0181 42.3785 59.1759 42.4138 59.3272L46.2037 75.5749C46.2581 75.808 46.4034 76.0102 46.6075 76.1368C46.8116 76.2634 47.058 76.3041 47.2923 76.25C47.5266 76.1958 47.7297 76.0513 47.8569 75.8481C47.9841 75.6449 48.025 75.3998 47.9706 75.1666L44.2962 59.4135L48.764 55.0829L48.7773 55.0878C51.3538 56.019 53.8861 56.2977 56.3034 55.9152C57.3713 55.7467 58.4142 55.4477 59.4086 55.025C59.2516 55.7689 59.2634 56.5383 59.443 57.2771C59.6227 58.0159 59.9657 58.7055 60.4471 59.2957C60.9285 59.8858 61.5361 60.3617 62.2256 60.6885C62.9152 61.0154 63.6694 61.185 64.4331 61.1851V61.1857ZM67.7534 56.0761C67.7534 56.7297 67.5587 57.3687 67.1939 57.9121C66.829 58.4556 66.3105 58.8791 65.7037 59.1293C65.097 59.3794 64.4294 59.4449 63.7853 59.3174C63.1411 59.1899 62.5495 58.8751 62.0851 58.413C61.6207 57.9508 61.3045 57.362 61.1764 56.7209C61.0483 56.0799 61.114 55.4155 61.3654 54.8116C61.6167 54.2078 62.0423 53.6917 62.5884 53.3286C63.1344 52.9655 63.7764 52.7717 64.4331 52.7717C65.3134 52.7728 66.1573 53.1212 66.7798 53.7407C67.4022 54.3602 67.7524 55.2001 67.7534 56.0761ZM19.4083 3.44601C19.6723 3.44601 19.9432 3.45579 20.2193 3.477C24.5734 3.80929 28.9538 6.70304 33.2396 12.0779C33.6931 12.7309 43.4054 26.8129 45.9604 36.7002L16.6 3.82779C17.5144 3.57471 18.4591 3.44628 19.4083 3.44601ZM12.6822 5.85193C12.6951 5.84125 12.7099 5.82816 12.7221 5.81688C13.3468 5.29162 14.039 4.85152 14.7804 4.50817L43.7894 36.9866L42.5866 36.2916C42.5759 36.2856 42.5653 36.2797 42.5546 36.274C37.2041 33.395 32.0083 30.24 26.9883 26.8218C18.9296 21.2804 13.7622 16.4236 11.7832 12.5728C11.7669 12.5354 11.7482 12.499 11.727 12.4641C11.2955 11.6494 11.014 10.7645 10.8957 9.85117C10.733 8.28688 11.3175 6.97862 12.6828 5.85193H12.6822ZM4.68047 24.3629C3.56923 22.6944 3.27374 21.1676 3.77661 19.6955C4.80622 16.6822 8.88947 14.7348 10.5426 14.0554C12.9018 18.1036 18.0634 22.8794 25.9708 28.3159C31.0409 31.767 36.2881 34.9531 41.6912 37.8612L43.4233 38.8619C41.7459 38.7706 40.0646 38.7706 38.3871 38.8619C38.3708 38.8585 38.3546 38.8543 38.3378 38.8517C25.0155 36.7894 16.5666 32.9514 11.8248 30.0954C6.88767 27.1209 4.84023 24.568 4.68047 24.3629ZM39.2026 47.418C39.1627 47.4528 35.1462 50.923 29.0986 53.7734C24.0157 56.17 16.5174 58.5525 8.66683 57.0282L36.3069 40.8464C37.3138 40.7293 42.5118 40.2081 47.9108 41.1949C49.704 41.5066 51.4579 42.0109 53.1418 42.6992L52.6059 42.8734C50.6221 43.5191 48.9314 44.8419 47.8326 46.608L45.0177 51.1382C43.379 50.0471 41.8426 48.8112 40.427 47.4454C40.2632 47.2892 40.0466 47.1997 39.8197 47.1946C39.5929 47.1895 39.3724 47.2693 39.2018 47.418H39.2026ZM55.9172 54.1486C52.9725 54.5872 49.8108 53.876 46.5665 52.0763L49.3751 47.5576C50.2484 46.154 51.5922 45.1027 53.1689 44.5896L55.4278 43.8555C58.5252 45.7325 60.477 48.3984 61.2533 51.8335C59.713 53.0635 57.871 53.8626 55.9172 54.1486Z" fill="#E59E16"/>
<path d="M64.4331 61.1857C65.0809 61.1859 65.7229 61.0634 66.3246 60.8246L68.699 66.4355C68.7449 66.5452 68.8122 66.6447 68.8969 66.7284C68.9816 66.8121 69.082 66.8783 69.1925 66.9233C69.3029 66.9683 69.4212 66.9911 69.5406 66.9905C69.6599 66.9899 69.7779 66.9658 69.8879 66.9197C69.9979 66.8736 70.0977 66.8064 70.1815 66.7218C70.2653 66.6373 70.3315 66.5371 70.3764 66.427C70.4212 66.3169 70.4438 66.1991 70.4428 66.0804C70.4418 65.9616 70.4172 65.8442 70.3705 65.7349L67.8831 59.8564C68.7452 59.0778 69.3158 58.0307 69.5011 56.8868C69.6864 55.743 69.4755 54.5705 68.903 53.5617C68.3304 52.5529 67.4303 51.7678 66.3503 51.3353C65.2703 50.9028 64.0747 50.8485 62.9596 51.1814C62.0118 47.3022 59.6805 44.2639 56.0851 42.1661C56.0188 42.1141 55.9456 42.0716 55.8675 42.0397C53.7612 40.8498 51.2343 39.9743 48.3089 39.4331C47.2463 29.0504 35.2346 11.7697 34.7129 11.0239C34.7021 11.0088 34.6908 10.9938 34.6792 10.9788C30.0474 5.16178 25.2151 2.0308 20.3162 1.67309C15.1615 1.29792 11.8408 4.17408 11.5064 4.47779C9.67755 5.99499 8.86559 7.86524 9.09201 10.0375C9.18824 10.8625 9.40305 11.6694 9.72985 12.4335C7.76675 13.2494 3.31183 15.4571 2.06093 19.1099C1.36958 21.1282 1.74836 23.2402 3.18653 25.3871C3.19454 25.3992 3.203 25.4113 3.21192 25.423C3.29807 25.539 5.38421 28.3014 10.7586 31.5624C15.1778 34.2439 22.7116 37.7533 34.226 39.9703L5.81362 56.6038C5.66081 56.6933 5.53769 56.8254 5.45949 56.9837C5.3813 57.142 5.35145 57.3197 5.37364 57.4948C5.39584 57.6698 5.4691 57.8346 5.58436 57.9686C5.69963 58.1027 5.85185 58.2002 6.0222 58.249C8.53888 58.963 11.1441 59.3206 13.761 59.3114C18.9151 59.3114 24.3715 57.999 29.8746 55.4049C29.9493 55.3697 30.0226 55.3342 30.0967 55.2996L26.2234 60.9348C26.1577 61.0303 26.1111 61.1376 26.0861 61.2507L22.8794 75.7575C22.8277 75.9913 22.8715 76.2359 23.0011 76.4376C23.1306 76.6393 23.3354 76.7815 23.5704 76.8329C23.8053 76.8844 24.0511 76.8408 24.2538 76.7118C24.4564 76.5829 24.5993 76.3791 24.651 76.1453L27.8196 61.8096L33.3934 53.7006C33.4314 53.645 33.4631 53.5853 33.4878 53.5226C35.6834 52.2756 37.7808 50.8646 39.762 49.3018C39.9755 49.4974 40.1891 49.6883 40.4025 49.8757L35.0245 56.2205C34.9474 56.3116 34.8891 56.417 34.853 56.5306C34.8169 56.6442 34.8038 56.7638 34.8144 56.8824L36.5634 76.3214C36.5835 76.5458 36.6873 76.7546 36.8543 76.9067C37.0213 77.0588 37.2394 77.1433 37.4657 77.1435C37.4926 77.1435 37.5201 77.1423 37.5476 77.1399C37.7872 77.1185 38.0084 77.0034 38.1627 76.8197C38.3169 76.636 38.3915 76.3989 38.37 76.1605L36.6547 57.0957L41.7919 51.0347C42.7464 51.7972 43.7468 52.5009 44.7876 53.1419C44.7994 53.1499 44.8104 53.1586 44.8228 53.1661C44.8298 53.1705 44.8379 53.1734 44.8444 53.1774C45.527 53.5937 46.2304 53.9752 46.9517 54.3207L42.6644 58.4765C42.5527 58.5848 42.4709 58.7201 42.427 58.8691C42.3831 59.0181 42.3785 59.1759 42.4138 59.3272L46.2037 75.5749C46.2581 75.808 46.4034 76.0102 46.6075 76.1368C46.8116 76.2634 47.058 76.3041 47.2923 76.25C47.5266 76.1958 47.7297 76.0513 47.8569 75.8481C47.9841 75.6449 48.025 75.3998 47.9706 75.1666L44.2962 59.4135L48.764 55.0829L48.7773 55.0878C51.3538 56.019 53.8861 56.2977 56.3034 55.9152C57.3713 55.7467 58.4142 55.4477 59.4086 55.025C59.2516 55.7689 59.2634 56.5383 59.443 57.2771C59.6227 58.0159 59.9657 58.7055 60.4471 59.2957C60.9285 59.8858 61.5361 60.3617 62.2256 60.6885C62.9152 61.0154 63.6694 61.185 64.4331 61.1851V61.1857ZM67.7534 56.0761C67.7534 56.7297 67.5587 57.3687 67.1939 57.9121C66.829 58.4556 66.3105 58.8791 65.7037 59.1293C65.097 59.3794 64.4294 59.4449 63.7853 59.3174C63.1411 59.1899 62.5495 58.8751 62.0851 58.413C61.6207 57.9508 61.3045 57.362 61.1764 56.7209C61.0483 56.0799 61.114 55.4155 61.3654 54.8116C61.6167 54.2078 62.0423 53.6917 62.5884 53.3286C63.1344 52.9655 63.7764 52.7717 64.4331 52.7717C65.3134 52.7728 66.1573 53.1212 66.7798 53.7407C67.4022 54.3602 67.7524 55.2001 67.7534 56.0761ZM19.4083 3.44601C19.6723 3.44601 19.9432 3.45579 20.2193 3.477C24.5734 3.80929 28.9538 6.70304 33.2396 12.0779C33.6931 12.7309 43.4054 26.8129 45.9604 36.7002L16.6 3.82779C17.5144 3.57471 18.4591 3.44628 19.4083 3.44601ZM12.6822 5.85193C12.6951 5.84125 12.7099 5.82816 12.7221 5.81688C13.3468 5.29162 14.039 4.85152 14.7804 4.50817L43.7894 36.9866L42.5866 36.2916C42.5759 36.2856 42.5653 36.2797 42.5546 36.274C37.2041 33.395 32.0083 30.24 26.9883 26.8218C18.9296 21.2804 13.7622 16.4236 11.7832 12.5728C11.7669 12.5354 11.7482 12.499 11.727 12.4641C11.2955 11.6494 11.014 10.7645 10.8957 9.85117C10.733 8.28688 11.3175 6.97862 12.6828 5.85193H12.6822ZM4.68047 24.3629C3.56923 22.6944 3.27374 21.1676 3.77661 19.6955C4.80622 16.6822 8.88947 14.7348 10.5426 14.0554C12.9018 18.1036 18.0634 22.8794 25.9708 28.3159C31.0409 31.767 36.2881 34.9531 41.6912 37.8612L43.4233 38.8619C41.7459 38.7706 40.0646 38.7706 38.3871 38.8619C38.3708 38.8585 38.3546 38.8543 38.3378 38.8517C25.0155 36.7894 16.5666 32.9514 11.8248 30.0954C6.88767 27.1209 4.84023 24.568 4.68047 24.3629ZM39.2026 47.418C39.1627 47.4528 35.1462 50.923 29.0986 53.7734C24.0157 56.17 16.5174 58.5525 8.66683 57.0282L36.3069 40.8464C37.3138 40.7293 42.5118 40.2081 47.9108 41.1949C49.704 41.5066 51.4579 42.0109 53.1418 42.6992L52.6059 42.8734C50.6221 43.5191 48.9314 44.8419 47.8326 46.608L45.0177 51.1382C43.379 50.0471 41.8426 48.8112 40.427 47.4454C40.2632 47.2892 40.0466 47.1997 39.8197 47.1946C39.5929 47.1895 39.3724 47.2693 39.2018 47.418H39.2026ZM55.9172 54.1486C52.9725 54.5872 49.8108 53.876 46.5665 52.0763L49.3751 47.5576C50.2484 46.154 51.5922 45.1027 53.1689 44.5896L55.4278 43.8555C58.5252 45.7325 60.477 48.3984 61.2533 51.8335C59.713 53.0635 57.871 53.8626 55.9172 54.1486Z" stroke="#E59E16" stroke-width="2" mask="url(#path-2-outside-1)"/>
</svg>
