<svg width="83" height="87" viewBox="0 0 83 87" fill="none" xmlns="http://www.w3.org/2000/svg">
<path d="M51.4137 4.00287L32.6753 4.93467C32.6453 4.93616 32.616 4.9444 32.5896 4.95878L18.4782 12.6443C18.4512 12.659 18.428 12.6797 18.4103 12.7048L4.04352 33.1004C4.01547 33.1402 4.00292 33.1889 4.00821 33.2373L5.95187 51.0288C5.95562 51.0631 5.96817 51.0958 5.98832 51.1238L11.0724 58.1921C11.0881 58.2139 11.0993 58.2388 11.1052 58.2651L15.3557 77.2138C15.37 77.2774 15.4144 77.3301 15.4747 77.3549L26.7092 81.9803C26.7405 81.9932 26.7746 81.998 26.8083 81.9941L52.0347 79.0777C52.0666 79.074 52.0971 79.0627 52.1237 79.0447L62.4829 72.045L78.7774 71.4674C78.8962 71.4631 78.9852 71.3567 78.9682 71.239L78.0309 64.7338C78.0246 64.6903 78.0042 64.65 77.9727 64.6193L72.1934 58.9718C72.1641 58.9432 72.1443 58.9064 72.1367 58.8663L70.8827 52.2972C70.8625 52.1915 70.9296 52.0888 71.0345 52.0647L78.6026 50.3306C78.7646 50.2935 78.8132 50.0864 78.6847 49.981L68.6003 41.7117L77.8459 40.5623C77.946 40.5499 78.0212 40.4648 78.0212 40.3639V38.165C78.0212 38.1113 77.9996 38.0599 77.9613 38.0223L68.6003 28.8288L72.4507 26.6608C72.5865 26.5843 72.5865 26.3887 72.4507 26.3122L68.6585 24.1769C68.6207 24.1556 68.5909 24.1227 68.5735 24.083L62.5097 10.2683C62.4923 10.2286 62.4625 10.1957 62.4248 10.1744L51.5218 4.0284C51.4889 4.00985 51.4514 4.001 51.4137 4.00287Z" fill="#F9B22A"/>
<path d="M68.6003 28.8288L72.4507 26.6608C72.5865 26.5843 72.5865 26.3887 72.4507 26.3122L68.6585 24.1769C68.6207 24.1556 68.5909 24.1227 68.5735 24.083L62.5097 10.2683C62.4923 10.2286 62.4625 10.1957 62.4248 10.1744L51.5218 4.0284C51.4889 4.00985 51.4514 4.001 51.4137 4.00287L32.6753 4.93467C32.6453 4.93616 32.616 4.9444 32.5896 4.95878L18.4782 12.6443C18.4512 12.659 18.428 12.6797 18.4103 12.7048L4.04352 33.1004C4.01547 33.1402 4.00292 33.1889 4.00821 33.2373L5.95187 51.0288C5.95562 51.0631 5.96817 51.0958 5.98832 51.1238L11.0724 58.1921C11.0881 58.2139 11.0993 58.2388 11.1052 58.2651L15.3557 77.2138C15.37 77.2774 15.4144 77.3301 15.4747 77.3549L26.7092 81.9803C26.7405 81.9932 26.7746 81.998 26.8083 81.9941L52.0347 79.0777C52.0666 79.074 52.0971 79.0627 52.1237 79.0447L62.4829 72.045M68.6003 28.8288L62.5309 26.5049C62.4994 26.4928 62.4653 26.4889 62.4319 26.4936L54.0408 27.6577M68.6003 28.8288L77.9613 38.0223C77.9996 38.0599 78.0212 38.1113 78.0212 38.165V40.3639C78.0212 40.4648 77.946 40.5499 77.8459 40.5623L68.6003 41.7117M68.6003 41.7117V39.3694M68.6003 41.7117L78.6847 49.981C78.8132 50.0864 78.7646 50.2935 78.6026 50.3306L71.0345 52.0647C70.9296 52.0888 70.8625 52.1915 70.8827 52.2972L72.1367 58.8663C72.1443 58.9064 72.1641 58.9432 72.1934 58.9718L77.9727 64.6193C78.0042 64.65 78.0246 64.6903 78.0309 64.7338L78.9682 71.239C78.9852 71.3567 78.8962 71.4631 78.7774 71.4674L62.4829 72.045M62.4829 72.045L47.6786 68.5315" stroke="#F9B22A" stroke-width="6"/>
<path d="M70.1982 27.5796L74.1679 25.2445C74.2994 25.1671 74.2994 24.977 74.1679 24.8997L70.2554 22.5982C70.2183 22.5764 70.1892 22.5431 70.1725 22.5033L63.955 7.70564C63.9384 7.66619 63.9096 7.63309 63.8728 7.61122L55.3258 2.5281C55.2949 2.50971 55.2595 2.5 55.2236 2.5H27.3818C27.3414 2.5 27.302 2.51223 27.2687 2.53508L15.6902 10.4792C15.6702 10.4929 15.6528 10.5102 15.639 10.5302L2.54578 29.4339C2.5164 29.4763 2.50455 29.5284 2.51271 29.5794L5.99887 51.3563C6.00357 51.3857 6.01476 51.4136 6.03162 51.4381L11.2493 59.0161C11.2641 59.0377 11.2746 59.062 11.2801 59.0876L15.6382 79.384C15.6518 79.4474 15.6953 79.5002 15.7548 79.5258L27.2703 84.4787C27.3027 84.4927 27.3383 84.4978 27.3733 84.4935L53.2224 81.3717C53.2553 81.3677 53.2867 81.3556 53.3138 81.3365L63.9294 73.8431M70.1982 27.5796L63.9652 25.0864C63.9416 25.0769 63.9164 25.0721 63.8909 25.0721H53.5M70.1982 27.5796L79.7953 37.426C79.8317 37.4633 79.8521 37.5134 79.8521 37.5656V39.9414C79.8521 40.0419 79.7775 40.1268 79.6779 40.1397L70.4126 41.343C70.297 41.358 70.1931 41.2714 70.1871 41.1549L70 37.5M63.9294 73.8431L47.5 70.5M63.9294 73.8431L80.6342 73.2244C80.7524 73.22 80.8411 73.1145 80.8249 72.9972L79.862 66.0159C79.8556 65.9697 79.8333 65.9272 79.7989 65.8957L75 61.5" stroke="#E59E16" stroke-width="4"/>
<path d="M75.2898 45L81.1169 50.2939C81.2522 50.4168 81.1653 50.6419 80.9824 50.6419H75.3295C75.3033 50.6419 75.2773 50.647 75.2531 50.657L63.7919 55.391C63.7677 55.401 63.7418 55.4062 63.7156 55.4062H62.2505C62.1222 55.4062 62.027 55.287 62.0554 55.1619L63 51L61 58" stroke="#E59E16" stroke-width="3"/>
<path d="M74.2103 51.5264L74 55.0001L70.5 56.5001" stroke="#E59E16" stroke-width="4"/>
<path d="M16.1611 20.6838H20.7364C20.7778 20.6838 20.8182 20.6967 20.8519 20.7206L28.8974 26.4143C28.9312 26.4382 28.9568 26.4721 28.9705 26.5113L31.4306 33.5226C31.4475 33.5707 31.4454 33.6234 31.4247 33.67L30.5549 35.6271C30.503 35.7438 30.3565 35.7827 30.2536 35.707L26.1912 32.7199" stroke="#E59E16" stroke-width="3"/>
<path d="M23.9346 36.732L21.5099 34.671C21.4583 34.6271 21.3879 34.6123 21.3229 34.6318L17.794 35.6905C17.7165 35.7138 17.6606 35.7816 17.6525 35.8622L16.9255 43.1321C16.9182 43.2056 16.9519 43.2771 17.0133 43.3182L28.3388 50.8922C28.4286 50.9523 28.5499 50.9301 28.6127 50.8422L31 47.5" stroke="#E59E16" stroke-width="4"/>
<path d="M60 30C62 30.1667 66.2 30.5 67 30.5V30V31.5L64 30.5" stroke="#E59E16"/>
</svg>
