<svg width="94" height="94" viewBox="0 0 94 94" fill="none" xmlns="http://www.w3.org/2000/svg">
<g clip-path="url(#clip0)">
<path d="M35.283 37.5L43.4906 31H49.5094L57.717 37.5L61 35V42L57.1698 45L57.717 94H33.0943L35.283 45L32 42V35L35.283 37.5Z" fill="#F9B22A"/>
<mask id="mask0" mask-type="alpha" maskUnits="userSpaceOnUse" x="32" y="31" width="29" height="63">
<path d="M35.2646 37.5729L43.4263 31.0813H49.4115L57.5731 37.5729L60.8377 35.0761V42.0671L57.029 45.0632L57.5731 94H33.0882L35.2646 45.0632L32 42.0671V35.0761L35.2646 37.5729Z" fill="#F9B22A"/>
</mask>
<g mask="url(#mask0)">
<path d="M56.7298 45.0632C45.1081 46.8109 33.4848 45.0632 33.1353 45.0632C31.5332 44.0436 28.0668 41.8298 27.0182 41.1307C25.9695 40.4317 28.329 35.8875 29.6398 33.7028L34.0091 36.7614L39.6893 29.3335L49.7388 30.2074L57.1667 37.6353L61.0991 34.5767C61.2447 36.907 61.4487 41.7425 61.0991 42.4416C60.7496 43.1406 58.0406 44.4806 56.7298 45.0632Z" fill="#E59E16"/>
</g>
<path d="M43 51L42 92" stroke="#E59E16" stroke-width="4" stroke-linecap="round"/>
<path d="M51 51V92" stroke="#E59E16" stroke-width="4" stroke-linecap="round"/>
<path d="M44 30.4091L47 5L50 31H44V30.4091Z" fill="#F9B22A"/>
<path d="M46.5 0L47.9593 4.83688H52.6819L48.8613 7.82624L50.3206 12.6631L46.5 9.67376L42.6794 12.6631L44.1387 7.82624L40.3181 4.83688H45.0407L46.5 0Z" fill="#E59E16"/>
<path d="M38 38L41 41L44 38L47 41L50.6 38L53 41L56 38.6" stroke="#F9B22A" stroke-width="3"/>
<path d="M65 93.4643C65 93.4643 61.6887 91.7148 59.2886 90.9389C54.3491 89.342 50.6717 89 45.5 89C40.3283 89 36.6509 89.342 31.7114 90.9389C29.3113 91.7148 26 93.4643 26 93.4643C26 93.4643 37.8787 94 45.5 94C53.1213 94 65 93.4643 65 93.4643Z" fill="#F9B22A"/>
</g>
<defs>
<clipPath id="clip0">
<rect width="93.3197" height="93.3197" fill="white" transform="translate(0 0.49585)"/>
</clipPath>
</defs>
</svg>
