<svg width="52" height="98" viewBox="0 0 52 98" fill="none" xmlns="http://www.w3.org/2000/svg">
<path fill-rule="evenodd" clip-rule="evenodd" d="M49.6409 1.68917C50.7199 2.7741 51.3255 4.242 51.3255 5.7721C51.3255 7.3022 50.7199 8.7701 49.6409 9.85502L29.9059 29.579C28.7604 30.6655 27.2416 31.2712 25.6628 31.2712C24.0839 31.2712 22.5651 30.6655 21.4196 29.579L1.68459 9.85502C0.605635 8.7701 0 7.3022 0 5.7721C0 4.242 0.605635 2.7741 1.68459 1.68917C2.76809 0.607529 4.23652 0 5.76751 0C7.2985 0 8.76694 0.607529 9.85044 1.68917L25.6628 17.5015L41.4751 1.68917C42.5586 0.607529 44.027 0 45.558 0C47.089 0 48.5574 0.607529 49.6409 1.68917Z" fill="#F9B22A"/>
<path fill-rule="evenodd" clip-rule="evenodd" d="M49.6413 35.5796C50.7176 36.6659 51.3213 38.1333 51.3213 39.6625C51.3213 41.1917 50.7176 42.6591 49.6413 43.7455L29.9063 63.4804C28.757 64.5596 27.2396 65.1602 25.6631 65.1602C24.0866 65.1602 22.5693 64.5596 21.4199 63.4804L1.68495 43.7455C0.608676 42.6591 0.00488281 41.1917 0.00488281 39.6625C0.00488281 38.1333 0.608676 36.6659 1.68495 35.5796C2.77129 34.5033 4.23866 33.8995 5.76788 33.8995C7.29709 33.8995 8.76446 34.5033 9.8508 35.5796L25.6631 51.414L41.4754 35.6017C42.5618 34.5255 44.0291 33.9217 45.5584 33.9217C47.0876 33.9217 48.5549 34.5255 49.6413 35.6017" fill="#F9B22A"/>
<path fill-rule="evenodd" clip-rule="evenodd" d="M49.6413 68.4193C50.7176 69.5057 51.3213 70.973 51.3213 72.5023C51.3213 74.0315 50.7176 75.4988 49.6413 76.5852L29.9063 96.3202C28.757 97.3993 27.2396 98 25.6631 98C24.0866 98 22.5693 97.3993 21.4199 96.3202L1.68495 76.5852C0.608676 75.4988 0.00488281 74.0315 0.00488281 72.5023C0.00488281 70.973 0.608676 69.5057 1.68495 68.4193C2.77129 67.3431 4.23866 66.7393 5.76788 66.7393C7.29709 66.7393 8.76446 67.3431 9.8508 68.4193L25.6631 84.2316L41.4754 68.4193C42.5618 67.3431 44.0291 66.7393 45.5584 66.7393C47.0876 66.7393 48.5549 67.3431 49.6413 68.4193Z" fill="#F9B22A"/>
</svg>
