<svg width="60" height="60" viewBox="0 0 60 60" fill="none" xmlns="http://www.w3.org/2000/svg">
<path d="M33.4375 1H27.1875C22.6307 1.00508 18.262 2.78785 15.0398 5.95719C11.8176 9.12653 10.0052 13.4236 10 17.9057V42.4959C10.005 46.598 11.524 50.5588 14.2747 53.6421C17.0254 56.7254 20.8206 58.7215 24.9551 59.2595C25.1605 59.3539 25.3846 59.4025 25.6113 59.4016H33.4375C37.9943 59.3966 42.363 57.6138 45.5852 54.4445C48.8074 51.2751 50.6198 46.978 50.625 42.4959V17.9057C50.6198 13.4236 48.8074 9.12653 45.5852 5.95719C42.363 2.78785 37.9943 1.00508 33.4375 1ZM47.5 42.4959C47.4957 46.1631 46.0127 49.6788 43.3764 52.2719C40.7401 54.865 37.1658 56.3237 33.4375 56.3279H27.1875C23.4592 56.3237 19.8849 54.865 17.2486 52.2719C14.6122 49.6788 13.1293 46.1631 13.125 42.4959V28.6639H47.5V42.4959ZM47.5 25.5902H13.125V17.9057C13.1293 14.2386 14.6122 10.7228 17.2486 8.12972C19.8849 5.53664 23.4592 4.07799 27.1875 4.07377H33.4375C37.1658 4.07799 40.7401 5.53664 43.3764 8.12972C46.0127 10.7228 47.4957 14.2386 47.5 17.9057V25.5902Z" fill="white"/>
<path d="M27.1875 22.5163H33.4375C33.8519 22.5163 34.2493 22.3544 34.5424 22.0662C34.8354 21.7779 35 21.387 35 20.9794V8.68435C35 8.27674 34.8354 7.88582 34.5424 7.5976C34.2493 7.30938 33.8519 7.14746 33.4375 7.14746H27.1875C26.7731 7.14746 26.3757 7.30938 26.0826 7.5976C25.7896 7.88582 25.625 8.27674 25.625 8.68435V20.9794C25.625 21.387 25.7896 21.7779 26.0826 22.0662C26.3757 22.3544 26.7731 22.5163 27.1875 22.5163ZM28.75 10.2212H31.875V19.4425H28.75V10.2212Z" fill="white"/>
<rect x="27" y="9" width="7" height="12.7869" fill="white"/>
</svg>
