<svg width="160" height="113" viewBox="0 0 160 113" fill="none" xmlns="http://www.w3.org/2000/svg">
<path opacity="0.5" fill-rule="evenodd" clip-rule="evenodd" d="M75.4635 73.9152L75.6099 73.7165V112.233H85.022V73.7165C85.7331 73.7165 85.1579 73.7165 85.3984 73.9361C86.1253 74.8995 86.9336 75.7987 87.8142 76.6238L90.3869 79.3951C90.6901 79.6984 90.9202 80.0017 91.2026 80.3259C92.8967 82.3233 95.4903 84.8018 97.2263 86.8411L98.9623 88.6712L104.097 83.4423C104.699 82.8783 105.262 82.2739 105.781 81.6331C105.258 80.9743 104.735 80.5141 104.17 79.8762C101.807 77.1153 99.161 74.6473 96.7661 71.8864C95.9833 70.9349 95.1526 70.0239 94.2772 69.1569C93.085 68.0379 92.1856 66.8143 90.9934 65.6221C90.7023 65.3329 90.4298 65.0256 90.1777 64.7018L85.9945 60.2049C85.0952 59.1591 85.1056 59.5566 85.1056 57.6741V47.2058C86.0672 48.021 86.9432 48.9321 87.7201 49.9249C89.4038 51.8805 91.9764 54.3694 93.7438 56.4401C94.3085 57.0989 94.9046 57.6637 95.4694 58.3121L98.91 62.0246C99.5793 61.6481 105.185 55.7499 105.781 55.0911C105.333 54.4298 104.803 53.8287 104.202 53.3027L85.9632 33.5583C85.0638 32.6799 85.0952 32.6799 85.0952 31.0066C85.0952 27.545 84.9592 23.9998 85.0952 20.5487C85.4507 20.737 85.3252 20.6533 85.6076 20.9775L92.1438 27.9634C93.4615 29.3752 98.6172 35.0956 99.1819 35.3675C100.468 33.5269 104.871 29.9713 105.875 28.3921C105.199 27.464 104.424 26.6119 103.564 25.8508L101.211 23.2259C99.8931 21.8246 97.5505 19.1265 96.421 18.0911L89.2783 10.3314C88.9959 10.0072 88.7031 9.78759 88.4208 9.4634L86.8102 7.71692C86.5279 7.39273 86.3501 7.15221 86.0678 6.84893C84.7291 5.41621 83.3278 4.03577 82.0519 2.5403C81.5394 1.93627 80.9912 1.36353 80.41 0.825195C80.0649 1.01344 76.2269 5.23842 75.6413 5.86589C75.3589 6.17963 75.1811 6.42014 74.8883 6.73388L72.483 9.2856C70.9457 11.0948 69.1992 12.7158 67.6619 14.5145C65.905 16.6061 63.9389 18.499 62.0983 20.4964L58.961 23.9162C58.6786 24.2508 58.459 24.5332 58.1557 24.8574C57.8524 25.1816 57.6224 25.3489 57.3609 25.6626C56.5452 26.6038 55.6458 27.3777 54.9242 28.3817C55.2275 28.915 57.6956 31.2471 58.3021 31.8851C59.3838 33.1407 60.5736 34.299 61.8578 35.3466L66.9508 29.7935C67.5155 29.1346 68.1011 28.5699 68.6659 27.9111L72.0542 24.2194C72.3366 23.8952 72.6294 23.6652 72.9118 23.3514C73.1941 23.0377 73.4556 22.6612 73.7798 22.3057C74.3445 21.7514 74.9615 20.7893 75.6203 20.4755V30.8183C75.6203 32.8053 75.7249 32.3452 74.7628 33.4746L71.4895 37.0303C71.1967 37.3545 70.9143 37.5741 70.6319 37.8983C70.3496 38.2225 70.1195 38.5362 69.8267 38.8291L62.3702 46.9025C61.0212 48.4398 59.5152 49.8412 58.1871 51.3994C57.6328 52.0374 57.0681 52.5811 56.5243 53.2086C55.9423 53.773 55.4007 54.3776 54.9033 55.0178C55.5308 55.729 61.4604 61.8259 61.816 61.9618C62.8618 60.7174 64.1167 59.5461 65.1939 58.2807C66.5638 56.6702 68.1221 55.2479 69.492 53.6479C70.3391 52.6648 74.721 47.8333 75.589 47.1117C75.589 47.53 75.7668 58.3853 75.589 59.1069C75.1388 59.7664 74.62 60.3764 74.0412 60.9265C71.615 63.6874 68.9691 66.1555 66.5847 68.9791L54.9033 81.6017C55.4175 82.2241 55.9693 82.8143 56.5557 83.3691L61.7219 88.598C62.4121 88.0647 69.2515 80.5664 70.3182 79.416C71.3849 78.2657 74.7733 74.3126 75.5471 73.8525" fill="white"/>
<path opacity="0.5" fill-rule="evenodd" clip-rule="evenodd" d="M0.972168 54.8511L2.69771 56.5662C3.74349 57.6852 6.88085 61.3036 7.92664 61.7951C8.86785 60.467 12.4549 57.0054 13.8772 55.3426C15.2994 53.6798 16.7845 52.2053 18.2276 50.647C19.293 49.3364 20.4497 48.1028 21.6892 46.9554C21.867 49.8418 21.6892 55.4158 21.6892 58.5846C21.6892 59.4107 21.0931 59.6303 20.6434 60.1428L15.4145 65.8527C14.1491 67.2959 12.7059 68.6136 11.4614 70.0359L10.1332 71.4477C9.65219 71.9915 9.4012 72.2948 8.82602 72.87C8.25083 73.4452 8.03122 73.853 7.5397 74.3236L3.59709 78.58C3.15786 79.082 2.70817 79.4794 2.2794 79.9813C1.85063 80.4833 1.45323 80.8703 0.972168 81.3722C1.30682 82.0938 5.00889 85.5554 6.01285 86.6012C6.54852 87.2414 7.13997 87.8328 7.78023 88.3685C8.42668 87.8383 9.00927 87.2347 9.51624 86.5698L13.8144 81.9369C15.2053 80.316 16.7844 78.8623 18.1753 77.2309C19.2497 75.9182 20.4208 74.6877 21.6787 73.5497V112.244C24.0213 112.432 28.6959 112.307 31.2686 112.244V73.5811C31.6764 73.7903 35.7968 78.3081 36.4975 79.1029L42.5212 85.6181C43.3231 86.6117 44.197 87.5449 45.1357 88.4104C47.6351 86.2038 49.4443 83.7253 51.9856 81.5605C51.4941 80.5879 47.8025 76.9381 46.7567 75.7877L41.5277 70.0987C40.9212 69.5026 40.7225 69.2097 40.231 68.6659L32.3353 60.1741C31.9588 59.8186 31.2895 59.212 31.2895 58.5532V46.9136C31.9483 47.2901 36.3197 52.2784 37.3341 53.3347C37.6583 53.6798 37.878 53.9831 38.1917 54.3805L45.1462 61.7951C45.9096 61.2618 51.881 54.9661 51.9856 54.7256C50.7934 53.6798 49.894 52.4353 48.8483 51.3373L42.5735 44.4978C40.8584 42.9187 39.4362 41.1095 37.7734 39.363L33.8726 35.0753C33.5798 34.7406 33.2974 34.5315 33.0046 34.1968C31.6764 32.67 27.7757 28.33 26.6148 27.2842C25.7429 28.035 24.9348 28.857 24.1991 29.7418C23.8958 30.0764 23.6971 30.3588 23.3938 30.6725C23.0905 30.9863 22.8814 31.1431 22.5886 31.4882L16.9936 37.5538C15.8746 38.5996 14.902 39.8859 13.7621 41.0258L5.83507 49.6117C4.96706 50.6575 1.45322 54.119 1.05582 54.8929" fill="white"/>
<path opacity="0.5" fill-rule="evenodd" clip-rule="evenodd" d="M129.217 73.6958C129.447 73.4239 128.924 73.4449 129.436 73.4867C129.729 73.9155 129.562 108.667 129.562 112.233L139.057 112.181V73.5808C140.103 74.2815 142.969 77.8581 144.286 79.113L151.22 86.5695C151.774 87.2283 152.402 87.8035 152.925 88.4414C153.521 88.0545 157.306 84.0805 158.154 83.2125C158.718 82.6269 159.388 81.9994 159.858 81.3928L154.755 75.8397C152.663 73.7481 144.36 64.723 143.115 63.2903C141.868 61.8308 140.549 60.4347 139.162 59.1071V46.9237L146.085 54.2442C147.748 56.1999 149.536 57.9777 151.241 59.8915C151.534 60.2157 151.816 60.4248 152.109 60.7595C152.402 61.0941 152.684 61.4079 152.946 61.753C153.291 61.6066 159.429 55.3737 159.879 54.7776L157.62 52.2677C157.317 51.9226 157.076 51.7343 156.763 51.3892C156.449 51.0441 156.292 50.835 156.01 50.5212L154.41 48.7748C154.117 48.4401 153.834 48.231 153.542 47.9068C151.45 45.5328 149.212 43.3785 147.183 40.9836C146.137 39.8019 145.029 38.7457 144.046 37.5639C142.77 36.0685 141.327 34.7403 140.03 33.2658C139.308 32.4501 134.874 27.4721 134.383 27.2002C133.53 27.9769 132.74 28.8197 132.019 29.7205L128.004 34.0187C127.491 34.6148 126.958 35.0645 126.456 35.7024C125.954 36.3404 125.41 36.8214 124.845 37.4489C122.816 39.8229 120.516 41.9981 118.476 44.3615C118.204 44.6753 117.964 44.8635 117.671 45.1668L114.461 48.6597C113.206 50.0925 111.825 51.703 110.497 53.0102C109.901 53.544 109.368 54.144 108.907 54.7985C109.965 56.0238 111.101 57.18 112.306 58.2601C113.385 59.5035 114.552 60.6674 115.799 61.7425L118.257 59.0339C119.648 57.413 121.227 55.9593 122.618 54.3384L129.227 47.1538C129.52 46.9133 129.227 47.0911 129.583 46.9237V57.162C129.583 59.9228 129.394 58.9712 127.156 61.6066C126.843 61.9726 126.644 62.1294 126.299 62.485C124.427 64.4302 122.429 66.9819 120.516 68.7597L112.233 77.7326C111.187 78.9875 109.964 80.0961 108.897 81.3615C109.106 81.7693 115.297 88.1172 115.747 88.3682C116.054 88.0786 116.341 87.7676 116.604 87.4375C116.96 87.0715 117.159 86.9146 117.462 86.559C119.093 84.6452 120.892 82.8569 122.576 80.985C122.869 80.6608 123.151 80.4412 123.433 80.1065L129.217 73.6958Z" fill="white"/>
</svg>
