<svg width="160" height="119" viewBox="0 0 160 119" fill="none" xmlns="http://www.w3.org/2000/svg">
<path opacity="0.5" fill-rule="evenodd" clip-rule="evenodd" d="M60.8223 81.7891C61.0419 82.312 69.1154 90.2182 70.2344 91.3058L79.7615 100.791C80.3785 100.373 94.664 85.9514 96.3686 84.2467C97.2458 83.5231 98.023 82.6861 98.6798 81.7578C97.5503 80.8165 86.214 69.3233 84.6035 67.7024C83.0724 66.0407 81.4562 64.4594 79.7615 62.965C79.134 63.3101 71.4789 71.143 70.3494 72.377C67.7559 74.9706 63.1335 79.4047 60.9373 81.7891H60.8223ZM0.407227 34.5719C0.6373 35.0739 8.45978 42.9382 8.97222 43.1682C9.69381 42.7918 28.6853 23.5597 31.3834 20.8721C32.3973 19.7666 33.4727 18.7192 34.6045 17.7347L44.5499 27.6174C44.027 28.8096 22.8498 49.1501 19.0745 53.2601C19.2523 53.7202 27.0434 61.5218 27.5977 61.846C28.741 60.8742 29.8172 59.826 30.8187 58.7086C33.0044 56.5229 52.4979 36.8412 53.2299 36.402C53.8155 36.7367 70.5586 53.5424 70.7678 53.9503L43.274 81.5068C43.5982 82.1029 79.0608 117.649 79.8765 118.109L116.071 82.0087C115.778 81.3081 103.177 68.905 102.33 68.0579C101.482 67.2109 89.0795 54.9752 88.5879 54.2536L101.922 40.8675C103.364 39.3083 104.886 37.8248 106.481 36.4229C107.527 37.1131 131.183 61.3649 132.114 61.8564L140.626 53.4274C140.438 52.8836 135.157 47.8011 134.352 46.9854L115.172 27.8266C115.412 27.1573 121.593 21.2067 122.597 20.2028C123.382 19.3284 124.227 18.5107 125.128 17.7556C126.498 18.9165 136.297 28.8933 137.855 30.4515C139.413 32.0097 150.007 42.865 150.634 43.1787C151.189 42.844 159.001 35.0529 159.168 34.6033L125.034 0.416504C124.071 0.949855 80.9746 44.7265 79.772 45.4899C78.7889 44.8101 57.9778 23.8003 57.183 23.0055C56.6601 22.4826 35.2215 0.855739 34.5312 0.437424L0.407227 34.5719Z" fill="white"/>
</svg>
