<svg width="159" height="77" viewBox="0 0 159 77" fill="none" xmlns="http://www.w3.org/2000/svg">
<path opacity="0.5" fill-rule="evenodd" clip-rule="evenodd" d="M44.4459 76.5423C60.9902 76.8246 63.8871 70.2675 72.4416 68.0296C77.7038 66.7255 83.2342 67.0056 88.3376 68.8348C92.845 70.6545 95.0411 72.8611 100.563 74.754C105.812 76.4027 111.344 76.9509 116.814 76.3645C121.706 75.9172 126.441 74.4114 130.692 71.9513C135.022 69.5459 138.169 67.5799 144.287 67.2975C154.138 66.8478 157.297 70.3303 158.928 70.6754V57.3312C153.867 55.5303 148.482 54.8176 143.126 55.2396C128.789 56.0658 126.101 63.1562 115.936 64.2856C113.098 64.5949 110.231 64.5211 107.413 64.066C102.184 63.1457 99.2556 60.6463 94.8633 58.5756C87.6492 55.2749 79.5891 54.292 71.7932 55.7625C59.1392 58.0423 58.4176 64.7458 44.3204 64.4425C35.1698 64.1497 31.4991 59.4123 24.0635 56.9233C16.2226 54.4903 7.82119 54.5415 0.0104681 57.0697V70.2675C1.46411 69.9643 3.86949 67.5276 11.2005 67.3289C22.3485 67.0256 24.4923 71.3133 32.4298 74.3461C36.2283 75.7819 40.2494 76.5394 44.3099 76.5841L44.4459 76.5423ZM44.3099 21.4293C60.7183 21.7326 63.6989 15.1546 72.2011 12.9375C77.4684 11.6135 83.0095 11.8754 88.1284 13.6905C92.3116 15.3533 95.1561 17.8737 100.448 19.641C105.654 21.2881 111.144 21.84 116.574 21.262C130.546 19.9443 132.48 12.7702 144.088 12.1846C146.858 12.0157 149.637 12.2482 152.34 12.8748C155.833 13.7533 157.903 15.3429 158.844 15.5625V2.17641C154.85 0.346279 148.062 -0.239361 143.158 0.0848328C128.82 0.900546 125.808 8.00143 115.967 9.12042C101.849 10.7309 99.1196 3.63005 88.2853 1.0365C82.85 -0.176001 77.2305 -0.318094 71.7409 0.618178C59.1183 2.91891 58.313 9.61195 44.289 9.28775C34.992 8.97402 31.5933 4.26798 24.1368 1.79992C17.2242 -0.479892 6.79761 -0.720428 0 1.92541V15.0814C0.575182 14.9454 2.85506 13.6278 5.03029 12.9898C7.04194 12.4376 9.11474 12.139 11.2005 12.1009C15.2761 11.861 19.3466 12.6485 23.0387 14.3912C30.2023 18.1037 34.5946 21.1365 44.4459 21.3561L44.3099 21.4293ZM44.3099 49.0067C49.6066 49.2713 54.897 48.3717 59.8086 46.3713C63.9917 44.5935 68.1748 41.5293 72.2011 40.5149C77.4658 39.1926 83.004 39.4582 88.1179 41.2783C92.4684 43.0353 95.6581 45.6184 100.437 47.2184C105.659 48.8609 111.162 49.4127 116.605 48.8394C130.462 47.5217 132.574 40.3371 144.078 39.7724C153.919 39.2809 157.077 42.7529 158.844 43.1398V29.7224C154.557 27.8923 148.303 27.2857 143.158 27.6308C128.747 28.4466 125.965 35.537 115.967 36.656C110.755 37.4443 105.427 36.5581 100.751 34.1252C96.2333 31.9499 94.1103 29.942 88.2748 28.5825C82.8504 27.342 77.2329 27.1962 71.7514 28.1537C66.2505 29.1472 63.0191 31.0296 58.8464 33.2676C53.8266 35.9448 51.0866 36.9802 44.289 36.8338C35.1802 36.52 31.4782 31.8349 24.1264 29.3459C17.1405 26.9615 6.91265 26.8988 0 29.461V42.6588C1.53731 42.3137 3.96362 39.9084 11.2005 39.7201C26.5944 39.3123 26.7198 48.5256 44.2995 48.9753L44.3099 49.0067Z" fill="white"/>
</svg>
