<svg width="76" height="82" viewBox="0 0 76 82" fill="none" xmlns="http://www.w3.org/2000/svg">
<path d="M75.4687 54.7621C75.2242 54.5347 70.2996 50.0441 63.8656 48.8225C64.698 46.5016 65.0524 44.0365 64.9075 41.5753C64.7626 39.1141 64.1214 36.7076 63.0223 34.5001C64.0877 32.3527 64.7174 30.016 64.8751 27.6244C65.0329 25.2329 64.7156 22.8338 63.9415 20.5653C62.7779 17.1058 60.606 14.0727 57.7046 11.8554C54.8032 9.63818 51.3047 8.33792 47.6582 8.12158C45.9752 5.61297 43.6977 3.55884 41.0282 2.14194C38.3588 0.725037 35.3803 -0.0107213 32.3575 0.000118053C29.3348 0.0109574 26.3616 0.768072 23.7024 2.20408C21.0432 3.6401 18.7805 5.71049 17.1156 8.23111C14.0997 8.43285 11.1804 9.37616 8.61751 10.9772C6.05458 12.5782 3.92743 14.7872 2.42526 17.4078C0.923089 20.0284 0.0924686 22.9793 0.00728567 25.998C-0.0778973 29.0168 0.585002 32.0097 1.93701 34.7107C0.612499 37.4178 -0.0233936 40.4095 0.0856459 43.4207C0.194685 46.432 1.04529 49.3699 2.56213 51.9743C4.07897 54.5787 6.21522 56.7691 8.7817 58.3517C11.3482 59.9343 14.2657 60.8601 17.2758 61.0471C19.7714 64.7839 23.5667 67.4619 27.9261 68.5622C26.5515 72.5376 26.144 76.7829 26.7371 80.9469L26.8552 81.6462L27.5635 81.5788C27.9683 81.5788 37.5898 80.5004 42.6915 73.8278C44.1939 71.8022 45.2513 69.4825 45.7946 67.0204C49.3216 72.6723 53.7248 77.7285 58.8398 82L63.7391 76.2121C59.0343 72.2852 55.0186 67.6011 51.8576 62.353C54.3102 63.4981 56.9763 64.1153 59.683 64.1644C60.0372 64.1644 60.3829 64.1644 60.7455 64.1644C69.1275 63.5831 75.2917 56.1354 75.5531 55.8153L76 55.2676L75.4687 54.7621ZM22.8581 55.6046L21.7282 53.3046L19.1984 53.4984C17.1834 53.6556 15.1649 53.2421 13.3743 52.3054C11.5838 51.3687 10.0938 49.9467 9.07523 48.2025C8.05667 46.4584 7.5508 44.4627 7.61567 42.4444C7.68053 40.4261 8.3135 38.467 9.44196 36.7917L10.8671 34.6602L9.44196 32.5371C8.30862 30.8717 7.6667 28.9215 7.58944 26.9091C7.51219 24.8967 8.00273 22.9031 9.00506 21.1559C10.0074 19.4086 11.4812 17.9781 13.2582 17.0275C15.0352 16.077 17.0439 15.6446 19.0551 15.7799L21.5848 15.9484L22.6979 13.6399C23.5738 11.8252 24.9428 10.2932 26.6486 9.21882C28.3544 8.14442 30.3283 7.57096 32.3447 7.56394C34.3612 7.55691 36.339 8.11659 38.0523 9.17907C39.7655 10.2415 41.1452 11.764 42.0337 13.5725L43.1637 15.8725L45.6934 15.6788C48.0699 15.5057 50.4366 16.1268 52.4211 17.4446C54.4056 18.7623 55.8952 20.7018 56.6557 22.9579C57.1866 24.5176 57.3487 26.1789 57.1293 27.8116C56.9098 29.4444 56.3148 31.0041 55.3909 32.3686L53.9658 34.5001L55.4162 36.6148C56.552 38.2802 57.1959 40.2313 57.2744 42.2451C57.353 44.2589 56.8629 46.2541 55.8603 48.0028C54.8576 49.7515 53.3828 51.1831 51.6043 52.134C49.8259 53.085 47.8156 53.5169 45.8031 53.3804L43.2733 53.212L42.1602 55.5204C41.2843 57.3351 39.9154 58.8671 38.2095 59.9415C36.5037 61.0159 34.5299 61.5894 32.5134 61.5964C30.4969 61.6034 28.5191 61.0437 26.8059 59.9812C25.0926 58.9188 23.7129 57.3963 22.8244 55.5878" fill="#690969"/>
</svg>
