<svg width="100" height="100" viewBox="0 0 100 100" fill="none" xmlns="http://www.w3.org/2000/svg">
<path d="M71.2835 33.3746H65.4241V21.4213C65.4241 12.8404 58.4431 5.85938 49.8622 5.85938H49.1796C40.5987 5.85938 33.6177 12.8404 33.6177 21.4213H27.7583C27.7583 9.60958 37.3679 0 49.1796 0H49.8622C61.674 0 71.2835 9.60958 71.2835 21.4213V33.3746Z" fill="#E59E16"/>
<path d="M68.2806 28.7559C62.2224 28.7559 57.3113 33.667 57.3113 39.7252V43.1082L68.2806 45.9465L72.5675 37.6449L68.2806 28.7559Z" fill="#F9B22A"/>
<path d="M68.2808 28.7554V45.946L79.2501 43.1077V39.7247C79.2499 33.6663 74.3388 28.7554 68.2808 28.7554Z" fill="#F9B22A"/>
<path d="M57.3118 43.1079V53.353L56.2261 58.0782L57.3118 66.132H68.2812L72.0521 55.8802L68.2812 43.1079H57.3118Z" fill="#F9B22A"/>
<path d="M79.2504 43.1079H68.2812V66.132H77.3861L79.2504 53.3778V43.1079Z" fill="#F9B22A"/>
<path d="M15.3955 17.4111V81.3963H27.7615L30.6879 72.5831L35.0383 42.0498L30.6879 17.4111H15.3955Z" fill="#F9B22A"/>
<path d="M45.7333 17.4111H30.6877V72.5831L32.8622 81.3963H45.7333V17.4111Z" fill="#E59E16"/>
<path d="M57.3122 62.0519V53.3521L30.6881 64.2112L25.8655 84.2622L30.6881 99.9992H68.2815L74.2026 81.9831L68.2815 57.7144L57.3122 62.0519Z" fill="#E59E16"/>
<path d="M100 59.3071C100 56.4507 97.0925 54.5149 94.4572 55.6167L83.2581 60.2987C81.3528 61.0953 79.2506 59.6957 79.2506 57.6305C79.2506 55.5894 77.1933 54.1906 75.2952 54.9411L70.8106 56.7145C69.2842 57.318 68.2815 58.7928 68.2815 60.4342V95.9994C68.2815 98.2085 70.0724 99.9994 72.2815 99.9994H96.0001C98.2092 99.9994 100 98.2085 100 95.9994V59.3071Z" fill="#E59E16"/>
<path d="M52.4216 79.0176H58.281V84.877H52.4216V79.0176Z" fill="white"/>
<path d="M62.929 79.0176H68.7883V84.877H62.929V79.0176Z" fill="white"/>
<path d="M41.9146 79.0176H47.7739V84.877H41.9146V79.0176Z" fill="white"/>
<path d="M73.436 79.0176H79.2954V84.877H73.436V79.0176Z" fill="white"/>
<path d="M83.9434 79.0176H89.8027V84.877H83.9434V79.0176Z" fill="white"/>
<path d="M4 36.0142C1.79086 36.0142 0 37.805 0 40.0142V95.9994C0 98.2085 1.79086 99.9994 4 99.9994H9.58048C11.3034 99.9994 12.8328 98.8961 13.3763 97.2612L15.2834 91.5241C15.3581 91.2992 15.4127 91.0681 15.4466 90.8336L19.7095 61.2925C19.7706 60.8689 19.7634 60.4383 19.688 60.0171L15.9851 39.31C15.644 37.4028 13.9851 36.0142 12.0476 36.0142H4Z" fill="#E59E16"/>
<path d="M30.6879 36.0142H15.3955V91.1861L18.3252 99.9994H30.6879V36.0142Z" fill="#F9B22A"/>
<path d="M12.4658 51.4824V57.3418H15.3955L17.7393 54.4121L15.3955 51.4824H12.4658Z" fill="#E59E16"/>
<path d="M12.4658 69.0606H15.3955L16.8604 66.1309L15.3955 63.2012H12.4658V69.0606Z" fill="#E59E16"/>
<path d="M12.4658 80.7788H15.3955L16.8604 77.8491L15.3955 74.9194H12.4658V80.7788Z" fill="#E59E16"/>
<path d="M12.4658 99.9984H15.3955L17.2645 93.3631L15.3955 86.7275H12.4658V99.9984Z" fill="#E59E16"/>
</svg>
