<svg width="100" height="100" viewBox="0 0 100 100" fill="none" xmlns="http://www.w3.org/2000/svg">
<path d="M59.9998 47.2222H83.6285C85.7603 47.2222 87.8048 48.069 89.3122 49.5764C90.8196 51.0838 91.6664 53.1283 91.6664 55.2601V77.2222H59.9998V47.2222Z" fill="#F9B22A"/>
<path d="M88.3333 70.5557H94.9999C95.884 70.5557 96.7318 70.9069 97.3569 71.532C97.9821 72.1571 98.3333 73.0049 98.3333 73.889C98.3333 74.7731 97.9821 75.6209 97.3569 76.246C96.7318 76.8711 95.884 77.2223 94.9999 77.2223H91.6666L88.3333 70.5557Z" fill="#E59E16"/>
<path d="M69.9999 40.5553C69.5579 40.5553 69.134 40.3797 68.8214 40.0672C68.5088 39.7546 68.3333 39.3307 68.3333 38.8886V28.8886C68.3333 28.6143 68.401 28.3442 68.5304 28.1023C68.6599 27.8604 68.8471 27.6542 69.0753 27.502L74.0753 24.1686C74.4431 23.9262 74.8919 23.8393 75.3236 23.9268C75.7553 24.0143 76.1348 24.2691 76.3792 24.6356C76.6236 25.0021 76.7129 25.4505 76.6277 25.8826C76.5425 26.3148 76.2897 26.6957 75.9245 26.942L71.6666 29.7805V38.8886C71.6666 39.3307 71.491 39.7546 71.1784 40.0672C70.8659 40.3797 70.4419 40.5553 69.9999 40.5553Z" fill="#F9B22A"/>
<path d="M18.8886 57.2225L13.333 48.8892H34.9997L49.9997 77.2225H40.833L18.8886 57.2225Z" fill="#F9B22A"/>
<path d="M10 42.2225L16.6667 13.8892H50L60 47.2225H56.6667V77.2225L38.2858 42.1969L10 42.2225Z" fill="white"/>
<path d="M66.6667 38.8892H73.3334V77.2225H66.6667V38.8892Z" fill="#E59E16"/>
<path d="M20.8086 92.2231C31.3805 92.2231 39.9507 83.6529 39.9507 73.0811C39.9507 62.5092 31.3805 53.939 20.8086 53.939C10.2367 53.939 1.6665 62.5092 1.6665 73.0811C1.6665 83.6529 10.2367 92.2231 20.8086 92.2231Z" fill="#F9B22A"/>
<path d="M7.74985 72.7986L2.74984 76.1319C2.51262 76.2908 2.23861 76.3862 1.95401 76.409C1.76194 75.3097 1.66574 74.1958 1.66651 73.0798C1.66651 73.0028 1.66651 72.9236 1.66859 72.8465L5.90193 70.0257C6.26966 69.7939 6.71338 69.715 7.13845 69.8058C7.56353 69.8965 7.93633 70.1498 8.17738 70.5115C8.41842 70.8732 8.50862 71.3147 8.42876 71.742C8.34889 72.1692 8.10527 72.5484 7.74985 72.7986Z" fill="#E59E16"/>
<path d="M11.3775 82.1154L10.1983 88.0071C10.1435 88.2866 10.0171 88.5472 9.83167 88.7634C8.85502 88.0777 7.94417 87.3029 7.11084 86.4488L8.10876 81.4613C8.1955 81.0278 8.45089 80.6466 8.81874 80.4014C9.00087 80.28 9.20514 80.1957 9.41987 80.1532C9.6346 80.1108 9.85559 80.111 10.0702 80.154C10.2848 80.1969 10.4889 80.2817 10.6708 80.4036C10.8526 80.5254 11.0087 80.6818 11.1301 80.864C11.2515 81.0461 11.3358 81.2504 11.3783 81.4651C11.4207 81.6798 11.4205 81.9008 11.3775 82.1154Z" fill="#E59E16"/>
<path d="M13.7333 62.3421C13.6578 62.7194 13.4541 63.0589 13.1568 63.3031C12.8595 63.5473 12.4868 63.681 12.1021 63.6817C11.9916 63.6816 11.8814 63.6711 11.7729 63.6505L5.88125 62.4713C5.60188 62.416 5.34145 62.2897 5.125 62.1046C5.81009 61.1276 6.58498 60.2167 7.43958 59.3838L12.4271 60.3817C12.6416 60.4245 12.8457 60.5092 13.0275 60.6309C13.2093 60.7527 13.3653 60.909 13.4866 61.0911C13.608 61.2732 13.6922 61.4774 13.7345 61.6921C13.7768 61.9067 13.7764 62.1276 13.7333 62.3421Z" fill="#E59E16"/>
<path d="M24.1377 91.9353C23.0384 92.1274 21.9245 92.2236 20.8085 92.2228C20.7315 92.2228 20.6544 92.2228 20.5773 92.2207L17.7565 87.9874C17.6284 87.8055 17.5381 87.5998 17.4908 87.3824C17.4435 87.165 17.4401 86.9404 17.481 86.7218C17.5219 86.5031 17.6061 86.2948 17.7288 86.1092C17.8514 85.9236 18.0099 85.7644 18.195 85.6411C18.3802 85.5177 18.5881 85.4327 18.8066 85.3909C19.0251 85.3492 19.2497 85.3516 19.4673 85.3981C19.6848 85.4445 19.8909 85.534 20.0733 85.6614C20.2557 85.7887 20.4108 85.9513 20.5294 86.1395L23.8627 91.1395C24.0218 91.3764 24.1166 91.6507 24.1377 91.9353Z" fill="#E59E16"/>
<path d="M23.4002 60.4848C23.0324 60.7297 22.5825 60.8186 22.1492 60.7318C21.716 60.6451 21.3349 60.3899 21.0898 60.0223L17.7564 55.0223C17.5973 54.7854 17.5026 54.5111 17.4814 54.2265C18.58 54.0343 19.6933 53.9381 20.8085 53.939C20.8856 53.939 20.9648 53.939 21.0419 53.9411L23.8627 58.1723C23.9843 58.3545 24.0688 58.5588 24.1113 58.7737C24.1539 58.9885 24.1537 59.2096 24.1107 59.4244C24.0678 59.6392 23.9829 59.8434 23.861 60.0253C23.7391 60.2073 23.5825 60.3634 23.4002 60.4848Z" fill="#E59E16"/>
<path d="M34.5065 59.7116L33.5086 64.697C33.4335 65.0746 33.23 65.4146 32.9327 65.6592C32.6353 65.9038 32.2624 66.0379 31.8774 66.0386C31.7668 66.0388 31.6565 66.0276 31.5482 66.0053C31.115 65.9184 30.734 65.6631 30.4887 65.2956C30.2434 64.9281 30.1539 64.4783 30.2399 64.0449L31.419 58.1511C31.4744 57.8724 31.6007 57.6126 31.7857 57.397C32.7638 58.0808 33.6748 58.8558 34.5065 59.7116Z" fill="#E59E16"/>
<path d="M36.4915 84.0577C35.8072 85.0353 35.0322 85.9463 34.1769 86.7785L29.1915 85.7806C28.7618 85.6903 28.3852 85.4341 28.1433 85.0676C27.9015 84.7012 27.814 84.2541 27.8999 83.8235C27.9858 83.3929 28.2381 83.0137 28.6021 82.7681C28.966 82.5225 29.4122 82.4304 29.8436 82.5119L35.7374 83.691C36.0167 83.7446 36.2769 83.8711 36.4915 84.0577Z" fill="#E59E16"/>
<path d="M39.95 73.081C39.95 73.1581 39.95 73.2352 39.948 73.3122L35.7167 76.1331C35.349 76.3784 34.8989 76.4676 34.4654 76.3811C34.0319 76.2945 33.6506 76.0393 33.4052 75.6716C33.1599 75.3039 33.0707 74.8538 33.1573 74.4203C33.2438 73.9868 33.499 73.6055 33.8667 73.3602L38.8667 70.0268C39.1038 69.8683 39.3781 69.7742 39.6625 69.7539C39.8546 70.8525 39.9508 71.9657 39.95 73.081Z" fill="#E59E16"/>
<path d="M20.8089 82.2717C25.8851 82.2717 30.0002 78.1566 30.0002 73.0804C30.0002 68.0042 25.8851 63.8892 20.8089 63.8892C15.7327 63.8892 11.6177 68.0042 11.6177 73.0804C11.6177 78.1566 15.7327 82.2717 20.8089 82.2717Z" fill="#F9B22A"/>
<path d="M20.8084 80.5563C24.937 80.5563 28.2838 77.2094 28.2838 73.0809C28.2838 68.9523 24.937 65.6055 20.8084 65.6055C16.6799 65.6055 13.333 68.9523 13.333 73.0809C13.333 77.2094 16.6799 80.5563 20.8084 80.5563Z" fill="#E59E16"/>
<path d="M78.5261 92.2221C85.9962 92.2221 92.0519 86.1663 92.0519 78.6962C92.0519 71.2261 85.9962 65.1704 78.5261 65.1704C71.056 65.1704 65.0002 71.2261 65.0002 78.6962C65.0002 86.1663 71.056 92.2221 78.5261 92.2221Z" fill="#F9B22A"/>
<path d="M69.1002 79.6021L66.1607 81.6479C65.9373 81.8021 65.68 81.9 65.4107 81.9334C65.1369 80.8477 64.9991 79.7322 65.0003 78.6125C65.0003 78.5396 65.0003 78.4646 65.0023 78.3917L67.1961 76.8667C67.3755 76.7375 67.5789 76.6454 67.7942 76.5956C68.0096 76.5458 68.2328 76.5393 68.4507 76.5766C68.6686 76.6139 68.8769 76.6941 69.0635 76.8127C69.2501 76.9313 69.4113 77.0858 69.5376 77.2672C69.6639 77.4486 69.7528 77.6534 69.7992 77.8696C69.8456 78.0857 69.8486 78.3089 69.8079 78.5262C69.7672 78.7435 69.6837 78.9506 69.5622 79.1353C69.4407 79.32 69.2837 79.4787 69.1002 79.6021Z" fill="#E59E16"/>
<path d="M72.5609 85.9766L71.9276 89.5016C71.8797 89.7673 71.7682 90.0175 71.6026 90.2307C70.578 89.6194 69.6387 88.8755 68.8088 88.0182L69.2797 85.3891C69.3183 85.1736 69.3989 84.9679 69.517 84.7836C69.6351 84.5993 69.7883 84.4401 69.9679 84.315C70.1475 84.19 70.35 84.1015 70.5639 84.0547C70.7777 84.0079 70.9986 84.0036 71.2141 84.0422C71.4295 84.0808 71.6352 84.1614 71.8195 84.2795C72.0038 84.3976 72.1631 84.5508 72.2881 84.7304C72.4132 84.9101 72.5017 85.1126 72.5485 85.3264C72.5953 85.5402 72.5995 85.7611 72.5609 85.9766Z" fill="#E59E16"/>
<path d="M73.0963 71.2988C73.0269 71.6834 72.8248 72.0314 72.5252 72.2822C72.2256 72.5331 71.8475 72.6709 71.4567 72.6717C71.3575 72.6719 71.2584 72.6629 71.1609 72.6447L67.6359 72.0134C67.3697 71.9657 67.1194 71.8534 66.9067 71.6863C67.5181 70.6618 68.262 69.7224 69.1192 68.8926L71.7505 69.3655C71.9658 69.404 72.1715 69.4845 72.3557 69.6025C72.54 69.7205 72.6991 69.8737 72.8241 70.0532C72.9491 70.2328 73.0375 70.4352 73.0842 70.6489C73.1309 70.8627 73.135 71.0835 73.0963 71.2988Z" fill="#E59E16"/>
<path d="M79.8562 69.687C79.493 69.9391 79.0447 70.0368 78.6096 69.9587C78.1745 69.8806 77.7882 69.633 77.5354 69.2704L75.4916 66.3308C75.3201 66.0845 75.218 65.7967 75.1958 65.4975C76.2842 65.223 77.4025 65.0845 78.5249 65.085C78.5791 65.085 78.6333 65.085 78.6874 65.087L80.2728 67.3662C80.5247 67.7294 80.6223 68.1777 80.5442 68.6127C80.4661 69.0478 80.2187 69.4341 79.8562 69.687Z" fill="#E59E16"/>
<path d="M81.846 91.7271C80.7603 92.0008 79.6448 92.1387 78.5251 92.1375C78.4522 92.1375 78.3793 92.1375 78.3064 92.1354L76.7793 89.9417C76.6543 89.7619 76.5659 89.5593 76.5191 89.3454C76.4724 89.1315 76.4683 88.9105 76.5069 88.695C76.5456 88.4794 76.6264 88.2737 76.7446 88.0894C76.8628 87.9051 77.0162 87.7459 77.1959 87.6208C77.3757 87.4958 77.5783 87.4074 77.7922 87.3607C78.0061 87.3139 78.2272 87.3098 78.4427 87.3485C78.6582 87.3872 78.864 87.468 79.0483 87.5862C79.2326 87.7044 79.3918 87.8577 79.5168 88.0375L81.5605 90.9771C81.7155 91.2 81.8135 91.4575 81.846 91.7271Z" fill="#E59E16"/>
<path d="M88.2562 69.2176L87.7729 71.9197C87.7034 72.3042 87.5013 72.6522 87.2017 72.9031C86.9021 73.1539 86.524 73.2918 86.1333 73.2926C86.0341 73.2917 85.9352 73.2827 85.8375 73.2655C85.622 73.2268 85.4163 73.1461 85.232 73.0278C85.0478 72.9096 84.8886 72.7563 84.7636 72.5766C84.6387 72.3968 84.5503 72.1943 84.5036 71.9804C84.457 71.7665 84.4529 71.5455 84.4916 71.3301L85.1229 67.8051C85.1747 67.5136 85.3042 67.2415 85.4979 67.0176C86.5097 67.6269 87.4371 68.3666 88.2562 69.2176Z" fill="#E59E16"/>
<path d="M90.1129 85.5954C89.4887 86.6262 88.7307 87.5698 87.8587 88.4016L85.3025 87.9433C85.0871 87.9046 84.8814 87.8238 84.6971 87.7056C84.5129 87.5874 84.3537 87.434 84.2288 87.2543C84.1038 87.0746 84.0155 86.872 83.9688 86.6581C83.9221 86.4443 83.918 86.2233 83.9567 86.0079C83.9954 85.7924 84.0762 85.5867 84.1944 85.4025C84.3126 85.2182 84.4659 85.0591 84.6457 84.9341C84.8254 84.8091 85.028 84.7208 85.2418 84.6741C85.4557 84.6274 85.6766 84.6233 85.8921 84.662L89.4171 85.2954C89.6692 85.34 89.9074 85.4427 90.1129 85.5954Z" fill="#E59E16"/>
<path d="M92.0523 78.612C92.0523 78.7141 92.0502 78.8162 92.0481 78.9183L89.8565 80.4433C89.4935 80.6958 89.045 80.7937 88.6098 80.7156C88.1745 80.6375 87.7881 80.3896 87.5356 80.0266C87.2831 79.6636 87.1852 79.2151 87.2633 78.7799C87.3414 78.3447 87.5893 77.9583 87.9523 77.7058L90.8919 75.662C91.1202 75.5022 91.3855 75.4033 91.6627 75.3745C91.9221 76.4341 92.0529 77.5211 92.0523 78.612Z" fill="#E59E16"/>
<path d="M78.526 83.8889C81.3937 83.8889 83.7185 81.5641 83.7185 78.6964C83.7185 75.8287 81.3937 73.5039 78.526 73.5039C75.6583 73.5039 73.3335 75.8287 73.3335 78.6964C73.3335 81.5641 75.6583 83.8889 78.526 83.8889Z" fill="#E59E16"/>
<path d="M54.6629 50.8817C54.3882 50.8822 54.1177 50.8146 53.8755 50.6851C53.6332 50.5557 53.4268 50.3683 53.2746 50.1396L48.6133 43.148C48.4905 42.9659 48.4049 42.7613 48.3614 42.5461C48.3179 42.3308 48.3174 42.1091 48.3598 41.8936C48.4023 41.6781 48.487 41.4732 48.6089 41.2905C48.7309 41.1079 48.8877 40.9511 49.0704 40.8293C49.2532 40.7075 49.4582 40.6229 49.6737 40.5806C49.8892 40.5382 50.1109 40.5389 50.3261 40.5825C50.5414 40.6262 50.7459 40.7119 50.9279 40.8348C51.1099 40.9577 51.2658 41.1154 51.3866 41.2988L56.0479 48.2907C56.2152 48.5416 56.3114 48.8331 56.326 49.1343C56.3407 49.4355 56.2734 49.7351 56.1312 50.0011C55.9891 50.267 55.7775 50.4894 55.5189 50.6446C55.2603 50.7998 54.9645 50.8818 54.6629 50.8821V50.8817Z" fill="#E59E16"/>
<path d="M46.6679 45.5555C46.318 45.5558 45.9769 45.4459 45.6929 45.2414C45.4089 45.037 45.1965 44.7484 45.0857 44.4165C44.9749 44.0846 44.9714 43.7262 45.0757 43.3922C45.18 43.0582 45.3867 42.7654 45.6667 42.5555L50.6667 38.8055C50.8418 38.6742 51.041 38.5786 51.253 38.5243C51.4651 38.47 51.6857 38.458 51.9024 38.4889C52.119 38.5199 52.3275 38.5932 52.5158 38.7047C52.7042 38.8162 52.8687 38.9637 53 39.1388C53.1313 39.3139 53.2269 39.5132 53.2812 39.7252C53.3355 39.9372 53.3475 40.1579 53.3166 40.3745C53.2856 40.5912 53.2123 40.7997 53.1008 40.988C52.9893 41.1763 52.8418 41.3408 52.6667 41.4722L47.6667 45.2222C47.3788 45.4387 47.0282 45.5558 46.6679 45.5555Z" fill="#F9B22A"/>
<path d="M60 47.2222H54.5833C53.3678 47.2222 52.202 47.7051 51.3424 48.5646C50.4829 49.4241 50 50.5899 50 51.8055V64.9305L56.25 77.2222H60V47.2222Z" fill="#E59E16"/>
<path d="M17.9167 7.22217H48.75C49.5236 7.22217 50.2654 7.52946 50.8124 8.07644C51.3594 8.62342 51.6667 9.36529 51.6667 10.1388V13.8888H15V10.1388C15 9.36529 15.3073 8.62342 15.8543 8.07644C16.4013 7.52946 17.1431 7.22217 17.9167 7.22217Z" fill="#E59E16"/>
<path d="M23.3335 13.8892H30.0002V42.2225H23.3335V13.8892Z" fill="#F9B22A"/>
<path d="M84.9999 58.8888C84.5579 58.8888 84.134 58.7132 83.8214 58.4007C83.5088 58.0881 83.3333 57.6642 83.3333 57.2222V53.8888C83.3333 53.4468 83.5088 53.0229 83.8214 52.7103C84.134 52.3978 84.5579 52.2222 84.9999 52.2222C85.4419 52.2222 85.8659 52.3978 86.1784 52.7103C86.491 53.0229 86.6666 53.4468 86.6666 53.8888V57.2222C86.6666 57.6642 86.491 58.0881 86.1784 58.4007C85.8659 58.7132 85.4419 58.8888 84.9999 58.8888Z" fill="#F9B22A"/>
<path d="M50 58.8892H60V62.2225H50V58.8892Z" fill="#E59E16"/>
<path d="M1.6665 52.2222H9.99984L13.3332 48.8888H34.9998L49.9998 77.2222H56.6665L38.3332 42.2222H9.99984L1.6665 52.2222Z" fill="#E59E16"/>
<path d="M68.3333 35.5557H71.6666V38.889H68.3333V35.5557Z" fill="#F9B22A"/>
<path d="M20.8084 83.938C22.9559 83.9381 25.0552 83.3013 26.8408 82.1082C28.6264 80.9152 30.0181 79.2194 30.84 77.2353C31.6618 75.2513 31.8768 73.0681 31.4579 70.9619C31.0389 68.8556 30.0048 66.9209 28.4863 65.4024C26.9678 63.8839 25.0331 62.8497 22.9268 62.4308C20.8206 62.0118 18.6374 62.2269 16.6534 63.0487C14.6693 63.8706 12.9736 65.2623 11.7805 67.0479C10.5874 68.8335 9.95064 70.9328 9.95068 73.0803C9.95399 75.9589 11.099 78.7187 13.1345 80.7542C15.17 82.7897 17.9298 83.9347 20.8084 83.938ZM20.8084 65.5557C22.2966 65.5557 23.7514 65.9969 24.9889 66.8237C26.2263 67.6505 27.1908 68.8257 27.7603 70.2006C28.3299 71.5756 28.4789 73.0885 28.1886 74.5482C27.8983 76.0078 27.1817 77.3486 26.1293 78.4009C25.077 79.4533 23.7363 80.1699 22.2766 80.4603C20.817 80.7507 19.3041 80.6017 17.9291 80.0321C16.5542 79.4626 15.379 78.4982 14.5521 77.2608C13.7253 76.0234 13.284 74.5685 13.284 73.0803C13.2862 71.0854 14.0797 69.1728 15.4903 67.7621C16.9009 66.3515 18.8135 65.558 20.8084 65.5557Z" fill="white"/>
<path d="M78.5257 85.5557C79.8823 85.5557 81.2086 85.1535 82.3366 84.3997C83.4647 83.646 84.3439 82.5748 84.8631 81.3214C85.3823 80.068 85.5181 78.6888 85.2535 77.3581C84.9888 76.0275 84.3355 74.8053 83.3762 73.846C82.4169 72.8867 81.1946 72.2334 79.864 71.9687C78.5334 71.704 77.1542 71.8399 75.9008 72.3591C74.6474 72.8783 73.5761 73.7575 72.8224 74.8856C72.0687 76.0136 71.6665 77.3398 71.6665 78.6965C71.6686 80.515 72.3919 82.2585 73.6778 83.5444C74.9637 84.8302 76.7072 85.5536 78.5257 85.5557ZM78.5257 75.1705C79.2231 75.1704 79.9048 75.3772 80.4847 75.7646C81.0646 76.152 81.5165 76.7027 81.7835 77.347C82.0504 77.9913 82.1202 78.7003 81.9842 79.3843C81.8482 80.0683 81.5124 80.6966 81.0192 81.1897C80.5261 81.6829 79.8978 82.0187 79.2138 82.1548C78.5299 82.2908 77.8209 82.221 77.1766 81.9542C76.5323 81.6873 75.9816 81.2353 75.5941 80.6555C75.2066 80.0756 74.9998 79.3939 74.9998 78.6965C75.0009 77.7617 75.3728 76.8655 76.0337 76.2045C76.6947 75.5435 77.5909 75.1716 78.5257 75.1705Z" fill="white"/>
<path d="M95 68.889H93.3333V55.2603C93.3305 52.6873 92.3071 50.2206 90.4878 48.4012C88.6684 46.5819 86.2017 45.5585 83.6287 45.5557H75V38.889C75 38.447 74.8244 38.023 74.5118 37.7105C74.1993 37.3979 73.7754 37.2223 73.3333 37.2223H71.6667V29.7809L75.9246 26.9423C76.2898 26.696 76.5426 26.3152 76.6278 25.883C76.713 25.4508 76.6236 25.0025 76.3793 24.636C76.1349 24.2695 75.7554 24.0147 75.3237 23.9271C74.892 23.8396 74.4432 23.9266 74.0754 24.169L69.0754 27.5023C68.8471 27.6545 68.66 27.8607 68.5305 28.1026C68.4011 28.3445 68.3333 28.6146 68.3333 28.889V37.2223H66.6667C66.2246 37.2223 65.8007 37.3979 65.4881 37.7105C65.1756 38.023 65 38.447 65 38.889V45.5557H61.2402L52.2123 15.4625C52.5394 15.3492 52.8232 15.1368 53.0241 14.8548C53.225 14.5728 53.333 14.2352 53.3333 13.889V10.139C53.3319 8.92385 52.8486 7.75886 51.9894 6.89961C51.1301 6.04037 49.9651 5.55704 48.75 5.55566H17.9166C16.7015 5.55704 15.5365 6.04037 14.6773 6.89961C13.818 7.75886 13.3347 8.92385 13.3333 10.139V13.889C13.3337 14.2568 13.4557 14.6142 13.6804 14.9054C13.9052 15.1966 14.2199 15.4053 14.5756 15.499L8.46789 41.4578L0.386216 51.1555C0.183448 51.3988 0.05423 51.6949 0.0137 52.0091C-0.02683 52.3232 0.0230067 52.6425 0.157372 52.9293C0.291737 53.2162 0.505066 53.4588 0.772366 53.6288C1.03967 53.7987 1.34987 53.889 1.66663 53.889H9.99997C10.2188 53.889 10.4356 53.8459 10.6378 53.7622C10.84 53.6784 11.0237 53.5556 11.1785 53.4009L13.0743 51.505L14.2843 53.3203C10.8814 54.4441 7.82631 56.4277 5.41508 59.0789C3.00386 61.7302 1.31822 64.9592 0.521441 68.4533C-0.27534 71.9473 -0.156249 75.5879 0.867176 79.0224C1.8906 82.4569 3.78367 85.5689 6.36301 88.0569C8.94234 90.5449 12.1205 92.3246 15.5897 93.2236C19.0588 94.1226 22.7013 94.1104 26.1644 93.1883C29.6274 92.2661 32.7937 90.4652 35.3563 87.96C37.919 85.4548 39.7912 82.3303 40.7916 78.889H63.3381C63.3934 82.8805 65.0179 86.6898 67.8601 89.4929C70.7023 92.296 74.5337 93.8675 78.5256 93.8675C82.5175 93.8675 86.349 92.296 89.1912 89.4929C92.0334 86.6898 93.6578 82.8805 93.7131 78.889H95C96.3261 78.889 97.5978 78.3622 98.5355 77.4245C99.4732 76.4869 100 75.2151 100 73.889C100 72.5629 99.4732 71.2912 98.5355 70.3535C97.5978 69.4158 96.3261 68.889 95 68.889ZM83.6287 48.889C85.3179 48.8909 86.9373 49.5628 88.1318 50.7572C89.3262 51.9517 89.9981 53.5711 90 55.2603V68.7555C88.1839 66.6511 85.8238 65.087 83.1781 64.2345C80.5323 63.382 77.703 63.2739 75 63.9221V48.889H83.6287ZM68.3333 40.5557H71.6667V65.1471C70.4587 65.7602 69.3377 66.5315 68.3333 67.4405V40.5557ZM57.6752 75.5557L54.1831 68.889H58.3333V75.5557H57.6752ZM12.1041 40.5557L17.9866 15.5557H21.6666V40.5557H12.1041ZM25 15.5557H28.3333V40.5557H25V15.5557ZM31.6666 15.5557H48.76L57.76 45.5557H54.5833C54.4654 45.5557 54.3485 45.5596 54.2323 45.5661L51.8908 42.0542L52.6666 41.4723C52.8417 41.341 52.9893 41.1765 53.1008 40.9882C53.2123 40.7998 53.2856 40.5914 53.3166 40.3747C53.3475 40.158 53.3355 39.9374 53.2812 39.7254C53.2268 39.5133 53.1313 39.3141 53 39.139C52.8687 38.9639 52.7041 38.8164 52.5158 38.7049C52.3275 38.5934 52.119 38.52 51.9024 38.4891C51.6857 38.4581 51.465 38.4702 51.253 38.5245C51.041 38.5788 50.8417 38.6743 50.6667 38.8057L45.6666 42.5557C45.313 42.8209 45.0792 43.2157 45.0167 43.6533C44.9542 44.0909 45.0681 44.5354 45.3333 44.889C45.5985 45.2426 45.9934 45.4764 46.4309 45.5389C46.8685 45.6014 47.313 45.4875 47.6666 45.2223L49.2202 44.0571L50.9831 46.7015C50.1648 47.2777 49.4969 48.0422 49.0358 48.9305C48.5747 49.8187 48.3337 50.8048 48.3333 51.8057V57.7223L39.8098 41.45C39.6688 41.1804 39.4566 40.9545 39.1964 40.7968C38.9361 40.6392 38.6376 40.5558 38.3333 40.5557H31.6666V15.5557ZM54.5833 48.889H58.3333V52.2223H51.6666V51.8057C51.6675 51.0324 51.975 50.291 52.5218 49.7442C53.0686 49.1974 53.81 48.8898 54.5833 48.889ZM51.6666 55.5557H58.3333V58.889H51.6666V55.5557ZM51.6571 64.0665C51.6633 64.0075 51.6665 63.9483 51.6666 63.889V62.2223H58.3333V65.5557H52.4375L51.6571 64.0665ZM16.6666 10.139C16.667 9.80758 16.7988 9.48983 17.0331 9.25548C17.2675 9.02113 17.5852 8.88933 17.9166 8.889H48.75C49.0814 8.88933 49.3992 9.02113 49.6335 9.25548C49.8678 9.48983 49.9996 9.80758 50 10.139V12.2223H16.6666V10.139ZM3.5208 75.6207L7.74997 72.8003C7.93443 72.6799 8.09321 72.5242 8.21712 72.3421C8.34103 72.16 8.42761 71.9551 8.47187 71.7394C8.51613 71.5236 8.51719 71.3012 8.47497 71.085C8.43276 70.8688 8.34812 70.6632 8.22594 70.4799C8.10376 70.2967 7.94646 70.1394 7.76315 70.0173C7.57984 69.8952 7.37414 69.8107 7.15795 69.7685C6.94176 69.7264 6.71936 69.7276 6.50362 69.7719C6.28787 69.8163 6.08306 69.9029 5.90101 70.0269L3.39247 71.6992C3.64811 68.4228 4.82738 65.2861 6.79351 62.6528L11.7727 63.6488C11.8809 63.6704 11.991 63.6814 12.1014 63.6815C12.5153 63.6817 12.9144 63.5278 13.2211 63.2499C13.5278 62.972 13.7201 62.59 13.7607 62.1781C13.8012 61.7662 13.6871 61.354 13.4405 61.0217C13.1938 60.6893 12.8324 60.4606 12.4264 60.38L9.47914 59.7907C11.9728 57.6551 15.0197 56.2684 18.2679 55.7907L21.0883 60.0211C21.3346 60.3863 21.7155 60.6391 22.1477 60.7243C22.5798 60.8095 23.0282 60.7202 23.3946 60.4758C23.7611 60.2314 24.016 59.8519 24.1035 59.4202C24.191 58.9885 24.104 58.5397 23.8616 58.1719L22.1894 55.6634C25.4657 55.9191 28.6025 57.0984 31.2358 59.0646L30.2398 64.0438C30.1968 64.2584 30.1966 64.4794 30.239 64.6941C30.2815 64.9089 30.3659 65.1131 30.4873 65.2952C30.6087 65.4774 30.7647 65.6338 30.9466 65.7556C31.1285 65.8774 31.3325 65.9622 31.5472 66.0051C31.7618 66.0481 31.9828 66.0483 32.1975 66.0059C32.4122 65.9634 32.6165 65.8791 32.7986 65.7577C32.9807 65.6363 33.1372 65.4802 33.259 65.2983C33.3808 65.1165 33.4656 64.9124 33.5085 64.6978L34.0979 61.7503C36.2335 64.2441 37.6202 67.2911 38.0979 70.5394L33.8675 73.3596C33.6841 73.4805 33.5264 73.6364 33.4035 73.8184C33.2806 74.0004 33.1948 74.2049 33.1512 74.4201C33.1076 74.6354 33.1069 74.8571 33.1493 75.0726C33.1916 75.2881 33.2761 75.4931 33.398 75.6758C33.5198 75.8585 33.6766 76.0154 33.8592 76.1373C34.0419 76.2593 34.2468 76.3439 34.4623 76.3864C34.6777 76.4289 34.8995 76.4284 35.1148 76.3849C35.33 76.3414 35.5346 76.2558 35.7166 76.133L38.2252 74.4607C37.9696 77.737 36.7902 80.8737 34.8239 83.5069L29.8448 82.5113C29.4128 82.4283 28.9656 82.5194 28.6005 82.7648C28.2355 83.0102 27.9822 83.3899 27.896 83.8213C27.8097 84.2526 27.8975 84.7005 28.1401 85.0674C28.3828 85.4343 28.7606 85.6904 29.1912 85.7798L32.1385 86.3692C29.6446 88.5047 26.5977 89.8914 23.3493 90.3692L20.5287 86.139C20.4084 85.9545 20.2526 85.7958 20.0705 85.6719C19.8884 85.548 19.6836 85.4614 19.4678 85.4171C19.2521 85.3728 19.0297 85.3718 18.8135 85.414C18.5973 85.4562 18.3917 85.5409 18.2084 85.663C18.0251 85.7852 17.8679 85.9425 17.7458 86.1258C17.6237 86.3091 17.5391 86.5148 17.497 86.731C17.4549 86.9472 17.456 87.1696 17.5004 87.3854C17.5447 87.6011 17.6314 87.8059 17.7554 87.988L19.4277 90.4965C16.1514 90.2409 13.0146 89.0617 10.3814 87.0955L11.3771 82.1163C11.4221 81.9008 11.4241 81.6786 11.3828 81.4623C11.3415 81.2461 11.2578 81.0402 11.1365 80.8565C11.0152 80.6728 10.8587 80.515 10.6761 80.3921C10.4934 80.2692 10.2883 80.1837 10.0724 80.1406C9.85654 80.0974 9.63427 80.0975 9.41842 80.1407C9.20258 80.1839 8.99743 80.2695 8.81483 80.3924C8.63224 80.5154 8.47581 80.6733 8.35458 80.857C8.23334 81.0408 8.14971 81.2467 8.10851 81.463L7.51914 84.4098C5.38433 81.9157 3.99823 78.8688 3.5208 75.6207ZM20.8096 52.2713C19.7832 52.2713 18.7583 52.347 17.7431 52.4977L16.4475 50.5557H33.9966L47.2319 75.5557H41.4698C41.8199 72.6349 41.5468 69.6731 40.6684 66.8657C39.79 64.0582 38.3263 61.4689 36.3739 59.2686C34.4214 57.0683 32.0247 55.307 29.3417 54.1008C26.6586 52.8947 23.7504 52.2711 20.8087 52.2713H20.8096ZM51.0033 75.5557L36.4729 48.1092C36.3312 47.8415 36.1191 47.6174 35.8596 47.4612C35.6001 47.3049 35.3029 47.2224 35 47.2223H13.3333C13.1144 47.2223 12.8977 47.2654 12.6955 47.3492C12.4933 47.4329 12.3095 47.5557 12.1548 47.7105L9.30976 50.5557H5.22497L10.7806 43.889H37.3248L53.9121 75.5557H51.0033ZM61.6667 48.889H65V71.7917C64.3888 72.9814 63.9387 74.2472 63.6617 75.5557H61.6667V48.889ZM66.9335 81.1934L69.1002 79.6865C69.4631 79.4341 69.7108 79.0478 69.7889 78.6128C69.867 78.1777 69.7691 77.7294 69.5167 77.3665C69.2642 77.0036 68.878 76.7559 68.4429 76.6778C68.0078 76.5997 67.5595 76.6976 67.1967 76.95L66.7581 77.2553C66.9746 75.4758 67.5945 73.7694 68.5706 72.2659L71.1615 72.7311C71.5958 72.8076 72.0428 72.7088 72.4045 72.4563C72.7661 72.2039 73.013 71.8184 73.0909 71.3843C73.1689 70.9501 73.0716 70.5028 72.8204 70.1403C72.5691 69.7778 72.1845 69.5297 71.7506 69.4503L71.2315 69.3571C72.6397 68.2523 74.2806 67.4818 76.0302 67.104L77.5371 69.2707C77.7895 69.6336 78.1757 69.8813 78.6108 69.9594C79.0459 70.0375 79.4942 69.9396 79.8571 69.6871C80.22 69.4347 80.4677 69.0485 80.5458 68.6134C80.6239 68.1783 80.526 67.73 80.2735 67.3671L79.9683 66.9286C81.7476 67.1453 83.454 67.7652 84.9575 68.7411L84.4925 71.3321C84.453 71.5479 84.4565 71.7693 84.5027 71.9837C84.549 72.1981 84.6371 72.4013 84.7621 72.5816C84.887 72.7619 85.0463 72.9157 85.2308 73.0343C85.4153 73.1529 85.6214 73.2339 85.8373 73.2727C86.0532 73.3114 86.2746 73.3072 86.4889 73.2602C86.7031 73.2133 86.906 73.1244 87.0859 72.9989C87.2657 72.8734 87.419 72.7135 87.537 72.5286C87.655 72.3437 87.7353 72.1373 87.7733 71.9213L87.8665 71.4021C88.9713 72.8104 89.7418 74.4513 90.1196 76.2009L87.9529 77.7076C87.7732 77.8325 87.6199 77.9917 87.5018 78.1759C87.3836 78.3602 87.3029 78.5659 87.2642 78.7813C87.2255 78.9967 87.2297 79.2177 87.2764 79.4315C87.3231 79.6453 87.4115 79.8479 87.5365 80.0275C87.6614 80.2072 87.8206 80.3605 88.0048 80.4787C88.1891 80.5969 88.3948 80.6776 88.6102 80.7163C88.8256 80.7549 89.0466 80.7508 89.2604 80.7041C89.4742 80.6574 89.6768 80.569 89.8565 80.444L90.295 80.1388C90.0783 81.9182 89.4584 83.6246 88.4825 85.1282L85.8913 84.6632C85.4577 84.5887 85.0123 84.6886 84.6522 84.9412C84.292 85.1937 84.0463 85.5784 83.9686 86.0114C83.8909 86.4444 83.9876 86.8905 84.2374 87.2525C84.4873 87.6145 84.8701 87.8631 85.3025 87.944L85.8212 88.0371C84.4131 89.142 82.7722 89.9123 81.0227 90.29L79.516 88.1234C79.3911 87.9437 79.2319 87.7904 79.0477 87.6722C78.8634 87.5541 78.6577 87.4733 78.4423 87.4347C78.2269 87.396 78.0059 87.4001 77.7921 87.4468C77.5783 87.4936 77.3757 87.5819 77.196 87.7069C77.0164 87.8319 76.8631 87.9911 76.7449 88.1753C76.6267 88.3595 76.546 88.5652 76.5073 88.7807C76.4687 88.9961 76.4728 89.217 76.5195 89.4309C76.5662 89.6447 76.6546 89.8472 76.7796 90.0269L77.0848 90.4655C75.3054 90.249 73.5989 89.6291 72.0954 88.653L72.5604 86.0619C72.6349 85.6284 72.5349 85.183 72.2824 84.8229C72.0298 84.4627 71.6451 84.217 71.2122 84.1393C70.7792 84.0616 70.3331 84.1582 69.9711 84.4081C69.6091 84.658 69.3605 85.0408 69.2796 85.4732L69.1864 85.9919C68.0817 84.5837 67.3113 82.9429 66.9335 81.1934ZM95 75.5557H93.39C93.1469 74.4045 92.7697 73.2857 92.2663 72.2223H95C95.442 72.2223 95.866 72.3979 96.1785 72.7105C96.4911 73.0231 96.6667 73.447 96.6667 73.889C96.6667 74.331 96.4911 74.755 96.1785 75.0675C95.866 75.3801 95.442 75.5557 95 75.5557Z" fill="#E59E16"/>
</svg>
