<svg width="42" height="41" viewBox="0 0 42 41" fill="none" xmlns="http://www.w3.org/2000/svg">
<path opacity="0.5" fill-rule="evenodd" clip-rule="evenodd" d="M4.13029 28.0294L1.74587 30.2987C1.20959 30.8253 0.783609 31.4535 0.492829 32.1466C0.202049 32.8397 0.0523404 33.5838 0.0523404 34.3354C0.0523404 35.087 0.202049 35.8311 0.492829 36.5242C0.783609 37.2173 1.20959 37.8455 1.74587 38.3721C2.82411 39.4242 4.27095 40.0131 5.77742 40.0131C7.28389 40.0131 8.73067 39.4242 9.8089 38.3721L20.8837 27.9771L31.9482 38.3721C33.0295 39.4224 34.4775 40.0099 35.9849 40.0099C37.4923 40.0099 38.9404 39.4224 40.0217 38.3721C40.5567 37.8448 40.9815 37.2164 41.2715 36.5234C41.5614 35.8304 41.7107 35.0866 41.7107 34.3354C41.7107 33.5842 41.5614 32.8405 41.2715 32.1475C40.9815 31.4545 40.5567 30.826 40.0217 30.2987L37.6268 28.0607C37.4052 27.6812 37.1383 27.33 36.832 27.0149L29.3337 19.9873L37.1039 12.6668C37.4021 12.3845 37.6622 12.0645 37.8778 11.7151L39.9693 9.70716C40.5043 9.1798 40.9292 8.55139 41.2192 7.8584C41.5092 7.1654 41.6585 6.42166 41.6585 5.67044C41.6585 4.91922 41.5092 4.17548 41.2192 3.48249C40.9292 2.78949 40.5043 2.16108 39.9693 1.63372C38.8868 0.58588 37.4392 0 35.9326 0C34.426 0 32.9785 0.58588 31.8959 1.63372L20.8315 12.0288L9.76703 1.63372C8.68449 0.58588 7.23693 0 5.73031 0C4.2237 0 2.77614 0.58588 1.69359 1.63372C1.15732 2.16035 0.731333 2.78856 0.440553 3.48166C0.149773 4.17475 0 4.91882 0 5.67044C0 6.42206 0.149773 7.16613 0.440553 7.85923C0.731333 8.55232 1.15732 9.18053 1.69359 9.70716L3.78517 11.7151C4.0007 12.0645 4.26084 12.3845 4.55904 12.6668L12.3292 19.9873L4.83095 27.0149C4.52798 27.3329 4.26139 27.6836 4.03614 28.0607" fill="white"/>
</svg>
