<svg width="100" height="100" viewBox="0 0 100 100" fill="none" xmlns="http://www.w3.org/2000/svg">
<path d="M19.3086 42.96H65.3116V64.9862H19.3086V42.96Z" fill="#F9B22A"/>
<path d="M35.1623 56.4309V49.7007H26.2192V53.5618L35.1623 56.4309Z" fill="#F9B22A"/>
<path d="M22.8282 95.6233C21.4243 95.2124 20.7878 93.5845 21.578 92.3534C28.9216 80.9124 38.4644 71.3756 49.4446 64.1753C49.5122 64.131 49.5708 64.0743 49.6172 64.0081C49.8256 63.7111 49.7437 63.2998 49.4359 63.1076C35.9037 54.6554 20.3025 49.9839 3.99942 49.3278C1.79207 49.239 0 51.0384 0 53.2476V95.9995C0 98.2087 1.79086 99.9996 4 99.9996H22.2008C24.7818 99.9996 25.3053 96.3485 22.8282 95.6233Z" fill="#F9B22A"/>
<path d="M22.7098 100.001C20.0486 100.001 18.4035 97.0989 19.7702 94.8154C36.1414 67.4554 64.7768 50.8398 95.9994 49.5287C98.2066 49.436 99.9997 51.2357 99.9997 53.4448V96.0007C99.9997 98.2098 98.2089 100.001 95.9997 100.001H22.7098Z" fill="#F9B22A"/>
<path d="M19.3086 42.9609L30.6906 31.7393L42.0727 42.9609H19.3086Z" fill="white"/>
<path d="M65.3119 42.9609L53.9298 31.7393H30.6909L42.073 42.9609H65.3119Z" fill="white"/>
<path d="M80.7719 45.2899C65.5995 33.3329 65.5995 13.9469 80.7719 1.99072C95.9442 13.9469 95.9442 33.3329 80.7719 45.2899Z" fill="#F9B22A"/>
<path d="M10.9748 41.8647C-0.496162 32.825 -0.496162 18.1686 10.9748 9.12891C22.4458 18.1686 22.4458 32.825 10.9748 41.8647Z" fill="#F9B22A"/>
<path d="M36.632 74.8087C25.4715 69.0396 12.9049 65.8608 0 65.8608V81.8969C8.84221 81.8969 17.4836 83.7815 25.377 87.2482" fill="#E59E16"/>
<path d="M34.6643 99.9996C49.1594 78.8434 73.8878 65.8281 100 65.8281V81.8642C83.2985 81.8642 67.3123 88.5873 55.7317 99.9996H34.6643Z" fill="#E59E16"/>
<path d="M27.0888 88.9383C40.4605 71.732 59.817 59.785 81.1758 55.3077C81.1798 55.3069 81.1838 55.3061 81.1869 55.3054C87.325 54.0195 93.6265 53.3488 99.9996 53.3488C99.9996 51.3506 99.9996 52.4578 99.9996 51.3506C99.9996 50.2427 99.9996 50.2695 99.9996 49.3377C94.2204 49.3377 88.4635 49.8596 82.8042 50.8806V46.5506C90.1506 40.4129 94.1831 32.3704 94.1831 23.8061C94.1831 14.951 89.8727 6.65383 82.0452 0.442518C81.3013 -0.147506 80.2413 -0.147506 79.4974 0.442518C71.6707 6.65383 67.3595 14.951 67.3595 23.8061C67.3595 32.3704 71.3928 40.4129 78.7384 46.5506V51.701C74.8766 52.5684 71.0704 53.674 67.3436 55.0052V43.2604C67.3436 42.7088 67.1182 42.2096 66.7529 41.8468L55.3709 30.5463C54.989 30.1678 54.4705 29.9547 53.9291 29.9547H30.6909C30.1502 29.9547 29.631 30.1678 29.2499 30.5463L17.8678 41.8461C17.5026 42.2089 17.2764 42.7088 17.2764 43.2612V50.9213C15.8599 50.6651 14.4372 50.4394 13.0081 50.2467V43.0958C18.5633 38.3796 21.6113 32.2286 21.6113 25.6756C21.6113 18.8296 18.2863 12.4217 12.2491 7.63015C11.5051 7.04013 10.446 7.04013 9.70207 7.63015C3.66488 12.4209 0.339811 18.8296 0.339811 25.6756C0.339811 32.2278 3.38779 38.3788 8.94306 43.0951V49.7851C5.97924 49.5117 2.99557 49.3706 0 49.3706C0 51.457 0.000108613 50.349 0.000108613 51.457C0.000108613 52.5649 0.000108613 51.457 0 53.3825C16.2522 53.3825 32.1486 57.6263 46.1626 65.6774C42.805 67.9294 39.5983 70.389 36.5622 73.0366C31.3777 77.2967 31.3725 75.6751 18.7804 75.6751C17.6586 75.6751 16.7479 76.5731 16.7479 77.681C16.7479 78.789 17.6586 79.687 18.7804 79.687C30.2379 79.687 32.4731 78.3778 36.5622 73.0366C33.4721 75.9867 27.3897 82.0562 24.7244 85.3927C16.8182 82.1205 24.5506 74.9065 16.0419 74.9065C14.92 74.9065 14.0094 75.8045 14.0094 76.9124C14.0094 78.0204 14.92 78.9184 16.0419 78.9184C23.6638 78.9184 28.0488 81.6211 22.1925 88.7087C20.788 90.6347 19.4534 92.6132 18.1981 94.6442L14.9465 99.9996C14.9465 99.9996 19.5146 99.9996 19.8758 99.9996L21.6677 96.734C23.2826 94.1223 25.0277 91.6095 26.8879 89.1969C26.961 89.1169 27.0292 89.0315 27.0888 88.9383ZM71.4253 23.8061C71.4253 16.6764 74.7305 9.92286 80.7717 4.63067C86.8129 9.92286 90.1181 16.6764 90.1181 23.8061C90.1181 30.0887 87.5489 36.0806 82.8042 41.0366V25.6756C82.8042 24.5677 81.8943 23.6697 80.7717 23.6697C79.6491 23.6697 78.7392 24.5677 78.7392 25.6756V41.0366C73.9938 36.0806 71.4253 30.0887 71.4253 23.8061ZM4.40483 25.6756C4.40483 20.559 6.72555 15.6993 10.9756 11.8379C15.2256 15.6985 17.5463 20.559 17.5463 25.6756C17.5463 29.9045 15.9592 33.9587 13.0081 37.4189V24.0709C13.0081 22.9629 12.0982 22.065 10.9756 22.065C9.85372 22.065 8.94306 22.9629 8.94306 24.0709V37.4189C5.99194 33.9587 4.40483 29.9045 4.40483 25.6756ZM60.4252 41.2545H42.9186L35.5777 33.9665H53.0843L60.4252 41.2545ZM30.6909 34.8057L37.187 41.2545H24.1956L30.6909 34.8057ZM21.3414 45.2663H40.0405V58.0228C39.0981 57.5949 38.1501 57.1812 37.195 56.7839V50.0468C37.195 48.9397 36.2851 48.0409 35.1625 48.0409H26.2194C25.0975 48.0409 24.1869 48.9397 24.1869 50.0468V52.432C23.2421 52.1891 22.2941 51.9587 21.3414 51.744V45.2663ZM33.1299 55.2011C31.5182 54.615 29.8922 54.0712 28.2519 53.5721V52.0528H33.1299V55.2011ZM44.1055 59.9856V45.2663H63.2794V56.5622C59.7979 57.9859 56.3959 59.611 53.0978 61.4383C52.0434 62.0221 51.0018 62.6285 49.972 63.2507C48.0507 62.0926 46.0944 61.0034 44.1055 59.9856Z" fill="#E59E16"/>
</svg>
