<svg width="20" height="24" viewBox="0 0 20 24" fill="none" xmlns="http://www.w3.org/2000/svg">
<path d="M7.52186 22.9535C9.04385 22.73 10.4469 22.0308 11.5551 20.9369C12.9154 19.5908 13.6669 17.8073 13.6764 15.9048L13.6574 7.44344C14.3042 7.94284 15.0129 8.36139 15.7787 8.68006C16.963 9.17946 18.2186 9.4363 19.5076 9.4363V6.69196C18.0759 6.41609 16.8298 5.61705 15.9784 4.49458C14.856 3.64797 14.0474 2.40184 13.7668 0.970215H11.0415V11.3055L11.0367 16.9654C11.0367 18.4779 10.0427 19.7621 8.66336 20.2139C8.26383 20.3471 7.83102 20.4089 7.37917 20.3804C6.23768 20.3185 5.24363 19.705 4.65861 18.8061C3.66456 18.2163 2.98917 17.1461 2.97015 15.919C2.94161 14.007 4.50165 12.447 6.43268 12.447C6.81318 12.447 7.17941 12.5088 7.52186 12.6182V9.80253C5.60034 9.8168 3.79773 10.5635 2.44221 11.9095C1.09619 13.246 0.325683 15.0724 0.33044 16.9654C0.33044 18.6491 0.915456 20.2472 1.99512 21.5266C3.26028 22.5017 4.80605 23.0296 6.43268 23.0296C6.79891 23.0343 7.16514 23.0058 7.52186 22.9535Z" fill="#690969"/>
</svg>
