<svg width="24" height="24" viewBox="0 0 24 24" fill="none" xmlns="http://www.w3.org/2000/svg">
<path d="M6.86646e-05 7.3043C0.0772071 6.73477 0.135979 6.16198 0.234027 5.59658C0.789819 2.39413 2.95846 0.215243 6.05925 0.103581C9.7927 -0.0305314 13.5374 -0.037621 17.2703 0.10299C20.6452 0.230013 23.0893 2.84255 23.1947 6.37201C23.3069 10.1198 23.3069 13.8767 23.1947 17.6245C23.0893 21.1539 20.646 23.7662 17.2706 23.8935C13.5377 24.0344 9.79213 24.0379 6.05953 23.8914C2.68409 23.7588 0.350724 21.1403 0.124959 17.6056C0.105463 17.2998 0.042735 16.9967 6.86646e-05 16.6925C6.86646e-05 13.563 6.86646e-05 10.4335 6.86646e-05 7.3043ZM11.6426 21.8018C13.351 21.8018 15.061 21.8552 16.7671 21.7893C19.4421 21.6857 21.0874 20.0166 21.1499 17.2227C21.2273 13.7414 21.2273 10.2554 21.1499 6.77376C21.0874 3.98044 19.4409 2.27242 16.7671 2.21305C13.3733 2.13802 9.97579 2.13861 6.58198 2.21305C3.92848 2.27124 2.27834 3.94469 2.20628 6.70729C2.11474 10.2326 2.11474 13.7642 2.20628 17.2895C2.27834 20.0518 3.92848 21.6865 6.58227 21.7893C8.26688 21.8549 9.95573 21.8018 11.6426 21.8018Z" fill="#690969"/>
<path d="M12.0001 6.00024C8.68655 6.00024 6.00007 8.6865 6.00007 12.0001C6.00007 15.314 8.68655 18.0002 12.0001 18.0002C15.3139 18.0002 18.0001 15.314 18.0001 12.0001C18.0001 8.6865 15.3139 6.00024 12.0001 6.00024ZM12.0001 15.9345C9.82716 15.9345 8.0658 14.1731 8.0658 12.0001C8.0658 9.82714 9.82716 8.06574 12.0001 8.06574C14.173 8.06574 15.9343 9.82714 15.9343 12.0001C15.9343 14.1731 14.173 15.9345 12.0001 15.9345Z" fill="#690969"/>
</svg>
