<svg width="24" height="14" viewBox="0 0 24 14" fill="none" xmlns="http://www.w3.org/2000/svg">
<path fill-rule="evenodd" clip-rule="evenodd" d="M11.7421 13.6115H13.1767C13.1767 13.6115 13.61 13.5652 13.8312 13.3329C14.0349 13.1197 14.0283 12.7193 14.0283 12.7193C14.0283 12.7193 14.0003 10.8447 14.8937 10.5687C15.7744 10.2968 16.9053 12.3804 18.104 13.1816C19.0104 13.7879 19.6992 13.655 19.6992 13.655L22.9042 13.6115C22.9042 13.6115 24.5809 13.5109 23.7859 12.2272C23.7207 12.1221 23.3229 11.2775 21.4029 9.54193C19.3932 7.72544 19.6624 8.01925 22.0832 4.87712C23.5575 2.96354 24.1469 1.79528 23.9628 1.29491C23.7872 0.818344 22.7029 0.944308 22.7029 0.944308L19.0941 0.966201C19.0941 0.966201 18.8266 0.930664 18.6282 1.04616C18.4344 1.15943 18.3096 1.42342 18.3096 1.42342C18.3096 1.42342 17.7384 2.90421 16.9766 4.16354C15.3697 6.82084 14.7272 6.96109 14.4646 6.79609C13.8537 6.41154 14.0062 5.25121 14.0062 4.42689C14.0062 1.85176 14.4073 0.778049 13.2252 0.500102C12.8329 0.407771 12.5442 0.346851 11.5411 0.337015C10.2534 0.324006 9.16357 0.340822 8.54648 0.635267C8.13595 0.831036 7.81925 1.26731 8.01214 1.29238C8.25063 1.32347 8.79084 1.4342 9.07723 1.814C9.44703 2.3039 9.434 3.40426 9.434 3.40426C9.434 3.40426 9.64643 6.43565 8.93778 6.81228C8.45134 7.07055 7.78406 6.54321 6.35145 4.13244C5.61738 2.89755 5.06317 1.53256 5.06317 1.53256C5.06317 1.53256 4.9563 1.27746 4.7657 1.14103C4.53437 0.975719 4.21116 0.92305 4.21116 0.92305L0.781944 0.944942C0.781944 0.944942 0.267154 0.958904 0.0781806 1.17688C-0.0899407 1.37075 0.064822 1.7718 0.064822 1.7718C0.064822 1.7718 2.74955 7.88852 5.78942 10.971C8.57678 13.7971 11.7421 13.6115 11.7421 13.6115Z" fill="#690969"/>
</svg>
