<svg width="26" height="20" viewBox="0 0 26 20" fill="none" xmlns="http://www.w3.org/2000/svg">
<path fill-rule="evenodd" clip-rule="evenodd" d="M3.1656 0.555517C1.62107 0.617362 0.379879 1.85221 0.318951 3.39678C0.134524 8.07217 0.15473 11.5504 0.33108 16.2353C0.38857 17.7625 1.59564 18.9987 3.12191 19.0782C9.76675 19.4245 14.313 19.2721 20.3179 19.0707C20.9687 19.0489 21.6367 19.0265 22.3264 19.0041C23.8977 18.9531 25.1726 17.7014 25.2276 16.1302C25.3913 11.4546 25.3765 8.01952 25.2196 3.41534C25.1667 1.86309 23.9255 0.61279 22.3737 0.547656C15.495 0.258933 10.5762 0.258785 3.1656 0.555517ZM16.0402 9.8082L9.49316 13.0817V6.53467L16.0402 9.8082Z" fill="#690969"/>
</svg>
